<?xml version="1.0" encoding="utf-8"?>
<!-- Generator: Adobe Illustrator 22.1.0, SVG Export Plug-In . SVG Version: 6.00 Build 0)  -->
<svg version="1.1" id="Layer_1" xmlns="http://www.w3.org/2000/svg" xmlns:xlink="http://www.w3.org/1999/xlink" x="0px" y="0px"
	 viewBox="0 0 4237.5 1338.2" style="enable-background:new 0 0 4237.5 1338.2;" xml:space="preserve">
<style type="text/css">
	.st0{fill:#001F58;}
	.st1{fill:#024773;}
	.st2{fill:#A5A5A5;}
	.st3{fill:#D6D6D6;}
	.st4{fill:#494949;}
	.st5{fill:none;stroke:#FFFFFF;stroke-width:12.8947;stroke-linecap:round;stroke-miterlimit:10;}
	.st6{fill:none;stroke:#FFFFFF;stroke-width:12.8947;stroke-linecap:round;stroke-miterlimit:10;stroke-dasharray:79.1834,79.1834;}
	.st7{fill:#FFFFFF;}
</style>
<g>
	<rect x="-640.6" y="-1001.8" class="st0" width="5174.6" height="2388.4"/>
	<path d="M4532.7-997.8v2380.5H-639.2V-997.8H4532.7 M4535.3-1005.8H-641.9v2396.4h5177.3V-1005.8L4535.3-1005.8z"/>
</g>
<g>
	<path d="M3062.5,1445.1H1271.1V334.5c0-40,32.5-72.5,72.5-72.5h1646.1c40,0,72.5,32.5,72.5,72.5v1110.5H3062.5z"/>
	<rect x="1326" y="333.9" class="st1" width="1677.3" height="1039.3"/>
	<g>
		<path class="st2" d="M3242.7,1504.2H1096.1c-12.7,0-23.1-10.4-23.1-23.1l0,0c0-12.7,10.4-23.1,23.1-23.1h2146.6
			c12.7,0,23.1,10.4,23.1,23.1l0,0C3265.8,1493.8,3255.4,1504.2,3242.7,1504.2z"/>
		<path class="st3" d="M3251.5,1495.8H1072.4v-50.7h2192.7v36.7C3265.5,1489.6,3259.3,1495.8,3251.5,1495.8z"/>
		<path class="st2" d="M2327.9,1445.1h-313.2v16.6c0,9.8,8.1,17.2,17.2,17.2h278c9.8,0,17.2-8.1,17.2-17.2v-16.6H2327.9z"/>
	</g>
	<circle class="st4" cx="2167.3" cy="295.8" r="8.5"/>
</g>
<g>
	<g>
		<path class="st5" d="M2999.1,669.2c11.7-4.6,23.4-8.8,36.1-13.3"/>
		<path class="st6" d="M2085.7,1117.9c931.3-457.5,1119.9,350.2,637,193.5c-422.4-157.7-282.3-406.5,203.2-612.3"/>
		<path class="st5" d="M2015.8,1153.4c11.4-6.2,23.4-12,34.1-17.9"/>
	</g>
</g>
<g>
	<path class="st7" d="M3406.3,605.4l-273.2-62.8c-10.7-2.6-18.9,8.1-14.6,17.2l24.7,55l200.6,5.2c3.9,0,4.2,5.9,0.3,6.2l-197.1,26.7
		l-28.6,30.9c-8.5,9.1-0.7,22.8,10.7,21.1l52-7.2l29.3,64.4c3.3,7.5,12.7,9.8,19.2,4.9l181.8-140.2
		C3419.6,621.4,3416.3,608,3406.3,605.4z"/>
</g>
</svg>
