<?xml version="1.0" encoding="utf-8"?>
<!-- Generator: Adobe Illustrator 22.1.0, SVG Export Plug-In . SVG Version: 6.00 Build 0)  -->
<svg version="1.1" id="Layer_1" xmlns="http://www.w3.org/2000/svg" xmlns:xlink="http://www.w3.org/1999/xlink" x="0px" y="0px"
	 viewBox="0 0 129.2 73.2" style="enable-background:new 0 0 129.2 73.2;" xml:space="preserve">
<style type="text/css">
	.st0{fill:#2E3133;}
	.st1{fill:#A5A5A5;}
	.st2{fill:#D6D6D6;}
	.st3{fill:#494949;}
	.st4{fill:#FFFFFF;}
</style>
<path d="M117.3,69.7H11.7V4.3C11.7,1.9,13.6,0,16,0h97c2.4,0,4.3,1.9,4.3,4.3V69.7L117.3,69.7z"/>
<rect x="14.9" y="4.2" class="st0" width="98.8" height="61.2"/>
<g>
	<path class="st1" d="M127.8,73.2H1.4c-0.7,0-1.4-0.6-1.4-1.4l0,0c0-0.7,0.6-1.4,1.4-1.4h126.5c0.7,0,1.4,0.6,1.4,1.4l0,0
		C129.2,72.6,128.6,73.2,127.8,73.2z"/>
	<path class="st2" d="M128.4,72.7H0v-3h129.2v2.2C129.2,72.3,128.8,72.7,128.4,72.7z"/>
	<path class="st1" d="M73.9,69.7H55.5v1c0,0.6,0.5,1,1,1h16.4c0.6,0,1-0.5,1-1L73.9,69.7L73.9,69.7z"/>
</g>
<circle class="st3" cx="64.5" cy="2" r="0.5"/>
<g>
	<path class="st4" d="M65,19.1c-8.7,0-15.7,7-15.7,15.7s7,15.7,15.7,15.7s15.7-7,15.7-15.7S73.7,19.1,65,19.1z M72.4,36.3l-11.1,6.4
		c-1,0.5-2.3-0.1-2.3-1.3V28.2c0-1.2,1.2-1.9,2.3-1.3l11.1,6.8C73.4,34.2,73.4,35.7,72.4,36.3z"/>
</g>
</svg>
