<?xml version="1.0" encoding="utf-8"?>
<!-- Generator: Adobe Illustrator 22.1.0, SVG Export Plug-In . SVG Version: 6.00 Build 0)  -->
<svg version="1.1" id="Layer_1" xmlns="http://www.w3.org/2000/svg" xmlns:xlink="http://www.w3.org/1999/xlink" x="0px" y="0px"
	 viewBox="0 0 145.4 289" style="enable-background:new 0 0 145.4 289;" xml:space="preserve">
<style type="text/css">
	.st0{fill:#1A1A1A;}
	.st1{opacity:0.41;fill:#666666;enable-background:new    ;}
	.st2{fill:#666666;}
	.st3{opacity:0.41;fill:#FFFFFF;enable-background:new    ;}
	.st4{opacity:0.41;fill:#CCCCCC;enable-background:new    ;}
	.st5{opacity:0.1;fill:#CF69A8;enable-background:new    ;}
	.st6{opacity:0.41;fill:#CF69A8;enable-background:new    ;}
	.st7{opacity:0.41;}
	.st8{fill:#CCCCCC;}
	.st9{fill:#E4018B;}
	.st10{fill:#011F58;}
	.st11{fill:#FFFFFF;}
	.st12{fill:#A8C3EF;}
	.st13{fill:none;stroke:#231F20;stroke-width:2;stroke-miterlimit:10;}
</style>
<path class="st0" d="M20.3,0h106.2c7.5,0,17.8,9.4,17.8,19.8v249c0,11.9-10.6,20.2-19.4,20.2H20.3c-9.2,0-18.6-9.2-18.6-20.8V19.4
	C1.7,10.3,11.2,0,20.3,0z"/>
<path class="st1" d="M22.5,1.8h101.8c7.8,0,16.8,9,16.8,20l-0.2,247.5c-0.6,8.7-8.5,17.5-17,17.5h-103c-8.3,0-17-7.8-17-21V20.3
	C3.9,11,10.9,2.5,22.5,1.8z"/>
<path class="st2" d="M34.8,6.5C38,6.6,38,9,38,9c-0.2,2.6,1.3,7.7,5.8,7.7h58.7c3,0.1,6-4.3,6-8.2c0.2-1.7,0.3-2,1.7-2h14.5
	c4.8,0,11.2,4.2,11.2,13.4v247.7c0,3.9-3.8,12-12.7,12H22.5c-5.2,0-12.6-4.5-12.6-13.3V16.6c0-4.4,6.2-10.2,10.9-10.2L34.8,6.5z"/>
<path class="st3" d="M4.9,20.6C5.5,13.8,8.1,8.3,14.7,5c0.4-0.1,0.4,0.4,0.2,0.5c-4.4,4.3-7.5,9-7.2,15.1v249.9
	c0,3.2,2.9,9.7,6.3,12.2c0.6,0.5,0.3,1.3-0.4,0.8c-3.9-2.6-9.1-8.9-8.8-13.6V20.6H4.9z"/>
<path class="st4" d="M80.3,12.4H65.9c-0.7,0-1.3-0.6-1.3-1.3l0,0c0-0.7,0.6-1.3,1.3-1.3h14.4c0.7,0,1.3,0.6,1.3,1.3l0,0
	C81.6,11.8,81,12.4,80.3,12.4z"/>
<circle class="st3" cx="88.5" cy="11.1" r="2.4"/>
<circle class="st3" cx="88.5" cy="11.1" r="1.7"/>
<path d="M144.6,99.8L144.6,99.8c-0.4,0-0.8-0.4-0.8-0.8V67.6c0-0.4,0.4-0.8,0.8-0.8l0,0c0.4,0,0.8,0.4,0.8,0.8V99
	C145.4,99.5,145,99.8,144.6,99.8z"/>
<path d="M0.8,49.5L0.8,49.5c-0.4,0-0.8-0.4-0.8-0.8v-9.1c0-0.4,0.4-0.8,0.8-0.8l0,0c0.4,0,0.8,0.4,0.8,0.8v9.1
	C1.7,49.2,1.3,49.5,0.8,49.5z"/>
<path d="M0.8,80.7L0.8,80.7c-0.4,0-0.8-0.4-0.8-0.8v-20c0-0.4,0.4-0.8,0.8-0.8l0,0c0.4,0,0.8,0.4,0.8,0.8v20
	C1.7,80.3,1.3,80.7,0.8,80.7z"/>
<path d="M0.8,107.3L0.8,107.3c-0.4,0-0.8-0.4-0.8-0.8v-20c0-0.4,0.4-0.8,0.8-0.8l0,0c0.4,0,0.8,0.4,0.8,0.8v20
	C1.7,106.9,1.3,107.3,0.8,107.3z"/>
<rect x="1.7" y="259.7" class="st5" width="2.3" height="2.3"/>
<rect x="1.7" y="27.4" class="st6" width="2.3" height="1.9"/>
<rect x="141.1" y="27.4" class="st6" width="3.2" height="1.8"/>
<rect x="141" y="259.7" class="st5" width="3.3" height="2.1"/>
<g class="st7">
	<rect x="108.6" y="16.1" class="st8" width="0.8" height="1.6"/>
	<rect x="110.2" y="15.4" class="st8" width="0.8" height="2.3"/>
	<rect x="112" y="14.7" class="st8" width="0.8" height="2.9"/>
	<rect x="113.5" y="13.9" class="st8" width="0.8" height="3.7"/>
</g>
<g>
	<path class="st9" d="M62.1,43.6"/>
	<path class="st9" d="M62.1,36.5"/>
</g>
<path class="st10" d="M129.7,253.5h-113c-1.1,0-2-0.9-2-2v-221c0-1.1,0.9-2,2-2h113c1.1,0,2,0.9,2,2v221
	C131.7,252.6,130.8,253.5,129.7,253.5z"/>
<path class="st11" d="M97,77.5H27.5c-2.6,0-4.7-2.1-4.7-4.7V49.3c0-2.6,2.1-4.7,4.7-4.7H97c2.6,0,4.7,2.1,4.7,4.7v23.5
	C101.7,75.4,99.6,77.5,97,77.5z"/>
<path class="st12" d="M122.6,110.5H51.9c-2.3,0-4.1-1.8-4.1-4.1V89.7c0-2.3,1.8-4.1,4.1-4.1h70.7c2.3,0,4.1,1.8,4.1,4.1v16.7
	C126.7,108.7,124.9,110.5,122.6,110.5z"/>
<path class="st11" d="M95.7,170.5h-67c-3.3,0-6-2.7-6-6v-40c0-3.3,2.7-6,6-6h67c3.3,0,6,2.7,6,6v40C101.7,167.8,99,170.5,95.7,170.5
	z"/>
<line class="st13" x1="31.7" y1="53.5" x2="91.7" y2="53.5"/>
<line class="st13" x1="31.7" y1="59.5" x2="91.7" y2="59.5"/>
<line class="st13" x1="31.7" y1="66.5" x2="91.7" y2="66.5"/>
<line class="st13" x1="57.7" y1="94.5" x2="117.7" y2="94.5"/>
<line class="st13" x1="57.7" y1="102.5" x2="117.7" y2="102.5"/>
<line class="st13" x1="31.7" y1="136.5" x2="91.7" y2="136.5"/>
<line class="st13" x1="31.7" y1="144.5" x2="91.7" y2="144.5"/>
<line class="st13" x1="31.7" y1="152.5" x2="91.7" y2="152.5"/>
<line class="st13" x1="31.7" y1="127.5" x2="91.7" y2="127.5"/>
</svg>
