<?xml version="1.0" encoding="utf-8"?>
<!-- Generator: Adobe Illustrator 22.1.0, SVG Export Plug-In . SVG Version: 6.00 Build 0)  -->
<svg version="1.1" id="Layer_1" xmlns="http://www.w3.org/2000/svg" xmlns:xlink="http://www.w3.org/1999/xlink" x="0px" y="0px"
	 viewBox="0 0 58 115.3" style="enable-background:new 0 0 58 115.3;" xml:space="preserve">
<style type="text/css">
	.st0{fill:#1A1A1A;}
	.st1{opacity:0.41;fill:#666666;enable-background:new    ;}
	.st2{fill:#666666;}
	.st3{opacity:0.41;fill:#FFFFFF;enable-background:new    ;}
	.st4{opacity:0.41;fill:#CCCCCC;enable-background:new    ;}
	.st5{opacity:0.1;fill:#CF69A8;enable-background:new    ;}
	.st6{opacity:0.41;fill:#CF69A8;enable-background:new    ;}
	.st7{opacity:0.41;}
	.st8{fill:#CCCCCC;}
	.st9{fill:#E4018B;}
	.st10{fill:#011F58;}
	.st11{fill:#FFFFFF;}
	.st12{fill:#A8C3EF;}
	.st13{fill:none;stroke:#231F20;stroke-width:0.7978;stroke-miterlimit:10;}
</style>
<path class="st0" d="M8.1,0h42.4c3,0,7.1,3.7,7.1,7.9v99.3c0,4.7-4.2,8.1-7.7,8.1H8.1c-3.7,0-7.4-3.7-7.4-8.3V7.7
	C0.7,4.1,4.5,0,8.1,0z"/>
<path class="st1" d="M9,0.7h40.6c3.1,0,6.7,3.6,6.7,8l-0.1,98.7c-0.2,3.5-3.4,7-6.8,7H8.3c-3.3,0-6.8-3.1-6.8-8.4V8.1
	C1.6,4.4,4.3,1,9,0.7z"/>
<path class="st2" d="M13.9,2.6c1.3,0,1.3,1,1.3,1c-0.1,1,0.5,3.1,2.3,3.1h23.4c1.2,0,2.4-1.7,2.4-3.3c0.1-0.7,0.1-0.8,0.7-0.8h5.8
	c1.9,0,4.5,1.7,4.5,5.3v98.8c0,1.6-1.5,4.8-5.1,4.8H9c-2.1,0-5-1.8-5-5.3V6.6c0-1.8,2.5-4.1,4.3-4.1L13.9,2.6z"/>
<path class="st3" d="M2,8.2C2.2,5.5,3.2,3.3,5.9,2C6,2,6,2.2,5.9,2.2c-1.8,1.7-3,3.6-2.9,6v99.7c0,1.3,1.2,3.9,2.5,4.9
	c0.2,0.2,0.1,0.5-0.2,0.3c-1.6-1-3.6-3.6-3.5-5.4L2,8.2L2,8.2z"/>
<path class="st4" d="M32,4.9h-5.7c-0.3,0-0.5-0.2-0.5-0.5l0,0c0-0.3,0.2-0.5,0.5-0.5H32c0.3,0,0.5,0.2,0.5,0.5l0,0
	C32.6,4.7,32.3,4.9,32,4.9z"/>
<circle class="st3" cx="35.3" cy="4.4" r="1"/>
<circle class="st3" cx="35.3" cy="4.4" r="0.7"/>
<path d="M57.7,39.8L57.7,39.8c-0.2,0-0.3-0.2-0.3-0.3V27c0-0.2,0.2-0.3,0.3-0.3l0,0c0.2,0,0.3,0.2,0.3,0.3v12.5
	C58,39.7,57.8,39.8,57.7,39.8z"/>
<path d="M0.3,19.7L0.3,19.7c-0.2,0-0.3-0.2-0.3-0.3v-3.6c0-0.2,0.2-0.3,0.3-0.3l0,0c0.2,0,0.3,0.2,0.3,0.3v3.6
	C0.7,19.6,0.5,19.7,0.3,19.7z"/>
<path d="M0.3,32.2L0.3,32.2C0.2,32.2,0,32,0,31.9v-8c0-0.2,0.2-0.3,0.3-0.3l0,0c0.2,0,0.3,0.2,0.3,0.3v8C0.7,32,0.5,32.2,0.3,32.2z"
	/>
<path d="M0.3,42.8L0.3,42.8c-0.2,0-0.3-0.2-0.3-0.3v-8c0-0.2,0.2-0.3,0.3-0.3l0,0c0.2,0,0.3,0.2,0.3,0.3v8
	C0.7,42.6,0.5,42.8,0.3,42.8z"/>
<rect x="0.7" y="103.6" class="st5" width="0.9" height="0.9"/>
<rect x="0.7" y="10.9" class="st6" width="0.9" height="0.8"/>
<rect x="56.3" y="10.9" class="st6" width="1.3" height="0.7"/>
<rect x="56.2" y="103.6" class="st5" width="1.3" height="0.8"/>
<g class="st7">
	<rect x="43.3" y="6.4" class="st8" width="0.3" height="0.6"/>
	<rect x="44" y="6.1" class="st8" width="0.3" height="0.9"/>
	<rect x="44.7" y="5.9" class="st8" width="0.3" height="1.2"/>
	<rect x="45.3" y="5.5" class="st8" width="0.3" height="1.5"/>
</g>
<g>
	<path class="st9" d="M24.8,17.4"/>
	<path class="st9" d="M24.8,14.6"/>
</g>
<path class="st10" d="M51.7,101.1H6.7c-0.4,0-0.8-0.4-0.8-0.8V12.2c0-0.4,0.4-0.8,0.8-0.8h45.1c0.4,0,0.8,0.4,0.8,0.8v88.2
	C52.5,100.8,52.2,101.1,51.7,101.1z"/>
<path class="st11" d="M38.7,30.9H11c-1,0-1.9-0.8-1.9-1.9v-9.4c0-1,0.8-1.9,1.9-1.9h27.7c1,0,1.9,0.8,1.9,1.9V29
	C40.6,30.1,39.7,30.9,38.7,30.9z"/>
<path class="st12" d="M48.9,44.1H20.7c-0.9,0-1.6-0.7-1.6-1.6v-6.7c0-0.9,0.7-1.6,1.6-1.6h28.2c0.9,0,1.6,0.7,1.6,1.6v6.7
	C50.5,43.4,49.8,44.1,48.9,44.1z"/>
<path class="st11" d="M38.2,68H11.4c-1.3,0-2.4-1.1-2.4-2.4v-16c0-1.3,1.1-2.4,2.4-2.4h26.7c1.3,0,2.4,1.1,2.4,2.4v16
	C40.6,66.9,39.5,68,38.2,68z"/>
<line class="st13" x1="12.6" y1="21.3" x2="36.6" y2="21.3"/>
<line class="st13" x1="12.6" y1="23.7" x2="36.6" y2="23.7"/>
<line class="st13" x1="12.6" y1="26.5" x2="36.6" y2="26.5"/>
<line class="st13" x1="23" y1="37.7" x2="47" y2="37.7"/>
<line class="st13" x1="23" y1="40.9" x2="47" y2="40.9"/>
<line class="st13" x1="12.6" y1="54.4" x2="36.6" y2="54.4"/>
<line class="st13" x1="12.6" y1="57.6" x2="36.6" y2="57.6"/>
<line class="st13" x1="12.6" y1="60.8" x2="36.6" y2="60.8"/>
<line class="st13" x1="12.6" y1="50.9" x2="36.6" y2="50.9"/>
</svg>
