<?xml version="1.0" encoding="utf-8"?>
<!-- Generator: Adobe Illustrator 22.1.0, SVG Export Plug-In . SVG Version: 6.00 Build 0)  -->
<svg version="1.1" id="Layer_1" xmlns="http://www.w3.org/2000/svg" xmlns:xlink="http://www.w3.org/1999/xlink" x="0px" y="0px"
	 viewBox="0 0 46.7 92.9" style="enable-background:new 0 0 46.7 92.9;" xml:space="preserve">
<style type="text/css">
	.st0{fill:#1A1A1A;}
	.st1{opacity:0.41;fill:#666666;enable-background:new    ;}
	.st2{fill:#666666;}
	.st3{opacity:0.41;fill:#FFFFFF;enable-background:new    ;}
	.st4{opacity:0.41;fill:#CCCCCC;enable-background:new    ;}
	.st5{opacity:0.1;fill:#CF69A8;enable-background:new    ;}
	.st6{opacity:0.41;fill:#CF69A8;enable-background:new    ;}
	.st7{opacity:0.41;}
	.st8{fill:#CCCCCC;}
	.st9{fill:#E4018B;}
	.st10{fill:#FFFFFF;}
</style>
<path class="st0" d="M6.5,0h34.1c2.4,0,5.7,3,5.7,6.4v80c0,3.8-3.4,6.5-6.2,6.5H6.5c-3,0-6-3-6-6.7v-80C0.5,3.3,3.6,0,6.5,0z"/>
<path class="st1" d="M7.2,0.6h32.7c2.5,0,5.4,2.9,5.4,6.4l-0.1,79.5c-0.2,2.8-2.7,5.6-5.5,5.6H6.7c-2.7,0-5.5-2.5-5.5-6.7V6.5
	C1.3,3.5,3.5,0.8,7.2,0.6z"/>
<path class="st2" d="M11.2,2.1c1,0,1,0.8,1,0.8c-0.1,0.8,0.4,2.5,1.9,2.5h18.9c1,0,1.9-1.4,1.9-2.6c0.1-0.5,0.1-0.6,0.5-0.6H40
	c1.5,0,3.6,1.3,3.6,4.3V86c0,1.3-1.2,3.9-4.1,3.9H7.2c-1.7,0-4-1.4-4-4.3V5.4c0-1.4,2-3.3,3.5-3.3L11.2,2.1z"/>
<path class="st3" d="M1.6,6.7c0.2-2.2,1-4,3.1-5c0.1,0,0.1,0.1,0.1,0.2C3.4,3.2,2.4,4.7,2.5,6.7v80.3c0,1,0.9,3.1,2,3.9
	c0.2,0.2,0.1,0.4-0.1,0.3c-1.3-0.8-2.9-2.9-2.8-4.4L1.6,6.7L1.6,6.7z"/>
<path class="st4" d="M25.8,4h-4.7c-0.2,0-0.4-0.2-0.4-0.4l0,0c0-0.2,0.2-0.4,0.4-0.4h4.6c0.2,0,0.4,0.2,0.4,0.4l0,0
	C26.2,3.8,26,4,25.8,4z"/>
<circle class="st3" cx="28.4" cy="3.6" r="0.8"/>
<circle class="st3" cx="28.4" cy="3.6" r="0.5"/>
<path d="M46.4,32.1L46.4,32.1c-0.1,0-0.3-0.1-0.3-0.3V21.7c0-0.1,0.1-0.3,0.3-0.3l0,0c0.1,0,0.3,0.1,0.3,0.3v10.1
	C46.7,32,46.6,32.1,46.4,32.1z"/>
<path d="M0.3,15.9L0.3,15.9c-0.1,0-0.3-0.1-0.3-0.3v-2.9c0-0.1,0.1-0.3,0.3-0.3l0,0c0.1,0,0.3,0.1,0.3,0.3v2.9
	C0.5,15.8,0.4,15.9,0.3,15.9z"/>
<path d="M0.3,25.9L0.3,25.9c-0.1,0-0.3-0.1-0.3-0.3v-6.4C0,19.1,0.1,19,0.3,19l0,0c0.1,0,0.3,0.1,0.3,0.3v6.4
	C0.5,25.8,0.4,25.9,0.3,25.9z"/>
<path d="M0.3,34.5L0.3,34.5c-0.1,0-0.3-0.1-0.3-0.3v-6.4c0-0.1,0.1-0.3,0.3-0.3l0,0c0.1,0,0.3,0.1,0.3,0.3v6.4
	C0.5,34.4,0.4,34.5,0.3,34.5z"/>
<rect x="0.5" y="83.5" class="st5" width="0.7" height="0.7"/>
<rect x="0.5" y="8.8" class="st6" width="0.7" height="0.6"/>
<rect x="45.4" y="8.8" class="st6" width="1" height="0.6"/>
<rect x="45.3" y="83.5" class="st5" width="1.1" height="0.7"/>
<g class="st7">
	<rect x="34.9" y="5.2" class="st8" width="0.3" height="0.5"/>
	<rect x="35.4" y="4.9" class="st8" width="0.3" height="0.7"/>
	<rect x="36" y="4.8" class="st8" width="0.3" height="0.9"/>
	<rect x="36.5" y="4.5" class="st8" width="0.3" height="1.2"/>
</g>
<g>
	<path class="st9" d="M20,14"/>
	<path class="st9" d="M20,11.7"/>
</g>
<path d="M41.7,81.5H5.4c-0.4,0-0.6-0.3-0.6-0.6v-71c0-0.4,0.3-0.6,0.6-0.6h36.3c0.4,0,0.6,0.3,0.6,0.6v71
	C42.3,81.2,42,81.5,41.7,81.5z"/>
<g>
	<path class="st10" d="M31.2,68.1l5.2-5.5c0.6-0.6,0.6-1.5,0.1-2.2l-5.1-7c-0.4-0.6-1.3-0.9-2-0.6l-5.2,1.9c-3.4-5-5-11.2-4.5-17.3
		l5.5-0.9c0.7-0.1,1.3-0.7,1.4-1.5l1.1-8.6c0.1-0.8-0.4-1.6-1.2-1.9l-7.3-2.3c-0.7-0.2-1.6,0.1-2,0.8c-9.3,15.7-4,36,11.8,45.3
		C29.8,68.8,30.7,68.7,31.2,68.1z"/>
</g>
</svg>
