<?xml version="1.0" encoding="utf-8"?>
<!-- Generator: Adobe Illustrator 22.1.0, SVG Export Plug-In . SVG Version: 6.00 Build 0)  -->
<svg version="1.1" id="Layer_1" xmlns="http://www.w3.org/2000/svg" xmlns:xlink="http://www.w3.org/1999/xlink" x="0px" y="0px"
	 viewBox="0 0 519 294" style="enable-background:new 0 0 519 294;" xml:space="preserve">
<style type="text/css">
	.st0{fill:#2E3133;}
	.st1{fill:#A5A5A5;}
	.st2{fill:#D6D6D6;}
	.st3{fill:#494949;}
	.st4{fill:#FFFFFF;}
</style>
<path d="M471,280H47V17.2C47,7.7,54.7,0,64.2,0h389.6c9.5,0,17.2,7.7,17.2,17.2L471,280L471,280z"/>
<rect x="60" y="17" class="st0" width="397" height="246"/>
<g>
	<path class="st1" d="M513.5,294H5.5c-3,0-5.5-2.5-5.5-5.5l0,0c0-3,2.5-5.5,5.5-5.5h508c3,0,5.5,2.5,5.5,5.5l0,0
		C519,291.5,516.5,294,513.5,294z"/>
	<path class="st2" d="M515.7,292H0v-12h519v8.7C519,290.5,517.5,292,515.7,292z"/>
	<path class="st1" d="M297,280h-74v3.9c0,2.3,1.9,4.1,4.1,4.1h65.7c2.3,0,4.1-1.9,4.1-4.1V280H297z"/>
</g>
<circle class="st3" cx="259" cy="8" r="2"/>
<g>
	<path class="st4" d="M261.1,76.6c-34.8,0-63,28.2-63,63s28.2,63,63,63s63-28.2,63-63S295.9,76.6,261.1,76.6z M290.8,145.7
		l-44.7,25.7c-4,2.2-9.1-0.6-9.1-5.3v-52.8c0-4.7,5-7.6,9.1-5.3l44.7,27.2C294.9,137.4,294.9,143.4,290.8,145.7z"/>
</g>
</svg>
