<?xml version="1.0" encoding="utf-8"?>
<!-- Generator: Adobe Illustrator 22.1.0, SVG Export Plug-In . SVG Version: 6.00 Build 0)  -->
<svg version="1.1" id="Layer_1" xmlns="http://www.w3.org/2000/svg" xmlns:xlink="http://www.w3.org/1999/xlink" x="0px" y="0px"
	 viewBox="0 0 145.3 289" style="enable-background:new 0 0 145.3 289;" xml:space="preserve">
<style type="text/css">
	.st0{fill:#1A1A1A;}
	.st1{opacity:0.41;fill:#666666;}
	.st2{fill:#666666;}
	.st3{opacity:0.41;fill:#FFFFFF;}
	.st4{opacity:0.41;fill:#CCCCCC;}
	.st5{opacity:0.1;fill:#CF69A8;}
	.st6{opacity:0.41;fill:#CF69A8;}
	.st7{opacity:0.41;}
	.st8{fill:#CCCCCC;}
	.st9{fill:#E4018B;}
	.st10{fill:#FFFFFF;}
</style>
<path class="st0" d="M20.2,0h106.2c7.5,0,17.8,9.4,17.8,19.8v249c0,11.9-10.6,20.2-19.4,20.2H20.2c-9.2,0-18.6-9.2-18.6-20.8V19.4
	C1.6,10.3,11.1,0,20.2,0z"/>
<path class="st1" d="M22.4,1.8h101.8c7.8,0,16.8,9,16.8,20l-0.2,247.5c-0.6,8.7-8.5,17.5-17,17.5h-103c-8.3,0-17-7.8-17-21l0-245.5
	C3.9,11,10.9,2.5,22.4,1.8z"/>
<path class="st2" d="M34.8,6.5C37.9,6.6,37.9,9,37.9,9c-0.2,2.6,1.3,7.7,5.8,7.7l58.7,0c3,0.1,6-4.3,6-8.2c0.2-1.7,0.3-2,1.7-2
	l14.5,0c4.8,0,11.2,4.2,11.2,13.4l0,247.7c0,3.9-3.8,12-12.7,12H22.4c-5.2,0-12.6-4.5-12.6-13.3V16.7c0-4.4,6.2-10.2,10.9-10.2
	L34.8,6.5z"/>
<path class="st3" d="M4.9,20.7c0.6-6.8,3.2-12.3,9.8-15.6c0.4-0.1,0.4,0.4,0.2,0.5c-4.4,4.3-7.5,9-7.2,15.1v249.8
	c0,3.2,2.9,9.7,6.3,12.2c0.6,0.5,0.3,1.3-0.4,0.8c-3.9-2.6-9.1-8.9-8.8-13.6V20.7z"/>
<path class="st4" d="M80.3,12.4H65.8c-0.7,0-1.3-0.6-1.3-1.3v0c0-0.7,0.6-1.3,1.3-1.3h14.4c0.7,0,1.3,0.6,1.3,1.3v0
	C81.6,11.8,81,12.4,80.3,12.4z"/>
<circle class="st3" cx="88.4" cy="11.1" r="2.4"/>
<circle class="st3" cx="88.4" cy="11.1" r="1.7"/>
<path d="M144.5,99.8L144.5,99.8c-0.4,0-0.8-0.4-0.8-0.8V67.6c0-0.4,0.4-0.8,0.8-0.8l0,0c0.4,0,0.8,0.4,0.8,0.8V99
	C145.3,99.5,145,99.8,144.5,99.8z"/>
<path d="M0.8,49.5L0.8,49.5c-0.4,0-0.8-0.4-0.8-0.8v-9.1c0-0.4,0.4-0.8,0.8-0.8h0c0.4,0,0.8,0.4,0.8,0.8v9.1
	C1.6,49.2,1.3,49.5,0.8,49.5z"/>
<path d="M0.8,80.7L0.8,80.7c-0.4,0-0.8-0.4-0.8-0.8l0-20C0,59.4,0.4,59,0.8,59h0c0.4,0,0.8,0.4,0.8,0.8v20
	C1.6,80.3,1.3,80.7,0.8,80.7z"/>
<path d="M0.8,107.3L0.8,107.3c-0.4,0-0.8-0.4-0.8-0.8l0-20c0-0.4,0.4-0.8,0.8-0.8h0c0.4,0,0.8,0.4,0.8,0.8v20
	C1.6,107,1.3,107.3,0.8,107.3z"/>
<rect x="1.6" y="259.8" class="st5" width="2.3" height="2.3"/>
<rect x="1.6" y="27.4" class="st6" width="2.3" height="1.9"/>
<rect x="141.1" y="27.4" class="st6" width="3.2" height="1.8"/>
<rect x="140.9" y="259.7" class="st5" width="3.3" height="2.1"/>
<g class="st7">
	<rect x="108.6" y="16.1" class="st8" width="0.8" height="1.6"/>
	<rect x="110.2" y="15.4" class="st8" width="0.8" height="2.3"/>
	<rect x="111.9" y="14.8" class="st8" width="0.8" height="2.9"/>
	<rect x="113.5" y="14" class="st8" width="0.8" height="3.7"/>
</g>
<g>
	<path class="st9" d="M62.1,43.6"/>
	<path class="st9" d="M62.1,36.5"/>
</g>
<path d="M129.7,253.5h-113c-1.1,0-2-0.9-2-2v-221c0-1.1,0.9-2,2-2h113c1.1,0,2,0.9,2,2v221C131.7,252.6,130.8,253.5,129.7,253.5z"/>
<g>
	<path class="st10" d="M97.2,211.9l16.3-17.2c1.8-1.9,2-4.7,0.4-6.8l-16-21.8c-1.4-1.9-3.9-2.7-6.1-1.8l-16.3,6
		c-10.6-15.5-15.7-34.7-14-53.8l17.2-2.7c2.3-0.4,4.2-2.2,4.5-4.6l3.4-26.8c0.3-2.6-1.2-5-3.7-5.8l-22.6-7.1
		c-2.3-0.7-4.9,0.2-6.2,2.4c-28.8,49-12.5,112.1,36.6,140.9C92.8,214.1,95.5,213.7,97.2,211.9z"/>
</g>
<g>
</g>
<g>
</g>
<g>
</g>
<g>
</g>
<g>
</g>
<g>
</g>
<g>
</g>
<g>
</g>
<g>
</g>
<g>
</g>
<g>
</g>
</svg>
