<?xml version="1.0" encoding="utf-8"?>
<!-- Generator: Adobe Illustrator 22.1.0, SVG Export Plug-In . SVG Version: 6.00 Build 0)  -->
<svg version="1.1" id="Layer_1" xmlns="http://www.w3.org/2000/svg" xmlns:xlink="http://www.w3.org/1999/xlink" x="0px" y="0px"
	 viewBox="0 0 72 72" style="enable-background:new 0 0 72 72;" xml:space="preserve">
<style type="text/css">
	.st0{fill:#FFFFFF;}
</style>
<g>
	<path class="st0" d="M72,7.7v56.6c0,4.3-3.5,7.7-7.7,7.7H51V44h9.9l1.4-11H51v-6.8c0-3.1,0.9-5.2,5.3-5.2H62v-9.5
		c-1-0.1-4.3-0.4-8.2-0.4c-8.2,0-13.8,5-13.8,14.1V33H29v11h10v28H7.7C3.5,72,0,68.5,0,64.3V7.7C0,3.5,3.5,0,7.7,0h56.6
		C68.5,0,72,3.5,72,7.7z"/>
</g>
<g>
</g>
<g>
</g>
<g>
</g>
<g>
</g>
<g>
</g>
<g>
</g>
<g>
</g>
<g>
</g>
<g>
</g>
<g>
</g>
<g>
</g>
</svg>
