<?xml version="1.0" encoding="utf-8"?>
<!-- Generator: Adobe Illustrator 22.1.0, SVG Export Plug-In . SVG Version: 6.00 Build 0)  -->
<svg version="1.1" id="Layer_1" xmlns="http://www.w3.org/2000/svg" xmlns:xlink="http://www.w3.org/1999/xlink" x="0px" y="0px"
	 viewBox="0 0 72 72" style="enable-background:new 0 0 72 72;" xml:space="preserve">
<style type="text/css">
	.st0{fill:#FFFFFF;}
</style>
<g>
	<path class="st0" d="M64.3,0H7.7C3.5,0,0,3.5,0,7.7v56.6C0,68.5,3.5,72,7.7,72h56.6c4.3,0,7.7-3.5,7.7-7.7V7.7
		C72,3.5,68.5,0,64.3,0z M26,52.9c-12.5,0-21.9-13.1-15.2-26.4c2.1-4.1,6-6.9,10.4-7.9c6.9-1.5,12.4,0.2,16.5,4L33,27.2
		c-1.3-1.2-3.5-2.7-6.9-2.7c-5.9,0-10.8,4.9-10.8,11c0,6.1,4.8,11,10.8,11c6.9,0,9.5-5,9.9-7.5H26v-6h16.5c0.2,0.9,0.3,1.8,0.3,2.9
		C42.7,45.9,36.1,52.9,26,52.9L26,52.9z M62,39h-5v5h-4v-5h-5v-5h4v-5h5v5h5V39z"/>
</g>
<g>
</g>
<g>
</g>
<g>
</g>
<g>
</g>
<g>
</g>
<g>
</g>
<g>
</g>
<g>
</g>
<g>
</g>
<g>
</g>
<g>
</g>
</svg>
