<?xml version="1.0" encoding="utf-8"?>
<!-- Generator: Adobe Illustrator 22.1.0, SVG Export Plug-In . SVG Version: 6.00 Build 0)  -->
<svg version="1.1" id="Layer_1" xmlns="http://www.w3.org/2000/svg" xmlns:xlink="http://www.w3.org/1999/xlink" x="0px" y="0px"
	 viewBox="0 0 71.8 71.8" style="enable-background:new 0 0 71.8 71.8;" xml:space="preserve">
<style type="text/css">
	.st0{fill:#011F58;}
	.st1{fill:#FFFFFF;}
</style>
<path class="st0" d="M66.7,71.8H5.1c-2.8,0-5.1-2.3-5.1-5.1V5.1C0,2.3,2.3,0,5.1,0h61.6c2.8,0,5.1,2.3,5.1,5.1v61.6
	C71.8,69.5,69.5,71.8,66.7,71.8z"/>
<g>
	<path class="st1" d="M9.4,33.4c0-0.6,0.5-0.9,1.4-0.9c1.2,0,2.8,0.4,4,1v-3.8c-1.3-0.5-2.7-0.7-4-0.7c-3.3,0-5.5,1.7-5.5,4.6
		c0,4.5,6.2,3.8,6.2,5.7c0,0.7-0.6,1-1.6,1c-1.3,0-3.1-0.6-4.4-1.3v3.9c1.5,0.6,3,0.9,4.4,0.9c3.4,0,5.7-1.7,5.7-4.6
		C15.5,34.3,9.4,35.2,9.4,33.4L9.4,33.4z M20.4,25.3l-4.2,0.9l0,13.4c0,2.5,1.9,4.4,4.5,4.4c1.4,0,2.4-0.3,3-0.6v-3
		c-0.5,0.2-3.3,1-3.3-1.6v-6.2h3.3v-3.7h-3.3L20.4,25.3z M28.9,30.6l-0.3-1.2H25v14.4h4.2V34c1-1.3,2.7-1,3.3-0.9v-3.8
		C31.9,29.2,29.9,28.8,28.9,30.6L28.9,30.6z M33.4,29.4h4.2v14.4h-4.2L33.4,29.4L33.4,29.4z M33.4,27.8l4.2-0.9v-3.4l-4.2,0.9
		L33.4,27.8L33.4,27.8z M46.2,28.6c-1.6,0-2.7,0.8-3.3,1.3l-0.2-1H39v19.3l4.2-0.9l0-4.7c0.6,0.4,1.5,1,3,1c3,0,5.7-2.4,5.7-7.6
		C51.9,31.2,49.1,28.6,46.2,28.6L46.2,28.6z M45.1,40.2c-1,0-1.6-0.3-2-0.8l0-6.2c0.4-0.5,1-0.8,2-0.8c1.5,0,2.6,1.7,2.6,3.9
		C47.7,38.6,46.6,40.2,45.1,40.2L45.1,40.2z M64.5,36.3c0-4.2-2.1-7.6-6-7.6c-3.9,0-6.3,3.4-6.3,7.6c0,5,2.8,7.5,6.9,7.5
		c2,0,3.5-0.4,4.6-1.1v-3.3c-1.1,0.6-2.4,0.9-4.1,0.9c-1.6,0-3-0.6-3.2-2.5h8.1C64.5,37.5,64.5,36.7,64.5,36.3L64.5,36.3z
		 M56.6,34.9c0-1.9,1.1-2.7,2.2-2.7c1,0,2.1,0.8,2.1,2.7H56.6z"/>
</g>
</svg>
