<?xml version="1.0" encoding="utf-8"?>
<!-- Generator: Adobe Illustrator 22.1.0, SVG Export Plug-In . SVG Version: 6.00 Build 0)  -->
<svg version="1.1" id="Layer_1" xmlns="http://www.w3.org/2000/svg" xmlns:xlink="http://www.w3.org/1999/xlink" x="0px" y="0px"
	 viewBox="0 0 71.9 71.9" style="enable-background:new 0 0 71.9 71.9;" xml:space="preserve">
<style type="text/css">
	.st0{fill:#011F58;}
	.st1{fill:none;}
	.st2{fill:#FFFFFF;}
</style>
<path class="st0" d="M66.8,71.9H5.1c-2.8,0-5.1-2.3-5.1-5.1V5.1C0,2.3,2.3,0,5.1,0h61.7c2.8,0,5.1,2.3,5.1,5.1v61.7
	C71.9,69.6,69.6,71.9,66.8,71.9z"/>
<g>
	<path class="st1" d="M43.5,36c-4.3-2.3-8.3-4.4-12.5-6.5v13.1C35.4,40.1,40,37.9,43.5,36L43.5,36L43.5,36z"/>
	<path class="st2" d="M32,52.2c-8.8-0.2-11.9-0.3-13.7-0.7c-1.3-0.3-2.3-0.8-3.1-1.6c-0.6-0.6-1.1-1.6-1.5-2.9
		c-0.3-1.1-0.5-2-0.6-4.2c-0.3-5-0.3-9.1,0-13.7c0.3-2.5,0.4-5.5,2.3-7.3c0.9-0.8,1.9-1.3,3.1-1.6c1.8-0.3,9.6-0.6,17.6-0.6
		c8,0,15.8,0.3,17.6,0.6c1.5,0.3,2.8,1.1,3.6,2.1c1.7,2.7,1.8,6.1,1.9,8.7c0.1,1.3,0.1,8.4,0,9.6c-0.3,4.2-0.5,5.6-1.1,7.2
		c-0.4,1-0.7,1.5-1.3,2c-0.9,0.9-2,1.4-3.2,1.7C45.8,52.2,39.3,52.3,32,52.2L32,52.2z M43.5,35.5c-4.3-2.3-8.3-4.4-12.5-6.6V42
		C35.4,39.6,40,37.4,43.5,35.5L43.5,35.5L43.5,35.5z"/>
</g>
</svg>
