<?xml version="1.0" encoding="utf-8"?>
<!-- Generator: Adobe Illustrator 22.1.0, SVG Export Plug-In . SVG Version: 6.00 Build 0)  -->
<svg version="1.1" id="Layer_1" xmlns="http://www.w3.org/2000/svg" xmlns:xlink="http://www.w3.org/1999/xlink" x="0px" y="0px"
	 viewBox="0 0 72 72" style="enable-background:new 0 0 72 72;" xml:space="preserve">
<style type="text/css">
	.st0{fill:#011F58;}
	.st1{fill:#FFFFFF;}
</style>
<path class="st0" d="M66.9,72H5.1C2.3,72,0,69.7,0,66.9V5.1C0,2.3,2.3,0,5.1,0h61.8C69.7,0,72,2.3,72,5.1v61.8
	C72,69.7,69.7,72,66.9,72z"/>
<g>
	<g>
		<path class="st1" d="M36,11.5c-13.9,0-25.1,11.3-25.1,25.1c0,11.1,7.2,20.5,17.2,23.9c1.3,0.2,1.7-0.5,1.7-1.2c0-0.6,0-2.6,0-4.7
			c-7,1.5-8.5-3-8.5-3c-1.1-2.9-2.8-3.7-2.8-3.7c-2.3-1.6,0.2-1.5,0.2-1.5c2.5,0.2,3.9,2.6,3.9,2.6c2.2,3.8,5.9,2.7,7.3,2.1
			c0.2-1.6,0.9-2.7,1.6-3.4C25.8,47.1,20,44.9,20,35.3c0-2.7,1-5,2.6-6.7c-0.3-0.6-1.1-3.2,0.2-6.7c0,0,2.1-0.7,6.9,2.6
			c2-0.6,4.2-0.8,6.3-0.8c2.1,0,4.3,0.3,6.3,0.8c4.8-3.3,6.9-2.6,6.9-2.6c1.4,3.5,0.5,6,0.2,6.7c1.6,1.8,2.6,4,2.6,6.7
			c0,9.7-5.9,11.8-11.5,12.4c0.9,0.8,1.7,2.3,1.7,4.7c0,3.4,0,6.1,0,6.9c0,0.7,0.5,1.5,1.7,1.2c10-3.3,17.2-12.8,17.2-23.9
			C61.2,22.7,49.9,11.5,36,11.5"/>
		<path class="st1" d="M20.2,47.3c-0.1,0.1-0.3,0.2-0.4,0.1c-0.2-0.1-0.3-0.3-0.2-0.4c0.1-0.1,0.3-0.2,0.4-0.1
			C20.2,47,20.3,47.2,20.2,47.3 M21.4,48.4c-0.1,0.1-0.4,0.1-0.5-0.1c-0.2-0.2-0.2-0.4-0.1-0.5c0.1-0.1,0.4-0.1,0.5,0.1
			C21.5,48.1,21.6,48.3,21.4,48.4 M22.3,49.8c-0.2,0.1-0.4,0-0.6-0.2c-0.2-0.2-0.2-0.5,0-0.6c0.2-0.1,0.4,0,0.6,0.2
			C22.4,49.4,22.4,49.7,22.3,49.8 M23.7,51.4c-0.1,0.2-0.4,0.1-0.6-0.1c-0.2-0.2-0.3-0.5-0.1-0.6c0.1-0.2,0.4-0.1,0.7,0.1
			C23.8,51,23.9,51.3,23.7,51.4 M25.6,52c-0.1,0.2-0.3,0.3-0.6,0.2c-0.3-0.1-0.5-0.3-0.4-0.5c0.1-0.2,0.3-0.3,0.6-0.2
			C25.4,51.6,25.6,51.8,25.6,52 M27.7,52.2c0,0.2-0.2,0.4-0.5,0.4c-0.3,0-0.5-0.2-0.5-0.4c0-0.2,0.2-0.4,0.5-0.4
			C27.4,51.9,27.7,52,27.7,52.2 M29.8,52.2c0,0.2-0.2,0.4-0.5,0.5c-0.3,0.1-0.6-0.1-0.6-0.3c0-0.2,0.2-0.4,0.5-0.5
			C29.5,51.8,29.7,51.9,29.8,52.2"/>
	</g>
</g>
</svg>
