<?xml version="1.0" encoding="utf-8"?>
<!-- Generator: Adobe Illustrator 22.1.0, SVG Export Plug-In . SVG Version: 6.00 Build 0)  -->
<svg version="1.1" id="Layer_1" xmlns="http://www.w3.org/2000/svg" xmlns:xlink="http://www.w3.org/1999/xlink" x="0px" y="0px"
	 viewBox="0 0 72 72" style="enable-background:new 0 0 72 72;" xml:space="preserve">
<style type="text/css">
	.st0{fill:#011F58;}
	.st1{fill:#7F8082;}
	.st2{fill:#FFFFFF;}
</style>
<path class="st0" d="M66.9,72H5.1C2.3,72,0,69.7,0,66.9V5.1C0,2.3,2.3,0,5.1,0h61.8C69.7,0,72,2.3,72,5.1v61.8
	C72,69.7,69.7,72,66.9,72z"/>
<g>
	<path class="st1" d="M37.1,11.5h3.4V16c6.1,0,12.2-0.1,18.3,0c1.3-0.1,2.3,0.9,2.2,2.2c0.1,11.2,0,22.5,0.1,33.7
		c-0.1,1.2,0.1,2.4-0.6,3.4c-0.8,0.6-1.9,0.5-2.9,0.6c-5.7,0-11.4,0-17.1,0v4.6H37c-8.7-1.6-17.4-3-26.1-4.6c0-13.3,0-26.6,0-39.9
		C19.6,14.5,28.4,13,37.1,11.5L37.1,11.5z"/>
	<path class="st2" d="M40.5,17.5h18.7V54H40.5v-4.7h14.9V47H40.5v-2.8h14.9v-2.3H40.5v-2.3h14.9v-2.3H40.5v-2.8h14.9V32H40.5v-2.8
		h14.9v-2.3H40.5v-2.8h14.9v-2.3H40.5V17.5z M22.6,27.7c1.1-0.1,2.2-0.1,3.2-0.2c0.8,3.8,1.5,7.7,2.3,11.5c0.6-3.9,1.4-7.9,2-11.8
		c1.1,0,2.3-0.1,3.4-0.2c-1.3,5.5-2.4,11-3.8,16.5c-0.9,0.5-2.4,0-3.5,0.1c-0.8-3.8-1.6-7.5-2.3-11.3c-0.7,3.7-1.5,7.3-2.3,10.9
		c-1.1-0.1-2.2-0.1-3.3-0.2c-0.9-5-2-10-2.9-15c1,0,1.9-0.1,2.9-0.1c0.6,3.6,1.2,7.2,1.8,10.8C21,35.1,21.8,31.4,22.6,27.7
		L22.6,27.7z"/>
</g>
</svg>
