<?xml version="1.0" encoding="utf-8"?>
<!-- Generator: Adobe Illustrator 22.1.0, SVG Export Plug-In . SVG Version: 6.00 Build 0)  -->
<svg version="1.1" id="Layer_1" xmlns="http://www.w3.org/2000/svg" xmlns:xlink="http://www.w3.org/1999/xlink" x="0px" y="0px"
	 viewBox="0 0 72 72" style="enable-background:new 0 0 72 72;" xml:space="preserve">
<style type="text/css">
	.st0{fill:#011F58;}
	.st1{fill:#FFFFFF;}
</style>
<path class="st0" d="M66.9,72H5.4c-2.8,0-5.1-2.3-5.1-5.1V5.3c0-2.8,2.3-5.1,5.1-5.1h61.5c2.8,0,5.1,2.3,5.1,5.1v61.5
	C72,69.7,69.8,72,66.9,72z"/>
<path class="st1" d="M52.8,37.8c0-4.8,2.1-8.5,6.6-11.1c-2.5-3.5-6.2-5.5-11.1-5.9c-4.7-0.4-9.8,2.7-11.6,2.7c-2,0-6.5-2.6-10-2.6
	c-7.3,0.1-15.1,5.9-15.1,17.5c0,3.4,0.7,7,1.9,10.7c1.7,4.8,7.7,16.6,14.1,16.4c3.3-0.1,5.6-2.3,10-2.3c4.2,0,6.3,2.3,10,2.3
	c6.4-0.1,11.9-10.8,13.4-15.7C52.3,45.8,52.8,38.1,52.8,37.8L52.8,37.8z M45.3,16.2c3.6-4.2,3.3-8.1,3.2-9.5
	c-3.2,0.2-6.8,2.1-8.9,4.6c-2.3,2.6-3.6,5.8-3.4,9.4C39.7,21,42.8,19.3,45.3,16.2z"/>
</svg>
