<?xml version="1.0" encoding="utf-8"?>
<!-- Generator: Adobe Illustrator 22.1.0, SVG Export Plug-In . SVG Version: 6.00 Build 0)  -->
<svg version="1.1" id="Layer_1" xmlns="http://www.w3.org/2000/svg" xmlns:xlink="http://www.w3.org/1999/xlink" x="0px" y="0px"
	 viewBox="0 0 72 72" style="enable-background:new 0 0 72 72;" xml:space="preserve">
<style type="text/css">
	.st0{fill:#011F58;}
	.st1{fill:#FFFFFF;}
</style>
<path class="st0" d="M66.9,72.1H5.1C2.3,72.1,0,69.8,0,67V5.1C0,2.3,2.3,0,5.1,0h61.8C69.7,0,72,2.3,72,5.1v61.8
	C72,69.8,69.8,72.1,66.9,72.1z"/>
<g>
	<path class="st1" d="M13.3,19.8l18.5-2.6v17.9H13.3V19.8z M13.3,52.4L31.8,55V37.3H13.3V52.4z M34,55.2l24.7,3.4V37.3H34V55.2z
		 M34,16.9v18.2h24.7V13.5L34,16.9L34,16.9z"/>
</g>
</svg>
