<?xml version="1.0" encoding="utf-8"?>
<!-- Generator: Adobe Illustrator 22.1.0, SVG Export Plug-In . SVG Version: 6.00 Build 0)  -->
<svg version="1.1" id="Layer_1" xmlns="http://www.w3.org/2000/svg" xmlns:xlink="http://www.w3.org/1999/xlink" x="0px" y="0px"
	 viewBox="0 0 71.7 71.7" style="enable-background:new 0 0 71.7 71.7;" xml:space="preserve">
<style type="text/css">
	.st0{fill:#011F58;}
	.st1{fill:#FFFFFF;}
</style>
<path class="st0" d="M66.6,71.7H5.1c-2.8,0-5.1-2.3-5.1-5.1V5.1C0,2.3,2.3,0,5.1,0h61.5c2.8,0,5.1,2.3,5.1,5.1v61.5
	C71.7,69.4,69.4,71.7,66.6,71.7z"/>
<g>
	<g>
		<path class="st1" d="M24.3,9.7L7.7,20.5l11.5,9.2l16.7-10.3L24.3,9.7z M7.7,38.9l16.6,10.8L35.9,40L19.2,29.7L7.7,38.9z M35.9,40
			l11.6,9.7L64,38.9l-11.5-9.2L35.9,40z"/>
		<path class="st1" d="M64,20.5L47.5,9.7l-11.6,9.7l16.7,10.3L64,20.5z M35.8,42.1l-11.6,9.6l-5-3.2v3.6L35.8,62l16.5-9.9v-3.6
			l-5,3.2L35.8,42.1z"/>
	</g>
</g>
</svg>
