<?xml version="1.0" encoding="utf-8"?>
<!-- Generator: Adobe Illustrator 22.1.0, SVG Export Plug-In . SVG Version: 6.00 Build 0)  -->
<svg version="1.1" id="Layer_1" xmlns="http://www.w3.org/2000/svg" xmlns:xlink="http://www.w3.org/1999/xlink" x="0px" y="0px"
	 viewBox="0 0 216.1 217" style="enable-background:new 0 0 216.1 217;" xml:space="preserve">
<style type="text/css">
	.st0{fill:#011F58;}
	.st1{fill:none;}
	.st2{fill:#FFFFFF;}
	.st3{fill:#7F8082;}
</style>
<path class="st0" d="M209.7,216.9h-76.3c-3.5,0-6.3-2.8-6.3-6.3v-76.3c0-3.5,2.8-6.3,6.3-6.3h76.3c3.5,0,6.3,2.8,6.3,6.3v76.3
	C216,214.1,213.2,216.9,209.7,216.9z"/>
<g>
	<path class="st1" d="M180.9,172.5c-5.3-2.8-10.3-5.4-15.5-8v16.2C170.9,177.6,176.6,174.9,180.9,172.5L180.9,172.5L180.9,172.5z"/>
	<path class="st2" d="M166.7,192.5c-10.9-0.2-14.7-0.4-16.9-0.9c-1.6-0.4-2.8-1-3.8-2c-0.7-0.7-1.4-2-1.9-3.6
		c-0.4-1.4-0.6-2.5-0.7-5.2c-0.4-6.2-0.4-11.3,0-16.9c0.4-3.1,0.5-6.8,2.8-9c1.1-1,2.3-1.6,3.8-2c2.2-0.4,11.9-0.7,21.8-0.7
		c9.9,0,19.5,0.4,21.8,0.7c1.9,0.4,3.5,1.4,4.5,2.6c2.1,3.3,2.2,7.5,2.3,10.8c0.1,1.6,0.1,10.4,0,11.9c-0.4,5.2-0.6,6.9-1.4,8.9
		c-0.5,1.2-0.9,1.9-1.6,2.5c-1.1,1.1-2.5,1.7-4,2.1C183.7,192.5,175.7,192.7,166.7,192.5L166.7,192.5z M180.9,171.9
		c-5.3-2.8-10.3-5.4-15.5-8.2v16.2C170.9,177,176.6,174.2,180.9,171.9L180.9,171.9L180.9,171.9z"/>
</g>
<path class="st0" d="M83.7,90H6.5c-3.5,0-6.4-2.9-6.4-6.4V6.4C0.1,2.9,3,0,6.5,0h77.2c3.5,0,6.4,2.9,6.4,6.4v77.2
	C90.1,87.1,87.2,90,83.7,90z"/>
<g>
	<path class="st2" d="M11.9,41.9c0-0.8,0.6-1.1,1.8-1.1c1.5,0,3.5,0.5,5,1.3v-4.8c-1.6-0.6-3.4-0.9-5-0.9c-4.1,0-6.9,2.1-6.9,5.8
		c0,5.6,7.8,4.8,7.8,7.1c0,0.9-0.8,1.3-2,1.3c-1.6,0-3.9-0.8-5.5-1.6v4.9c1.9,0.8,3.8,1.1,5.5,1.1c4.3,0,7.1-2.1,7.1-5.8
		C19.5,43,11.9,44.1,11.9,41.9L11.9,41.9z M25.7,31.7l-5.3,1.1v16.8c0,3.1,2.4,5.5,5.6,5.5c1.8,0,3-0.4,3.8-0.8v-3.8
		c-0.6,0.3-4.1,1.3-4.1-2v-7.8h4.1v-4.6h-4.1L25.7,31.7z M36.3,38.4l-0.4-1.5h-4.5v18.1h5.3V42.6c1.3-1.6,3.4-1.3,4.1-1.1v-4.8
		C40.1,36.6,37.6,36.1,36.3,38.4L36.3,38.4z M42,36.9h5.3v18.1H42V36.9L42,36.9z M42,34.8l5.3-1.1v-4.3L42,30.6V34.8L42,34.8z
		 M58,35.8c-2,0-3.4,1-4.1,1.6l-0.3-1.3H49v24.2l5.3-1.1v-5.9c0.8,0.5,1.9,1.3,3.8,1.3c3.8,0,7.1-3,7.1-9.5
		C65.2,39.1,61.6,35.8,58,35.8L58,35.8z M56.6,50.4c-1.3,0-2-0.4-2.5-1v-7.8c0.5-0.6,1.3-1,2.5-1c1.9,0,3.3,2.1,3.3,4.9
		C59.9,48.4,58.5,50.4,56.6,50.4L56.6,50.4z M80.9,45.5c0-5.3-2.6-9.5-7.5-9.5s-7.9,4.3-7.9,9.5c0,6.3,3.5,9.4,8.6,9.4
		c2.5,0,4.4-0.5,5.8-1.4v-4.1c-1.4,0.8-3,1.1-5.1,1.1c-2,0-3.8-0.8-4-3.1h10.2C80.9,47,80.9,46,80.9,45.5L80.9,45.5z M71,43.7
		c0-2.4,1.4-3.4,2.8-3.4c1.3,0,2.6,1,2.6,3.4H71z"/>
</g>
<path class="st0" d="M209.7,90h-77.2c-3.5,0-6.4-2.9-6.4-6.4V6.4c0-3.5,2.9-6.4,6.4-6.4h77.2c3.5,0,6.4,2.9,6.4,6.4v77.2
	C216.1,87.1,213.2,90,209.7,90z"/>
<g>
	<path class="st3" d="M172.5,14.4h4.3V20c7.6,0,15.2-0.1,22.9,0c1.6-0.1,2.9,1.1,2.8,2.8c0.1,14,0,28.1,0.1,42.1
		c-0.1,1.5,0.1,3-0.7,4.2c-1,0.8-2.4,0.6-3.6,0.8c-7.1,0-14.2,0-21.4,0v5.8h-4.4c-10.9-2-21.8-3.8-32.6-5.8c0-16.6,0-33.2,0-49.9
		C150.6,18.1,161.6,16.2,172.5,14.4L172.5,14.4z"/>
	<path class="st2" d="M176.7,21.9h23.4v45.6h-23.4v-5.9h18.6v-2.9h-18.6v-3.5h18.6v-2.9h-18.6v-2.9h18.6v-2.9h-18.6v-3.5h18.6V40
		h-18.6v-3.5h18.6v-2.9h-18.6v-3.5h18.6v-2.9h-18.6V21.9z M154.4,34.6c1.4-0.1,2.8-0.1,4-0.2c1,4.8,1.9,9.6,2.9,14.4
		c0.8-4.9,1.8-9.9,2.5-14.8c1.4,0,2.9-0.1,4.2-0.2c-1.6,6.9-3,13.8-4.8,20.6c-1.1,0.6-3,0-4.4,0.1c-1-4.8-2-9.4-2.9-14.1
		c-0.9,4.6-1.9,9.1-2.9,13.6c-1.4-0.1-2.8-0.1-4.1-0.2c-1.1-6.2-2.5-12.5-3.6-18.8c1.2,0,2.4-0.1,3.6-0.1c0.8,4.5,1.5,9,2.2,13.5
		C152.4,43.9,153.4,39.2,154.4,34.6L154.4,34.6z"/>
</g>
<path class="st0" d="M83.7,217H6.4c-3.5,0-6.4-2.9-6.4-6.4v-77.2c0-3.5,2.9-6.4,6.4-6.4h77.4c3.5,0,6.4,2.9,6.4,6.4v77.2
	C90.1,214.3,87.2,217,83.7,217z"/>
<g>
	<path class="st2" d="M45,140.1c-17.6,0-31.8,14.2-31.8,31.8s14.2,31.8,31.8,31.8s31.8-14.2,31.8-31.8S62.6,140.1,45,140.1z
		 M36.4,187.4h-6.9v-22.6h6.9V187.4z M33.1,161.8c-2.2,0-4.1-1.9-4.1-4.1s1.9-4.1,4.1-4.1c2.2,0,4.1,1.9,4.1,4.1
		C37.2,160,35.3,161.8,33.1,161.8z M62.8,187.4h-6.9v-11.9c0-3.2-1.2-5.1-3.7-5.1c-2.7,0-4.1,1.9-4.1,5.1v11.9h-6.9v-22.6h6.4v3
		c0,0,2-3.7,6.9-3.7s8.4,2.9,8.4,9V187.4L62.8,187.4z"/>
</g>
<g>
</g>
<g>
</g>
<g>
</g>
<g>
</g>
<g>
</g>
<g>
</g>
<g>
</g>
<g>
</g>
<g>
</g>
<g>
</g>
<g>
</g>
</svg>
