<?xml version="1.0" encoding="utf-8"?>
<!-- Generator: Adobe Illustrator 22.1.0, SVG Export Plug-In . SVG Version: 6.00 Build 0)  -->
<svg version="1.1" id="Layer_1" xmlns="http://www.w3.org/2000/svg" xmlns:xlink="http://www.w3.org/1999/xlink" x="0px" y="0px"
	 viewBox="0 0 72.1 72.1" style="enable-background:new 0 0 72.1 72.1;" xml:space="preserve">
<style type="text/css">
	.st0{fill:#011F58;}
	.st1{fill:none;}
	.st2{fill:#FFFFFF;}
</style>
<path class="st0" d="M67,72.1H5.1C2.3,72.1,0,69.8,0,67V5.1C0,2.3,2.3,0,5.1,0H67c2.8,0,5.1,2.3,5.1,5.1V67
	C72.1,69.8,69.8,72.1,67,72.1z"/>
<g>
	<path class="st1" d="M47.6,32.5c-2.1-0.1-2.7,1.7-2.9,3.1c0.7-0.1,1.3-0.1,2-0.1c1.3,0,2.5,0.3,3.5,0.8
		C50.3,34.8,49.9,32.6,47.6,32.5L47.6,32.5z"/>
	<path class="st2" d="M18.6,21h4.9c0.3-0.1,0.5-0.3,0.4-0.6l0.4-5.4v0c-0.3-1-0.1-1.8,0.2-2.5l0.2-0.3c0,0,0,0-0.1,0l-9.5,9.4
		c0,0,0,0,0,0.1c0.2-0.1,0.5-0.2,0.5-0.2c0.8-0.4,1.8-0.6,3-0.6V21z"/>
	<path class="st2" d="M56.7,20c-0.4-2.1-1.6-3.1-2.7-3.5c-1.2-0.4-3.7-0.9-6.7-1.3c-2.5-0.3-5.4-0.3-7.1-0.2
		c-0.2-1.4-1.2-2.8-2.4-3.2c-3-1.2-7.7-0.9-8.9-0.6c-1,0.3-2,0.8-2.6,1.7c-0.4,0.6-0.6,1.3-0.7,2.3c0,0.6,0,1.9,0,3.1
		c0,1.2,0,2.3,0,2.3c0,1.1-0.9,1.9-1.9,1.9h-4.9c-1,0-1.8,0.2-2.5,0.5c-0.6,0.3-1,0.7-1.4,1.1c-0.7,0.9-0.8,2-0.8,3.1
		c0,0,0,0.9,0.2,2.7c0.2,1.4,1.6,10.8,3,13.7c0.5,1.1,0.9,1.6,2,2.1c2.4,1,7.8,2.1,10.3,2.5c2.5,0.3,4.1,1,5.1-1
		c0,0,0.2-0.5,0.4-1.2c0.8-2.5,0.9-4.7,0.9-6.3c0-0.2,0.2-0.2,0.2,0c0,1.1-0.2,5.1,2.8,6.2c1.2,0.4,3.7,0.8,6.2,1.1
		c2.3,0.3,3.9,1.2,3.9,7c0,3.5-0.7,4-4.6,4c-3.2,0-4.4,0.1-4.4-2.4c0-2,2-1.8,3.5-1.8c0.7,0,0.2-0.5,0.2-1.7c0-1.2,0.8-2,0-2
		c-5.1-0.1-8.1,0-8.1,6.4c0,5.8,2.2,6.9,9.5,6.9c5.7,0,7.7-0.2,10.1-7.5c0.5-1.4,1.6-5.8,2.3-13.2C58.2,37.7,57.4,23.6,56.7,20
		L56.7,20z M46.8,35.5c-0.7,0-1.4,0-2,0.1c0.2-1.4,0.8-3.2,2.9-3.1c2.3,0.1,2.7,2.3,2.7,3.8C49.3,35.8,48.1,35.6,46.8,35.5
		L46.8,35.5z"/>
</g>
</svg>
