<?xml version="1.0" encoding="utf-8"?>
<!-- Generator: Adobe Illustrator 22.1.0, SVG Export Plug-In . SVG Version: 6.00 Build 0)  -->
<svg version="1.1" id="Layer_1" xmlns="http://www.w3.org/2000/svg" xmlns:xlink="http://www.w3.org/1999/xlink" x="0px" y="0px"
	 viewBox="0 0 215 217" style="enable-background:new 0 0 215 217;" xml:space="preserve">
<style type="text/css">
	.st0{fill:#011F58;}
	.st1{fill:#666666;}
	.st2{fill:#B3B3B3;}
	.st3{fill:#CCCCCC;}
	.st4{fill:#E6E6E6;}
	.st5{fill:#FFFFFF;}
	.st6{fill:none;}
</style>
<path class="st0" d="M83.7,91H7.3C3.8,91,1,88.1,1,84.5V6.5C1,2.9,3.8,0,7.3,0h76.4C87.2,0,90,2.9,90,6.5v78.1
	C90,88.1,87.2,91,83.7,91z"/>
<g>
	<path class="st1" d="M77.5,45.3c0-2.7-0.2-4.6-0.7-6.7H46.3v12.1h17.9c-0.4,3-2.4,7.6-6.7,10.5v0.4l9.7,7.4l0.6,0.1
		C74,63.6,77.5,55.2,77.5,45.3"/>
	<path class="st2" d="M46.6,77.6c8.9,0,16.5-3,21.9-8l-10.4-8c-2.8,2-6.6,3.3-11.5,3.3c-8.8,0-16.2-5.8-18.8-13.7h-0.4l-10.3,7.8
		L17,59.3C22.4,70.2,33.6,77.6,46.6,77.6"/>
	<path class="st3" d="M27.7,51c-0.7-2.1-1.1-4.2-1.1-6.6c0-2.2,0.4-4.5,1.1-6.6v-0.5l-10.4-8L17,29.5c-2.2,4.5-3.6,9.5-3.6,14.9
		s1.2,10.4,3.6,14.9L27.7,51"/>
	<path class="st4" d="M46.6,24.1c6.2,0,10.4,2.7,12.7,5l9.3-9.2c-5.7-5.3-13.2-8.7-22.2-8.7c-13,0-24.1,7.4-29.6,18.2l10.6,8.3
		C30.3,30,37.8,24.1,46.6,24.1"/>
</g>
<path class="st0" d="M208.7,91h-76.4c-3.5,0-6.3-2.9-6.3-6.4V6.4c0-3.5,2.8-6.4,6.3-6.4h76.4c3.5,0,6.3,2.9,6.3,6.4v78.1
	C215,88.1,212.2,91,208.7,91z"/>
<g>
	<g>
		<path class="st5" d="M170.5,14.2c-17.2,0-31,14-31,31c0,13.7,8.9,25.3,21.3,29.5c1.6,0.2,2.1-0.6,2.1-1.5c0-0.7,0-3.2,0-5.8
			c-8.7,1.9-10.5-3.7-10.5-3.7c-1.4-3.6-3.5-4.6-3.5-4.6c-2.8-2,0.2-1.9,0.2-1.9c3.1,0.2,4.8,3.2,4.8,3.2c2.7,4.7,7.3,3.3,9,2.6
			c0.2-2,1.1-3.3,2-4.2c-7-0.7-14.2-3.5-14.2-15.3c0-3.3,1.2-6.2,3.2-8.3c-0.4-0.7-1.4-4,0.2-8.3c0,0,2.6-0.9,8.5,3.2
			c2.5-0.7,5.2-1,7.8-1s5.3,0.4,7.8,1c5.9-4.1,8.5-3.2,8.5-3.2c1.7,4.3,0.6,7.4,0.2,8.3c2,2.2,3.2,4.9,3.2,8.3
			c0,12-7.3,14.6-14.2,15.3c1.1,1,2.1,2.8,2.1,5.8c0,4.2,0,7.5,0,8.5c0,0.9,0.6,1.9,2.1,1.5c12.4-4.1,21.3-15.8,21.3-29.5
			C201.6,28.1,187.7,14.2,170.5,14.2"/>
		<path class="st5" d="M151,58.5c-0.1,0.1-0.4,0.2-0.5,0.1c-0.2-0.1-0.4-0.4-0.2-0.5c0.1-0.1,0.4-0.2,0.5-0.1
			C151,58.1,151.1,58.3,151,58.5 M152.5,59.8c-0.1,0.1-0.5,0.1-0.6-0.1c-0.2-0.2-0.2-0.5-0.1-0.6c0.1-0.1,0.5-0.1,0.6,0.1
			C152.6,59.5,152.7,59.7,152.5,59.8 M153.6,61.6c-0.2,0.1-0.5,0-0.7-0.2s-0.2-0.6,0-0.7c0.2-0.1,0.5,0,0.7,0.2
			C153.7,61.1,153.7,61.4,153.6,61.6 M155.3,63.5c-0.1,0.2-0.5,0.1-0.7-0.1c-0.2-0.2-0.4-0.6-0.1-0.7c0.1-0.2,0.5-0.1,0.9,0.1
			C155.4,63,155.5,63.4,155.3,63.5 M157.6,64.3c-0.1,0.2-0.4,0.4-0.7,0.2c-0.4-0.1-0.6-0.4-0.5-0.6s0.4-0.4,0.7-0.2
			C157.4,63.8,157.6,64,157.6,64.3 M160.2,64.5c0,0.2-0.2,0.5-0.6,0.5s-0.6-0.2-0.6-0.5s0.2-0.5,0.6-0.5
			C159.9,64.2,160.2,64.3,160.2,64.5 M162.8,64.5c0,0.2-0.2,0.5-0.6,0.6c-0.4,0.1-0.7-0.1-0.7-0.4s0.2-0.5,0.6-0.6
			C162.5,64,162.7,64.2,162.8,64.5"/>
	</g>
</g>
<path class="st0" d="M83.6,217H6.4c-3.5,0-6.4-2.9-6.4-6.4v-78.1c0-3.5,2.9-6.4,6.4-6.4h77.3c3.5,0,6.4,2.9,6.4,6.4v78.1
	C90,214.1,87.1,217,83.6,217z"/>
<g>
	<path class="st6" d="M59.4,167.6c-2.6-0.1-3.4,2.1-3.6,3.9c0.9-0.1,1.6-0.1,2.5-0.1c1.6,0,3.1,0.4,4.4,1
		C62.8,170.4,62.3,167.7,59.4,167.6L59.4,167.6z"/>
	<path class="st5" d="M23.2,153.2h6.1c0.4-0.1,0.6-0.4,0.5-0.7l0.5-6.7l0,0c-0.4-1.2-0.1-2.2,0.2-3.1l0.2-0.4c0,0,0,0-0.1,0
		L18.8,154c0,0,0,0,0,0.1c0.2-0.1,0.6-0.2,0.6-0.2c1-0.5,2.2-0.7,3.7-0.7V153.2z"/>
	<path class="st5" d="M70.8,152c-0.5-2.6-2-3.9-3.4-4.4c-1.5-0.5-4.6-1.1-8.4-1.6c-3.1-0.4-6.7-0.4-8.9-0.2c-0.2-1.7-1.5-3.5-3-4
		c-3.7-1.5-9.6-1.1-11.1-0.7c-1.2,0.4-2.5,1-3.2,2.1c-0.5,0.7-0.7,1.6-0.9,2.9c0,0.7,0,2.4,0,3.9c0,1.5,0,2.9,0,2.9
		c0,1.4-1.1,2.4-2.4,2.4h-6.1c-1.2,0-2.2,0.2-3.1,0.6c-0.7,0.4-1.2,0.9-1.7,1.4c-0.9,1.1-1,2.5-1,3.9c0,0,0,1.1,0.2,3.4
		c0.2,1.7,2,13.5,3.7,17.1c0.6,1.4,1.1,2,2.5,2.6c3,1.2,9.7,2.6,12.9,3.1c3.1,0.4,5.1,1.2,6.4-1.2c0,0,0.2-0.6,0.5-1.5
		c1-3.1,1.1-5.9,1.1-7.9c0-0.2,0.2-0.2,0.2,0c0,1.4-0.2,6.4,3.5,7.7c1.5,0.5,4.6,1,7.7,1.4c2.9,0.4,4.9,1.5,4.9,8.7
		c0,4.4-0.9,5-5.7,5c-4,0-5.5,0.1-5.5-3c0-2.5,2.5-2.2,4.4-2.2c0.9,0,0.2-0.6,0.2-2.1s1-2.5,0-2.5c-6.4-0.1-10.1,0-10.1,8
		c0,7.2,2.7,8.6,11.9,8.6c7.1,0,9.6-0.2,12.6-9.4c0.6-1.7,2-7.2,2.9-16.5C72.6,174.1,71.7,156.5,70.8,152L70.8,152z M58.4,171.3
		c-0.9,0-1.7,0-2.5,0.1c0.2-1.7,1-4,3.6-3.9c2.9,0.1,3.4,2.9,3.4,4.7C61.5,171.7,60,171.4,58.4,171.3L58.4,171.3z"/>
</g>
<path class="st0" d="M208.7,215h-76.3c-3.5,0-6.3-2.9-6.3-6.3v-76.4c0-3.5,2.9-6.3,6.3-6.3h76.3c3.5,0,6.3,2.9,6.3,6.3v76.4
	C215,212.2,212.2,215,208.7,215z"/>
<g>
	<g>
		<path class="st5" d="M156.2,138l-20.6,13.4l14.3,11.4l20.7-12.8L156.2,138z M135.6,174.3l20.6,13.4l14.4-12l-20.7-12.8
			L135.6,174.3z M170.6,175.7l14.4,12l20.5-13.4l-14.3-11.4L170.6,175.7z"/>
		<path class="st5" d="M205.4,151.5L185,138l-14.4,12l20.7,12.8L205.4,151.5z M170.4,178.3L156,190.2l-6.2-4v4.5l20.6,12.3
			l20.5-12.3v-4.5l-6.2,4L170.4,178.3z"/>
	</g>
</g>
<g>
</g>
<g>
</g>
<g>
</g>
<g>
</g>
<g>
</g>
<g>
</g>
<g>
</g>
<g>
</g>
<g>
</g>
<g>
</g>
<g>
</g>
</svg>
