<?xml version="1.0" encoding="utf-8"?>
<!-- Generator: Adobe Illustrator 22.1.0, SVG Export Plug-In . SVG Version: 6.00 Build 0)  -->
<svg version="1.1" id="Layer_1" xmlns="http://www.w3.org/2000/svg" xmlns:xlink="http://www.w3.org/1999/xlink" x="0px" y="0px"
	 viewBox="0 0 72 72" style="enable-background:new 0 0 72 72;" xml:space="preserve">
<style type="text/css">
	.st0{fill:#011F58;}
	.st1{fill:#FFFFFF;}
</style>
<path class="st0" d="M66.9,72H5.1C2.3,72,0,69.8,0,67V5.1C0,2.3,2.3,0,5.1,0h61.8C69.7,0,72,2.3,72,5.1v61.8
	C72,69.8,69.7,72,66.9,72z"/>
<g>
	<path class="st1" d="M63.5,47.2c-1.1,1.4-3.7,2.4-3.7,2.4l-19.8,7.1v-5.2l14.6-5.2c1.7-0.6,1.9-1.4,0.6-1.9
		c-1.3-0.4-3.8-0.3-5.4,0.3l-9.7,3.4v-5.4c2.2-0.8,4.5-1.3,7.3-1.6c4-0.4,8.8,0,12.5,1.5C64.1,43.9,64.5,45.9,63.5,47.2L63.5,47.2z
		 M42,38.6V25c0-1.6-0.3-3.2-1.8-3.6c-1.2-0.4-1.9,0.7-1.9,2.4v33.6L29,54.5V14.2c4,0.8,9.7,2.5,12.8,3.5
		c7.9,2.7,10.5,6.1,10.5,13.6C52.3,38.6,47.8,41.4,42,38.6L42,38.6z M12.8,50.9c-4.4-1.2-5.1-3.8-3.1-5.3c1.8-1.4,5-2.4,5-2.4
		l13-4.6v5.3l-9.3,3.3c-1.6,0.6-1.9,1.4-0.6,1.9c1.3,0.4,3.8,0.3,5.4-0.3l4.5-1.6v4.7C22.7,52.8,17.9,52.6,12.8,50.9L12.8,50.9z"/>
</g>
</svg>
