<?xml version="1.0" encoding="utf-8"?>
<!-- Generator: Adobe Illustrator 22.1.0, SVG Export Plug-In . SVG Version: 6.00 Build 0)  -->
<svg version="1.1" id="Layer_1" xmlns="http://www.w3.org/2000/svg" xmlns:xlink="http://www.w3.org/1999/xlink" x="0px" y="0px"
	 viewBox="0 0 72 72" style="enable-background:new 0 0 72 72;" xml:space="preserve">
<style type="text/css">
	.st0{fill:#011F58;}
	.st1{fill:#FFFFFF;}
</style>
<path class="st0" d="M67.1,72.1h-62C2.3,72.1,0,69.8,0,67v-62c0-2.8,2.3-5.1,5.1-5.1h62c2.8,0,5.1,2.3,5.1,5.1v62
	C72.2,69.8,70,72.1,67.1,72.1z"/>
<g>
	<path class="st1" d="M36.1,10.8C22.2,10.8,11,22.1,11,36s11.3,25.1,25.1,25.1S61.2,49.8,61.2,36S50,10.8,36.1,10.8z M46.3,47.8
		c-0.4,0-0.7-0.1-1.1-0.4c-6.3-3.8-13.7-4-21-2.5c-0.4,0.1-0.9,0.3-1.2,0.3c-1,0-1.6-0.8-1.6-1.6c0-1,0.6-1.5,1.4-1.7
		c8.3-1.8,16.8-1.7,24,2.7c0.6,0.4,1,0.8,1,1.7C47.9,47.1,47.1,47.8,46.3,47.8L46.3,47.8z M49,41.1c-0.5,0-0.9-0.2-1.3-0.4
		c-6.3-3.8-15.8-5.3-24.1-3c-0.5,0.1-0.8,0.3-1.2,0.3c-1.1,0-2-0.9-2-2c0-1.1,0.5-1.8,1.5-2.1c2.8-0.8,5.7-1.4,9.9-1.4
		c6.6,0,12.9,1.6,17.9,4.6c0.8,0.5,1.1,1.1,1.1,2C51,40.2,50.1,41.1,49,41.1z M52.2,33.4c-0.5,0-0.8-0.1-1.3-0.4
		c-7.2-4.3-20.1-5.3-28.5-3c-0.4,0.1-0.8,0.3-1.3,0.3c-1.4,0-2.3-1-2.3-2.4s0.8-2.2,1.8-2.4c3.6-1,7.5-1.5,11.9-1.5
		c7.4,0,15.1,1.5,20.8,4.8c0.8,0.5,1.3,1.1,1.3,2.3C54.5,32.5,53.4,33.4,52.2,33.4L52.2,33.4z"/>
</g>
</svg>
