<?xml version="1.0" encoding="utf-8"?>
<!-- Generator: Adobe Illustrator 22.1.0, SVG Export Plug-In . SVG Version: 6.00 Build 0)  -->
<svg version="1.1" id="Layer_1" xmlns="http://www.w3.org/2000/svg" xmlns:xlink="http://www.w3.org/1999/xlink" x="0px" y="0px"
	 viewBox="0 0 71.9 71.9" style="enable-background:new 0 0 71.9 71.9;" xml:space="preserve">
<style type="text/css">
	.st0{fill:#011F58;}
	.st1{fill:#666666;}
	.st2{fill:#B3B3B3;}
	.st3{fill:#CCCCCC;}
	.st4{fill:#E6E6E6;}
</style>
<path class="st0" d="M66.8,71.9H5.1c-2.8,0-5.1-2.3-5.1-5.1V5.1C0,2.3,2.3,0,5.1,0h61.7c2.8,0,5.1,2.3,5.1,5.1v61.7
	C71.9,69.6,69.6,71.9,66.8,71.9z"/>
<g>
	<path class="st1" d="M61.8,36.6c0-2.2-0.2-3.7-0.6-5.4H36.6V41h14.5c-0.3,2.4-1.9,6.1-5.4,8.5l0,0.3l7.8,6l0.5,0.1
		C59,51.4,61.8,44.6,61.8,36.6"/>
	<path class="st2" d="M36.8,62.7c7.2,0,13.3-2.4,17.7-6.5l-8.4-6.5c-2.3,1.6-5.3,2.7-9.3,2.7c-7.1,0-13.1-4.7-15.2-11.1l-0.3,0
		L13,47.6l-0.1,0.3C17.3,56.7,26.3,62.7,36.8,62.7"/>
	<path class="st3" d="M21.6,41.2c-0.6-1.7-0.9-3.4-0.9-5.3c0-1.8,0.3-3.6,0.9-5.3l0-0.4l-8.4-6.5l-0.3,0.1c-1.8,3.6-2.9,7.7-2.9,12
		s1,8.4,2.9,12L21.6,41.2"/>
	<path class="st4" d="M36.8,19.5c5,0,8.4,2.2,10.3,4l7.5-7.4c-4.6-4.3-10.7-7-17.9-7c-10.5,0-19.5,6-23.9,14.7l8.6,6.7
		C23.7,24.2,29.7,19.5,36.8,19.5"/>
</g>
</svg>
