<?xml version="1.0" encoding="utf-8"?>
<!-- Generator: Adobe Illustrator 22.1.0, SVG Export Plug-In . SVG Version: 6.00 Build 0)  -->
<svg version="1.1" id="Layer_1" xmlns="http://www.w3.org/2000/svg" xmlns:xlink="http://www.w3.org/1999/xlink" x="0px" y="0px"
	 viewBox="0 0 72 72" style="enable-background:new 0 0 72 72;" xml:space="preserve">
<style type="text/css">
	.st0{fill:#011F58;}
	.st1{fill:#FFFFFF;}
</style>
<path class="st0" d="M67,72H5c-2.8,0-5.1-2.3-5.1-5.1V5c0-2.8,2.3-5.1,5.1-5.1H67c2.8,0,5.1,2.3,5.1,5.1v61.9
	C72.1,69.8,69.8,72,67,72z"/>
<g>
	<path class="st1" d="M36,10.4c-14.1,0-25.5,11.4-25.5,25.5S21.9,61.4,36,61.4S61.5,50,61.5,35.9S50.1,10.4,36,10.4z M29.1,48.3
		h-5.5V30.2h5.5V48.3z M26.4,27.8c-1.8,0-3.3-1.5-3.3-3.3s1.5-3.3,3.3-3.3c1.8,0,3.3,1.5,3.3,3.3C29.7,26.3,28.2,27.8,26.4,27.8z
		 M50.2,48.3h-5.5v-9.5c0-2.6-1-4.1-3-4.1c-2.2,0-3.3,1.5-3.3,4.1v9.5h-5.5V30.2H38v2.4c0,0,1.6-3,5.5-3s6.7,2.3,6.7,7.2L50.2,48.3
		L50.2,48.3z"/>
</g>
</svg>
