<?xml version="1.0" encoding="utf-8"?>
<!-- Generator: Adobe Illustrator 22.1.0, SVG Export Plug-In . SVG Version: 6.00 Build 0)  -->
<svg version="1.1" id="Layer_1" xmlns="http://www.w3.org/2000/svg" xmlns:xlink="http://www.w3.org/1999/xlink" x="0px" y="0px"
	 viewBox="0 0 72 72" style="enable-background:new 0 0 72 72;" xml:space="preserve">
<style type="text/css">
	.st0{fill:#011F58;}
	.st1{fill:#FCFCFC;}
</style>
<g>
	<path class="st0" d="M66.9,72H5.1C2.3,72,0,69.8,0,67V5.1C0,2.3,2.3,0,5.1,0h61.8C69.7,0,72,2.3,72,5.1v61.8
		C72,69.8,69.7,72,66.9,72z"/>
	<g>
		<path class="st1" d="M40.5,24c-6.3,0.2-21.8,2-21.8,15.1c0,14.1,17.8,14.6,23.6,5.6c0.8,1.3,4.5,4.8,5.8,6l7.3-7.2
			c0,0-4.2-3.3-4.2-6.8V17.8c0-3.3-3.1-10.6-14.4-10.6s-17.3,7.1-17.3,13.4l9.4,0.9c2.1-6.4,7-6.4,7-6.4C41.1,15.1,40.5,19,40.5,24
			L40.5,24z M40.1,35.2c0,10.3-10.8,8.7-10.8,2.2c0-6.1,6.5-7.3,10.8-7.4V35.2z M57.7,56.2c-1,1.3-9,8.6-22.4,8.6s-23.7-9.2-26.9-13
			c-0.9-1,0.1-1.4,0.7-1.1c9.4,5.7,24.1,15.1,47.9,3.9C58,54.2,58.8,54.9,57.7,56.2z M62.9,56.5c-0.8,2-2.1,3.5-2.7,4
			C59.5,61,59,60.8,59.3,60c0.4-0.8,2.5-6,1.6-7.1s-4.8-0.6-6.2-0.4c-1.4,0.1-1.7,0.2-1.8,0c-0.3-0.7,2.8-2,4.8-2.2
			c2-0.2,5.3-0.1,5.9,0.7C64.2,51.6,63.7,54.4,62.9,56.5L62.9,56.5z"/>
	</g>
</g>
</svg>
