<?xml version="1.0" encoding="utf-8"?>
<!-- Generator: Adobe Illustrator 22.1.0, SVG Export Plug-In . SVG Version: 6.00 Build 0)  -->
<svg version="1.1" id="Layer_1" xmlns="http://www.w3.org/2000/svg" xmlns:xlink="http://www.w3.org/1999/xlink" x="0px" y="0px"
	 viewBox="0 0 72 72" style="enable-background:new 0 0 72 72;" xml:space="preserve">
<style type="text/css">
	.st0{fill:#FFFFFF;}
</style>
<g>
	<path class="st0" d="M36,17.5c-10.2,0-18.5,8.2-18.5,18.5S25.8,54.5,36,54.5S54.5,46.2,54.5,36S46.2,17.5,36,17.5z M36,48
		c-6.6,0-12-5.4-12-12s5.4-12,12-12s12,5.4,12,12S42.6,48,36,48L36,48z M59.5,16.8c0,2.4-1.9,4.3-4.3,4.3c-2.4,0-4.3-1.9-4.3-4.3
		s1.9-4.3,4.3-4.3S59.5,14.4,59.5,16.8z M71.8,21.2c-0.3-5.8-1.6-10.9-5.8-15.1c-4.2-4.2-9.3-5.5-15.1-5.8c-5.9-0.3-23.8-0.3-29.7,0
		C15.4,0.5,10.3,1.8,6.1,6.1s-5.5,9.3-5.8,15.1c-0.3,5.9-0.3,23.8,0,29.7c0.3,5.8,1.6,10.9,5.8,15.1s9.3,5.5,15.1,5.8
		c5.9,0.3,23.8,0.3,29.7,0c5.8-0.3,10.9-1.6,15.1-5.8c4.2-4.2,5.5-9.3,5.8-15.1C72.1,44.9,72.1,27.1,71.8,21.2L71.8,21.2z
		 M64.1,57.2c-1.3,3.1-3.7,5.6-6.8,6.8c-4.7,1.9-16,1.4-21.2,1.4s-16.5,0.4-21.2-1.4c-3.1-1.3-5.6-3.7-6.8-6.8
		c-1.9-4.7-1.4-16-1.4-21.2S6.1,19.5,7.9,14.8c1.3-3.1,3.7-5.6,6.8-6.8c4.7-1.9,16-1.4,21.2-1.4s16.5-0.4,21.2,1.4
		c3.1,1.3,5.6,3.7,6.8,6.8c1.9,4.7,1.4,16,1.4,21.2S66,52.5,64.1,57.2z"/>
</g>
<g>
</g>
<g>
</g>
<g>
</g>
<g>
</g>
<g>
</g>
<g>
</g>
<g>
</g>
<g>
</g>
<g>
</g>
<g>
</g>
<g>
</g>
</svg>
