<?xml version="1.0" encoding="utf-8"?>
<!-- Generator: Adobe Illustrator 22.1.0, SVG Export Plug-In . SVG Version: 6.00 Build 0)  -->
<svg version="1.1" id="Layer_1" xmlns="http://www.w3.org/2000/svg" xmlns:xlink="http://www.w3.org/1999/xlink" x="0px" y="0px"
	 viewBox="0 0 346.7 116.6" style="enable-background:new 0 0 346.7 116.6;" xml:space="preserve">
<style type="text/css">
	.st0{fill:none;stroke:#231F20;stroke-width:0.5;stroke-miterlimit:10;}
	.st1{fill:#1C2655;}
	.st2{fill:#231F20;}
	.st3{font-family:'Roboto-Regular';}
	.st4{font-size:24px;}
	.st5{font-size:79px;}
	.st6{letter-spacing:-1;}
</style>
<path class="st0" d="M92.9,8.3"/>
<path class="st1" d="M81,0H17.8C8,0,0,8,0,17.8V81c0,9.8,8,17.8,17.8,17.8h45.5L81,116.6V98.8c9.8,0,17.8-8,17.8-17.8V17.8
	C98.8,8,90.9,0,81,0z M15.9,11.7c0-1.7,1.4-3.1,3.1-3.1h8.7c1.7,0,3.1,1.4,3.1,3.1v5c0,1.7-1.4,3.1-3.1,3.1H19
	c-1.7,0-3.1-1.4-3.1-3.1V11.7z M78.4,29.6L20,87.1c-1.5,1.5-4.1,0.4-4.1-1.7L16,27.9c0-1.3,1.1-2.4,2.4-2.4h10
	c1.3,0,2.4,1.1,2.4,2.4v22.6c0,2.1,2.6,3.2,4.1,1.7l26-26c0.5-0.5,1.1-0.7,1.7-0.7h14.2C78.8,25.5,79.9,28.1,78.4,29.6z"/>
<text transform="matrix(1 0 0 1 109.1785 26.8817)" class="st2 st3 st4">inner</text>
<text transform="matrix(1 0 0 1 109.1786 89.7132)" class="st2 st3 st5 st6">voice</text>
</svg>
