<?xml version="1.0" encoding="utf-8"?>
<!-- Generator: Adobe Illustrator 22.1.0, SVG Export Plug-In . SVG Version: 6.00 Build 0)  -->
<svg version="1.1" id="Layer_1" xmlns="http://www.w3.org/2000/svg" xmlns:xlink="http://www.w3.org/1999/xlink" x="0px" y="0px"
	 viewBox="0 0 346.7 116.6" style="enable-background:new 0 0 346.7 116.6;" xml:space="preserve">
<style type="text/css">
	.st0{fill:none;stroke:#231F20;stroke-width:0.5;stroke-miterlimit:10;}
	.st1{fill:#FFFFFF;}
</style>
<path class="st0" d="M92.9,8.3"/>
<path class="st1" d="M81,0H17.8C8,0,0,8,0,17.8V81c0,9.8,8,17.8,17.8,17.8h45.5L81,116.6V98.8c9.8,0,17.8-8,17.8-17.8V17.8
	C98.8,8,90.9,0,81,0z M15.9,11.7c0-1.7,1.4-3.1,3.1-3.1h8.7c1.7,0,3.1,1.4,3.1,3.1v5c0,1.7-1.4,3.1-3.1,3.1H19
	c-1.7,0-3.1-1.4-3.1-3.1V11.7z M78.4,29.6L20,87.1c-1.5,1.5-4.1,0.4-4.1-1.7L16,27.9c0-1.3,1.1-2.4,2.4-2.4h10
	c1.3,0,2.4,1.1,2.4,2.4v22.6c0,2.1,2.6,3.2,4.1,1.7l26-26c0.5-0.5,1.1-0.7,1.7-0.7h14.2C78.8,25.5,79.9,28.1,78.4,29.6z"/>
<g>
	<path class="st1" d="M113.6,26.9h-2.2V9.8h2.2V26.9z"/>
	<path class="st1" d="M130.8,26.9h-2.3l-8.6-13.1v13.1h-2.3V9.8h2.3l8.6,13.2V9.8h2.2V26.9z"/>
	<path class="st1" d="M147.9,26.9h-2.3l-8.6-13.1v13.1h-2.3V9.8h2.3l8.6,13.2V9.8h2.2V26.9z"/>
	<path class="st1" d="M161.5,19h-7.4v6h8.6v1.8h-10.8V9.8h10.7v1.9h-8.5v5.5h7.4V19z"/>
	<path class="st1" d="M171.8,20h-4v6.9h-2.3V9.8h5.6c1.9,0,3.4,0.4,4.4,1.3s1.6,2.1,1.6,3.8c0,1.1-0.3,2-0.9,2.8s-1.4,1.4-2.4,1.8
		l4,7.2v0.1h-2.4L171.8,20z M167.8,18.1h3.5c0.6,0,1.1-0.1,1.6-0.3s0.8-0.4,1.1-0.7s0.5-0.6,0.7-1s0.2-0.8,0.2-1.2
		c0-0.5-0.1-0.9-0.2-1.3s-0.4-0.7-0.7-1s-0.7-0.5-1.2-0.7s-1-0.2-1.7-0.2h-3.4V18.1z"/>
</g>
<g>
	<path class="st1" d="M134.3,79.9l16-46.3h8.1l-20.8,56.2h-6.6l-20.8-56.2h8.1L134.3,79.9z"/>
	<path class="st1" d="M206.7,63.4c0,4.2-0.5,8-1.6,11.3c-1.1,3.3-2.6,6.2-4.5,8.5c-2,2.3-4.3,4.1-7.1,5.4s-5.9,1.9-9.3,1.9
		c-3.3,0-6.4-0.6-9.1-1.9s-5.2-3-7.2-5.4c-2-2.3-3.6-5.2-4.7-8.5c-1.1-3.3-1.7-7.1-1.7-11.3v-3.5c0-4.2,0.6-8,1.7-11.3
		c1.1-3.4,2.6-6.2,4.6-8.5c2-2.3,4.4-4.1,7.1-5.4c2.8-1.2,5.8-1.9,9.1-1.9c3.4,0,6.5,0.6,9.3,1.9c2.8,1.2,5.2,3,7.1,5.4
		c2,2.3,3.5,5.2,4.6,8.5c1.1,3.4,1.6,7.1,1.6,11.3V63.4z M199.3,59.8c0-3.3-0.3-6.3-1-8.9c-0.7-2.6-1.7-4.7-3-6.5
		c-1.3-1.7-2.9-3.1-4.8-4c-1.9-0.9-4-1.4-6.4-1.4c-2.3,0-4.4,0.5-6.2,1.4c-1.9,0.9-3.5,2.2-4.8,4c-1.3,1.7-2.3,3.9-3.1,6.5
		c-0.7,2.6-1.1,5.5-1.1,8.9v3.6c0,3.4,0.4,6.3,1.1,8.9c0.7,2.6,1.8,4.7,3.1,6.5c1.3,1.8,2.9,3.1,4.8,4c1.9,0.9,4,1.4,6.2,1.4
		c2.4,0,4.6-0.4,6.4-1.4c1.9-0.9,3.5-2.2,4.8-4c1.3-1.8,2.3-3.9,3-6.5c0.7-2.6,1-5.5,1-8.9V59.8z"/>
	<path class="st1" d="M223.8,89.7h-7.4V33.5h7.4V89.7z"/>
	<path class="st1" d="M276.6,71.9c-0.3,2.6-1,5.1-1.9,7.4c-1,2.3-2.4,4.2-4.1,5.9c-1.7,1.7-3.9,3-6.4,3.9c-2.5,0.9-5.5,1.4-8.8,1.4
		c-3.3,0-6.3-0.6-9-1.9c-2.7-1.2-5-3-6.9-5.3c-1.9-2.3-3.4-5-4.4-8.2c-1-3.2-1.6-6.8-1.6-10.7v-5.6c0-3.9,0.5-7.5,1.6-10.7
		c1.1-3.2,2.6-5.9,4.5-8.2c2-2.3,4.3-4,7.1-5.3c2.8-1.2,5.9-1.9,9.4-1.9c3.2,0,6,0.5,8.4,1.4s4.5,2.2,6.2,3.9
		c1.7,1.7,3.1,3.6,4.1,5.9c1,2.3,1.6,4.8,1.9,7.6h-7.4c-0.3-2-0.7-3.7-1.3-5.3c-0.6-1.6-1.4-2.9-2.4-4c-1-1.1-2.3-2-3.9-2.5
		c-1.5-0.6-3.4-0.9-5.6-0.9c-2.5,0-4.7,0.5-6.6,1.4c-1.9,1-3.5,2.3-4.7,4.1c-1.3,1.7-2.2,3.8-2.9,6.3c-0.6,2.5-1,5.2-1,8.1v5.7
		c0,2.8,0.3,5.3,0.9,7.8c0.6,2.4,1.5,4.5,2.6,6.3c1.2,1.8,2.7,3.2,4.5,4.3c1.8,1,4,1.6,6.5,1.6c2.4,0,4.4-0.3,6-0.8
		c1.6-0.6,3-1.4,4-2.4c1.1-1.1,1.9-2.4,2.5-3.9c0.6-1.6,1-3.3,1.3-5.3H276.6z"/>
	<path class="st1" d="M316.5,63.8h-24.3v19.9h28.3v6.1h-35.7V33.5h35.3v6.1h-27.9v18.1h24.3V63.8z"/>
</g>
</svg>
