<?xml version="1.0" encoding="utf-8"?>
<!-- Generator: Adobe Illustrator 22.1.0, SVG Export Plug-In . SVG Version: 6.00 Build 0)  -->
<svg version="1.1" id="Layer_1" xmlns="http://www.w3.org/2000/svg" xmlns:xlink="http://www.w3.org/1999/xlink" x="0px" y="0px"
	 viewBox="0 0 390.6 376.8" style="enable-background:new 0 0 390.6 376.8;" xml:space="preserve">
<style type="text/css">
	.st0{opacity:0.1;fill:#D069A9;}
	.st1{fill:#808285;}
	.st2{opacity:0.69;fill:#231F20;}
	.st3{fill:#0A4873;}
	.st4{opacity:0.41;fill:#231F20;}
	.st5{opacity:0.41;fill:#BCBEC0;}
	.st6{fill:#231F20;}
	.st7{opacity:0.79;}
	.st8{fill:#FFFFFF;}
	.st9{opacity:0.62;fill:#F1F2F2;}
	.st10{fill:#E5018C;}
	.st11{opacity:0.9;fill:url(#SVGID_1_);}
	.st12{opacity:0.9;fill:url(#SVGID_2_);}
	.st13{opacity:0.9;fill:url(#SVGID_3_);}
	.st14{opacity:0.9;fill:url(#SVGID_4_);}
	.st15{fill:#F1F2F2;}
	.st16{fill:#58595B;}
	.st17{fill:#E8E0E0;}
	.st18{fill:#CE2127;}
</style>
<rect x="239.4" y="273.3" transform="matrix(0.9661 -0.2581 0.2581 0.9661 -62.7213 71.681)" class="st0" width="4.5" height="2.9"/>
<path class="st1" d="M184.7,30.1L296,0.4c7.9-2.1,21.3,4.8,24.2,15.8L389.9,277c3.3,12.4-5.5,24.2-14.6,26.6l-109.6,29.3
	c-9.7,2.6-22.1-4.5-25.3-16.5L170.7,55.6C168.1,46.1,175.2,32.6,184.7,30.1z"/>
<path class="st2" d="M187.5,31.4L294.2,2.9c8.2-2.2,20.2,4.7,23.2,16.2l69.1,259.4c1.9,9.3-4,20.7-12.9,23.1l-107.9,28.8
	c-8.7,2.3-20-3.4-23.7-17.2L173.3,56C170.7,46.2,175.7,35.3,187.5,31.4z"/>
<path class="st3" d="M201.8,32.8c3.3-0.8,4,1.7,4,1.7c0.5,2.8,3.6,7.7,8.3,6.4l61.5-16.4c3.2-0.8,5.1-6.1,4-10.2
	c-0.2-1.8-0.2-2.2,1.2-2.6l15.2-4.1c5-1.3,13,1.3,15.5,10.8l69.4,259.5c1.1,4.1-0.7,13.6-9.9,16.1l-105.6,28.2
	c-5.4,1.4-14.4-1.2-16.9-10.4L178.5,50.5c-1.2-4.6,3.7-12.4,8.6-13.7L201.8,32.8z"/>
<path class="st4" d="M174.5,56c-1.3-7.2-0.1-13.8,5.9-19.1c0.4-0.2,0.5,0.3,0.3,0.5c-3.4,5.7-5.3,11.5-3.3,17.8L247.4,317
	c0.9,3.3,5.8,9.3,10,11c0.7,0.3,0.7,1.2-0.2,1c-4.8-1.7-12.1-6.8-13-11.8L174.5,56z"/>
<path class="st4" d="M251.7,26.5l-15.1,4c-0.8,0.2-1.6-0.3-1.8-1l0,0c-0.2-0.8,0.3-1.6,1-1.8l15.1-4c0.8-0.2,1.6,0.3,1.8,1l0,0
	C252.9,25.5,252.5,26.3,251.7,26.5z"/>
<circle class="st4" cx="259.9" cy="22.8" r="2.6"/>
<circle class="st5" cx="259.9" cy="22.8" r="1.9"/>
<path class="st6" d="M342.9,99.9L342.9,99.9c-0.5,0.1-0.9-0.1-1.1-0.6l-8.8-32.9c-0.1-0.5,0.1-0.9,0.6-1.1l0,0
	c0.5-0.1,0.9,0.1,1.1,0.6l8.8,32.9C343.6,99.3,343.4,99.8,342.9,99.9z"/>
<path class="st6" d="M178.2,87.4L178.2,87.4c-0.5,0.1-1-0.2-1.1-0.6l-2.6-9.6c-0.1-0.5,0.2-1,0.6-1.1h0c0.5-0.1,1,0.2,1.1,0.6
	l2.6,9.6C179,86.8,178.7,87.3,178.2,87.4z"/>
<path class="st6" d="M187,120.1L187,120.1c-0.5,0.1-1-0.2-1.1-0.6l-5.6-21c-0.1-0.5,0.2-1,0.6-1.1l0,0c0.5-0.1,1,0.2,1.1,0.6l5.6,21
	C187.7,119.4,187.4,119.9,187,120.1z"/>
<path class="st6" d="M194.4,148L194.4,148c-0.5,0.1-1-0.2-1.1-0.6l-5.6-21c-0.1-0.5,0.2-1,0.6-1.1l0,0c0.5-0.1,1,0.2,1.1,0.6l5.6,21
	C195.2,147.4,194.9,147.8,194.4,148z"/>
<rect x="238.2" y="307.1" transform="matrix(0.9661 -0.2581 0.2581 0.9661 -71.4709 72.2554)" class="st0" width="2.5" height="2.5"/>
<rect x="173.1" y="63.6" transform="matrix(0.9661 -0.2581 0.2581 0.9661 -10.7786 47.194)" class="st4" width="2.5" height="2"/>
<rect x="319.8" y="24.9" transform="matrix(0.9671 -0.2545 0.2545 0.9671 3.9952 82.6763)" class="st4" width="3.4" height="1.9"/>
<g class="st7">
	<rect x="282.6" y="22.4" transform="matrix(0.9671 -0.2545 0.2545 0.9671 3.4056 72.7937)" class="st8" width="0.9" height="1.7"/>
	<rect x="284.2" y="21.2" transform="matrix(0.9671 -0.2545 0.2545 0.9671 3.6701 73.1749)" class="st8" width="0.9" height="2.5"/>
	<rect x="286" y="20" transform="matrix(0.9671 -0.2545 0.2545 0.9671 3.9307 73.5931)" class="st8" width="0.9" height="3.1"/>
	<rect x="287.5" y="18.7" transform="matrix(0.9671 -0.2545 0.2545 0.9671 4.2001 73.9539)" class="st8" width="0.9" height="4"/>
</g>
<path class="st9" d="M307.9,270.2L307.9,270.2c-0.7,0.2-1.4-0.2-1.6-0.9l0,0c-0.2-0.7,0.2-1.4,0.9-1.6l0,0c0.7-0.2,1.4,0.2,1.6,0.9
	l0,0C309,269.3,308.6,270,307.9,270.2z"/>
<path class="st9" d="M302,271.8L302,271.8c-0.7,0.2-1.4-0.2-1.6-0.9l0,0c-0.2-0.7,0.2-1.4,0.9-1.6l0,0c0.7-0.2,1.4,0.2,1.6,0.9l0,0
	C303.1,270.9,302.7,271.6,302,271.8z"/>
<path class="st9" d="M313.9,268.6L313.9,268.6c-0.7,0.2-1.4-0.2-1.6-0.9l0,0c-0.2-0.7,0.2-1.4,0.9-1.6l0,0c0.7-0.2,1.4,0.2,1.6,0.9
	l0,0C315,267.7,314.6,268.4,313.9,268.6z"/>
<g>
	<path class="st10" d="M240.8,64.1"/>
	<path class="st10" d="M238.8,56.6"/>
</g>
<path class="st8" d="M359.1,288.8l-86.9,23.2c-6.7,1.8-13.5-2.2-15.3-8.8h0c-1.8-6.7,2.2-13.5,8.8-15.3l86.9-23.2
	c6.7-1.8,13.5,2.2,15.3,8.8l0,0C369.7,280.2,365.8,287.1,359.1,288.8z"/>
<g>
	
		<linearGradient id="SVGID_1_" gradientUnits="userSpaceOnUse" x1="219.1656" y1="383.0127" x2="315.2752" y2="383.0127" gradientTransform="matrix(0.9661 -0.2581 0.2581 0.9661 -109.5552 -212.1255)">
		<stop  offset="0" style="stop-color:#A6BACA"/>
		<stop  offset="0.5" style="stop-color:#799CB4"/>
		<stop  offset="0.5887" style="stop-color:#7499B2"/>
		<stop  offset="1" style="stop-color:#5F8CA7"/>
	</linearGradient>
	<path class="st11" d="M292.9,87.9l-85.3,22.8c-2.1,0.6-4.2-0.7-4.8-2.8l-3.5-13.2c-0.6-2.1,0.7-4.2,2.8-4.8l85.3-22.8
		c2.1-0.6,4.2,0.7,4.8,2.8l3.5,13.2C296.2,85.2,295,87.3,292.9,87.9z"/>
	<g>
		<path class="st8" d="M208.6,95.7l2.4,4.6l0.1-5.2l0.9-0.2l2.7,4.5l-0.2-5.2l0.9-0.2l0,6.4l-0.9,0.2l-2.7-4.6l-0.1,5.4l-0.9,0.2
			l-3.2-5.6L208.6,95.7z"/>
		<path class="st8" d="M216,93.7l0.7-0.2l0.6,2.2c0.1-0.3,0.2-0.5,0.3-0.6c0.2-0.2,0.5-0.4,0.8-0.5c0.6-0.2,1.1-0.1,1.5,0.3
			c0.2,0.2,0.3,0.5,0.5,1l0.8,2.8l-0.8,0.2l-0.7-2.8c-0.1-0.3-0.2-0.5-0.3-0.7c-0.2-0.2-0.5-0.3-0.8-0.2c-0.3,0.1-0.6,0.3-0.7,0.5
			s-0.2,0.7-0.1,1.3l0.6,2.3l-0.7,0.2L216,93.7z"/>
		<path class="st8" d="M223.9,93.5c0.3,0.1,0.6,0.2,0.8,0.4c0.2,0.2,0.4,0.4,0.5,0.7c0.1,0.2,0.2,0.5,0.3,0.9l-3.2,0.9
			c0.1,0.4,0.3,0.8,0.6,1c0.3,0.2,0.6,0.3,1,0.2c0.4-0.1,0.7-0.3,0.8-0.6c0.1-0.2,0.1-0.4,0.1-0.6l0.7-0.2c0,0.2,0,0.4,0,0.6
			s-0.1,0.4-0.2,0.6c-0.2,0.3-0.4,0.5-0.7,0.7c-0.2,0.1-0.4,0.2-0.6,0.2c-0.5,0.1-1.1,0.1-1.5-0.2c-0.5-0.3-0.8-0.8-1-1.5
			c-0.2-0.7-0.2-1.3,0.1-1.9c0.3-0.5,0.7-0.9,1.3-1.1C223.2,93.4,223.6,93.4,223.9,93.5z M224.6,95.2c-0.1-0.3-0.3-0.5-0.4-0.7
			c-0.3-0.3-0.7-0.4-1.1-0.3c-0.3,0.1-0.6,0.3-0.7,0.6c-0.2,0.3-0.2,0.6-0.1,1L224.6,95.2z"/>
		<path class="st8" d="M225.8,92.9l0.7-0.2l0.2,0.6c0.1-0.3,0.3-0.6,0.5-0.7c0.2-0.2,0.4-0.3,0.7-0.4c0.6-0.2,1.1-0.1,1.4,0.3
			c0.2,0.2,0.3,0.5,0.5,1l0.8,2.8l-0.7,0.2l-0.7-2.8c-0.1-0.3-0.2-0.5-0.3-0.6c-0.2-0.2-0.5-0.3-0.8-0.2c-0.2,0-0.3,0.1-0.4,0.2
			c-0.2,0.1-0.3,0.3-0.4,0.5c-0.1,0.2-0.1,0.3-0.1,0.5c0,0.2,0,0.4,0.1,0.7l0.6,2.3l-0.7,0.2L225.8,92.9z"/>
		<path class="st8" d="M230.7,91.7c0.1-0.1,0.2-0.2,0.3-0.3c0-0.2,0-0.3,0-0.5c0,0,0,0,0-0.1c0,0,0,0,0,0l-0.5,0.1l-0.2-0.9l0.9-0.2
			l0.2,0.8c0.1,0.4,0.1,0.7,0,0.9c-0.1,0.3-0.3,0.5-0.5,0.6L230.7,91.7z"/>
		<path class="st8" d="M233.4,94.1c0.1,0.2,0.2,0.4,0.3,0.5c0.3,0.2,0.6,0.2,1.1,0.1c0.3-0.1,0.5-0.2,0.7-0.4
			c0.2-0.2,0.2-0.4,0.2-0.6c0-0.2-0.2-0.3-0.4-0.4c-0.1,0-0.4,0-0.7,0l-0.6,0c-0.4,0-0.7,0-0.9-0.1c-0.4-0.1-0.6-0.3-0.7-0.7
			c-0.1-0.4,0-0.8,0.2-1.1c0.2-0.3,0.6-0.6,1.1-0.7c0.7-0.2,1.2-0.1,1.6,0.2c0.3,0.2,0.4,0.4,0.5,0.7l-0.7,0.2
			c-0.1-0.2-0.2-0.3-0.3-0.4c-0.2-0.1-0.6-0.2-1,0c-0.3,0.1-0.5,0.2-0.6,0.3c-0.1,0.1-0.2,0.3-0.1,0.5c0.1,0.2,0.2,0.3,0.4,0.4
			c0.1,0,0.3,0.1,0.5,0l0.5,0c0.6,0,1,0,1.2,0.1c0.3,0.1,0.6,0.4,0.7,0.8c0.1,0.4,0,0.8-0.2,1.1c-0.2,0.4-0.6,0.6-1.3,0.8
			c-0.7,0.2-1.2,0.2-1.5-0.1c-0.4-0.2-0.6-0.5-0.7-1L233.4,94.1z"/>
		<path class="st8" d="M238.5,88.2l0.7-0.2l0.3,1.2l0.7-0.2l0.2,0.6l-0.7,0.2l0.8,2.9c0,0.2,0.1,0.2,0.2,0.3c0.1,0,0.2,0,0.3,0
			c0,0,0.1,0,0.1,0c0,0,0.1,0,0.1-0.1l0.2,0.6c-0.1,0-0.2,0.1-0.2,0.1c-0.1,0-0.2,0.1-0.3,0.1c-0.3,0.1-0.6,0.1-0.8-0.1
			c-0.2-0.1-0.3-0.4-0.4-0.6L239,90l-0.6,0.2l-0.2-0.6l0.6-0.2L238.5,88.2z"/>
		<path class="st8" d="M240.6,87.1l0.7-0.2l0.6,2.2c0.1-0.3,0.2-0.5,0.3-0.6c0.2-0.2,0.5-0.4,0.8-0.5c0.6-0.2,1.1-0.1,1.5,0.3
			c0.2,0.2,0.3,0.5,0.5,1l0.8,2.8l-0.8,0.2l-0.7-2.8c-0.1-0.3-0.2-0.5-0.3-0.7c-0.2-0.2-0.5-0.3-0.8-0.2c-0.3,0.1-0.6,0.3-0.7,0.5
			c-0.2,0.3-0.2,0.7-0.1,1.3l0.6,2.3l-0.7,0.2L240.6,87.1z"/>
		<path class="st8" d="M248.4,86.9c0.3,0.1,0.6,0.2,0.8,0.4c0.2,0.2,0.4,0.4,0.5,0.7c0.1,0.2,0.2,0.5,0.3,0.9l-3.2,0.9
			c0.1,0.4,0.3,0.8,0.6,1c0.3,0.2,0.6,0.3,1,0.2c0.4-0.1,0.7-0.3,0.8-0.6c0.1-0.2,0.1-0.4,0.1-0.6l0.7-0.2c0,0.2,0,0.4,0,0.6
			c-0.1,0.2-0.1,0.4-0.2,0.6c-0.2,0.3-0.4,0.5-0.7,0.7c-0.2,0.1-0.4,0.2-0.6,0.2c-0.5,0.1-1.1,0.1-1.5-0.2c-0.5-0.3-0.8-0.8-1-1.5
			c-0.2-0.7-0.2-1.3,0.1-1.9c0.3-0.5,0.7-0.9,1.3-1.1C247.8,86.9,248.1,86.9,248.4,86.9z M249.2,88.6c-0.1-0.3-0.3-0.5-0.4-0.7
			c-0.3-0.3-0.7-0.4-1.1-0.3c-0.3,0.1-0.6,0.3-0.7,0.6c-0.2,0.3-0.2,0.6-0.1,1L249.2,88.6z"/>
		<path class="st8" d="M252.7,85.7l0.7-0.2l0.2,0.6c0.1-0.3,0.2-0.5,0.3-0.6c0.2-0.2,0.5-0.4,0.8-0.5c0.3-0.1,0.7-0.1,0.9,0
			c0.1,0.1,0.3,0.2,0.4,0.3c0.1-0.3,0.2-0.5,0.4-0.7s0.4-0.3,0.7-0.4c0.6-0.2,1-0.1,1.4,0.3c0.2,0.2,0.3,0.5,0.4,0.9l0.8,2.9
			l-0.8,0.2l-0.8-3c-0.1-0.3-0.2-0.5-0.4-0.5c-0.2-0.1-0.4-0.1-0.6,0c-0.3,0.1-0.5,0.2-0.7,0.5c-0.2,0.2-0.2,0.6-0.1,1.1l0.7,2.5
			l-0.7,0.2l-0.8-2.9c-0.1-0.3-0.2-0.5-0.3-0.6c-0.2-0.2-0.4-0.2-0.7-0.1c-0.3,0.1-0.5,0.2-0.7,0.5c-0.2,0.3-0.2,0.7,0,1.3l0.6,2.3
			l-0.7,0.2L252.7,85.7z"/>
		<path class="st8" d="M262.4,83.2c0.3,0.1,0.6,0.2,0.8,0.4c0.2,0.2,0.4,0.4,0.5,0.7c0.1,0.2,0.2,0.5,0.3,0.9l-3.2,0.9
			c0.1,0.4,0.3,0.8,0.6,1c0.3,0.2,0.6,0.3,1,0.2c0.4-0.1,0.7-0.3,0.8-0.6c0.1-0.2,0.1-0.4,0.1-0.6l0.7-0.2c0,0.2,0,0.4,0,0.6
			s-0.1,0.4-0.2,0.6c-0.2,0.3-0.4,0.5-0.7,0.7c-0.2,0.1-0.4,0.2-0.6,0.2c-0.5,0.1-1.1,0.1-1.5-0.2c-0.5-0.3-0.8-0.8-1-1.5
			c-0.2-0.7-0.2-1.3,0.1-1.9c0.3-0.5,0.7-0.9,1.3-1.1C261.8,83.2,262.1,83.1,262.4,83.2z M263.1,84.9c-0.1-0.3-0.3-0.5-0.4-0.7
			c-0.3-0.3-0.7-0.4-1.1-0.3c-0.3,0.1-0.6,0.3-0.7,0.6c-0.2,0.3-0.2,0.6-0.1,1L263.1,84.9z"/>
		<path class="st8" d="M267.1,82c0.3,0.1,0.6,0.2,0.8,0.4c0.2,0.2,0.4,0.4,0.5,0.7c0.1,0.2,0.2,0.5,0.3,0.9l-3.2,0.9
			c0.1,0.4,0.3,0.8,0.6,1c0.3,0.2,0.6,0.3,1,0.2c0.4-0.1,0.7-0.3,0.8-0.6c0.1-0.2,0.1-0.4,0.1-0.6l0.7-0.2c0,0.2,0,0.4,0,0.6
			s-0.1,0.4-0.2,0.6c-0.2,0.3-0.4,0.5-0.7,0.7c-0.2,0.1-0.4,0.2-0.6,0.2c-0.5,0.1-1.1,0.1-1.5-0.2c-0.5-0.3-0.8-0.8-1-1.5
			c-0.2-0.7-0.2-1.3,0.1-1.9c0.3-0.5,0.7-0.9,1.3-1.1C266.4,81.9,266.7,81.9,267.1,82z M267.8,83.6c-0.1-0.3-0.3-0.5-0.4-0.7
			c-0.3-0.3-0.7-0.4-1.1-0.3c-0.3,0.1-0.6,0.3-0.7,0.6c-0.2,0.3-0.2,0.6-0.1,1L267.8,83.6z"/>
		<path class="st8" d="M268.8,80.1l0.7-0.2l0.3,1.2l0.7-0.2l0.2,0.6l-0.7,0.2l0.8,2.9c0,0.2,0.1,0.2,0.2,0.3c0.1,0,0.2,0,0.3,0
			c0,0,0.1,0,0.1,0c0,0,0.1,0,0.1-0.1l0.2,0.6c-0.1,0-0.2,0.1-0.2,0.1c-0.1,0-0.2,0.1-0.3,0.1c-0.3,0.1-0.6,0.1-0.8-0.1
			c-0.2-0.1-0.3-0.4-0.4-0.6l-0.8-2.9l-0.6,0.2l-0.2-0.6l0.6-0.2L268.8,80.1z"/>
		<path class="st8" d="M270.9,79.1l0.7-0.2l0.2,0.8l-0.7,0.2L270.9,79.1z M271.3,80.7l0.7-0.2l1.2,4.4l-0.7,0.2L271.3,80.7z"/>
		<path class="st8" d="M273.2,80.2l0.7-0.2l0.2,0.6c0.1-0.3,0.3-0.6,0.5-0.7c0.2-0.2,0.4-0.3,0.7-0.4c0.6-0.2,1.1-0.1,1.4,0.3
			c0.2,0.2,0.3,0.5,0.5,1l0.8,2.8l-0.7,0.2l-0.7-2.8c-0.1-0.3-0.2-0.5-0.3-0.6c-0.2-0.2-0.5-0.3-0.8-0.2c-0.2,0-0.3,0.1-0.4,0.2
			c-0.2,0.1-0.3,0.3-0.4,0.5c-0.1,0.2-0.1,0.3-0.1,0.5c0,0.2,0,0.4,0.1,0.7l0.6,2.3l-0.7,0.2L273.2,80.2z"/>
		<path class="st8" d="M280.3,78.5c0.2,0.1,0.3,0.2,0.5,0.3l-0.1-0.6l0.7-0.2l1.1,4c0.1,0.6,0.2,1,0.1,1.4c-0.1,0.7-0.6,1.1-1.5,1.4
			c-0.5,0.1-0.9,0.1-1.3,0c-0.4-0.1-0.6-0.4-0.8-0.8l0.7-0.2c0.1,0.2,0.2,0.3,0.3,0.4c0.2,0.1,0.5,0.1,0.8,0
			c0.6-0.1,0.9-0.4,0.9-0.9c0-0.3,0-0.7-0.2-1.3c-0.1,0.3-0.2,0.5-0.4,0.6c-0.2,0.2-0.4,0.3-0.8,0.4c-0.5,0.1-0.9,0.1-1.4-0.2
			c-0.4-0.2-0.8-0.8-1-1.5c-0.2-0.7-0.2-1.4,0.1-1.9c0.2-0.5,0.6-0.8,1.1-1C279.7,78.4,280,78.4,280.3,78.5z M280.6,79.3
			c-0.3-0.2-0.6-0.3-1-0.2c-0.5,0.1-0.8,0.5-0.9,1c0,0.3,0,0.6,0.1,1.1c0.1,0.5,0.3,0.8,0.6,1c0.3,0.2,0.6,0.3,0.9,0.2
			c0.5-0.1,0.8-0.5,0.9-1c0-0.3,0-0.6-0.1-1C281.1,79.8,280.9,79.5,280.6,79.3z"/>
		<path class="st8" d="M282.8,76.4c0.2-0.4,0.7-0.8,1.2-0.9c0.5-0.1,1-0.1,1.4,0.1c0.4,0.2,0.7,0.6,0.8,1c0.1,0.3,0.1,0.5,0,0.8
			c-0.1,0.2-0.2,0.5-0.5,1c-0.2,0.3-0.3,0.6-0.4,0.8c0,0.2,0,0.5,0.1,0.8l-0.7,0.2c-0.1-0.4-0.1-0.7-0.1-1c0-0.3,0.2-0.6,0.4-1
			l0.2-0.4c0.1-0.1,0.1-0.2,0.2-0.4c0.1-0.2,0.1-0.4,0-0.6c-0.1-0.3-0.2-0.5-0.4-0.6c-0.2-0.2-0.5-0.2-0.9-0.1
			c-0.5,0.1-0.7,0.4-0.8,0.8c-0.1,0.2,0,0.5,0,0.9l-0.7,0.2C282.5,77.4,282.6,76.8,282.8,76.4z M284.9,80.9l0.8-0.2l0.2,0.9
			l-0.8,0.2L284.9,80.9z"/>
	</g>
</g>
<g>
	
		<linearGradient id="SVGID_2_" gradientUnits="userSpaceOnUse" x1="214.8038" y1="478.8418" x2="312.5737" y2="478.8418" gradientTransform="matrix(0.9661 -0.2581 0.2581 0.9661 -109.5552 -212.1255)">
		<stop  offset="0" style="stop-color:#A6BACA"/>
		<stop  offset="0.5" style="stop-color:#799CB4"/>
		<stop  offset="0.5887" style="stop-color:#7499B2"/>
		<stop  offset="1" style="stop-color:#5F8CA7"/>
	</linearGradient>
	<path class="st12" d="M315.2,183.3l-86.2,23c-2.3,0.6-4.6-0.7-5.3-3l-4.4-16.5c-0.6-2.3,0.7-4.6,3-5.3l86.2-23
		c2.3-0.6,4.6,0.7,5.3,3l4.4,16.5C318.8,180.3,317.5,182.7,315.2,183.3z"/>
	<g>
		<path class="st8" d="M233,189.4l0.2,0.6l-1.8,0.5l1.2,4.6l-0.7,0.2l-1.2-4.6l-1.8,0.5l-0.2-0.6L233,189.4z"/>
		<path class="st8" d="M233.5,189.3l0.6-0.2l0.5,2c0.1-0.2,0.2-0.4,0.3-0.5c0.2-0.2,0.4-0.3,0.7-0.4c0.6-0.1,1-0.1,1.3,0.3
			c0.2,0.2,0.3,0.5,0.4,0.8l0.7,2.5l-0.7,0.2l-0.6-2.4c-0.1-0.3-0.2-0.5-0.3-0.6c-0.2-0.2-0.4-0.2-0.7-0.1c-0.3,0.1-0.5,0.2-0.7,0.5
			c-0.2,0.2-0.2,0.6,0,1.1l0.5,2l-0.6,0.2L233.5,189.3z"/>
		<path class="st8" d="M240.5,190.6c0.1-0.1,0.2-0.1,0.2-0.3c0-0.1,0-0.2,0-0.3c-0.1-0.2-0.2-0.4-0.4-0.4c-0.2-0.1-0.4,0-0.7,0
			c-0.3,0.1-0.5,0.2-0.6,0.5c-0.1,0.1-0.1,0.3,0,0.5l-0.6,0.2c-0.1-0.5,0-0.8,0.2-1.1s0.6-0.4,1-0.6c0.5-0.1,0.8-0.1,1.2,0
			c0.3,0.1,0.5,0.3,0.6,0.7l0.6,2.2c0,0.1,0,0.1,0.1,0.2c0,0,0.1,0,0.2,0c0,0,0.1,0,0.1,0s0.1,0,0.1,0l0.1,0.5
			c-0.1,0.1-0.2,0.1-0.2,0.1c-0.1,0-0.1,0-0.2,0.1c-0.2,0.1-0.4,0-0.5-0.1c-0.1-0.1-0.1-0.2-0.2-0.3c-0.1,0.2-0.2,0.4-0.4,0.6
			c-0.2,0.2-0.5,0.3-0.8,0.4c-0.4,0.1-0.7,0.1-1-0.1c-0.3-0.2-0.5-0.4-0.6-0.7c-0.1-0.4-0.1-0.7,0.1-0.9c0.2-0.3,0.4-0.5,0.8-0.6
			L240.5,190.6z M239.6,192.7c0.2,0.1,0.3,0.1,0.5,0c0.2-0.1,0.4-0.2,0.6-0.3c0.3-0.3,0.4-0.6,0.3-1l-0.1-0.5
			c-0.1,0.1-0.2,0.1-0.3,0.2c-0.1,0.1-0.2,0.1-0.3,0.2l-0.4,0.2c-0.2,0.1-0.4,0.2-0.5,0.3c-0.2,0.2-0.2,0.4-0.2,0.6
			C239.3,192.5,239.4,192.6,239.6,192.7z"/>
		<path class="st8" d="M242.1,188.5l0.6-0.2l0.1,0.5c0.1-0.3,0.3-0.5,0.4-0.6c0.2-0.2,0.4-0.3,0.6-0.3c0.5-0.1,1-0.1,1.3,0.3
			c0.2,0.2,0.3,0.5,0.4,0.8l0.7,2.5l-0.7,0.2l-0.6-2.4c-0.1-0.2-0.1-0.4-0.3-0.5c-0.2-0.2-0.4-0.3-0.7-0.2c-0.2,0-0.3,0.1-0.4,0.1
			c-0.2,0.1-0.3,0.2-0.4,0.4c-0.1,0.2-0.1,0.3-0.1,0.4c0,0.1,0,0.3,0.1,0.6l0.5,2l-0.6,0.2L242.1,188.5z"/>
		<path class="st8" d="M245.8,186l0.6-0.2l0.8,3.1l1.2-2.1l0.8-0.2l-1.1,1.8l2.2,2l-0.8,0.2l-1.7-1.6l-0.4,0.7l0.4,1.4l-0.6,0.2
			L245.8,186z"/>
		<path class="st8" d="M250.9,189c0.1,0.2,0.2,0.4,0.3,0.4c0.2,0.2,0.5,0.2,0.9,0.1c0.2-0.1,0.4-0.2,0.6-0.3
			c0.2-0.2,0.2-0.3,0.1-0.6c0-0.2-0.2-0.3-0.3-0.3c-0.1,0-0.3,0-0.6,0l-0.6,0c-0.4,0-0.6,0-0.8-0.1c-0.3-0.1-0.5-0.3-0.6-0.6
			c-0.1-0.4,0-0.7,0.2-1c0.2-0.3,0.5-0.5,1-0.6c0.6-0.2,1.1-0.1,1.4,0.2c0.2,0.2,0.4,0.4,0.4,0.6l-0.6,0.2c-0.1-0.1-0.1-0.3-0.3-0.4
			c-0.2-0.1-0.5-0.1-0.9,0c-0.2,0.1-0.4,0.2-0.5,0.3c-0.1,0.1-0.1,0.3-0.1,0.4c0,0.2,0.2,0.3,0.4,0.3c0.1,0,0.3,0,0.5,0l0.5,0
			c0.5,0,0.8,0,1,0.1c0.3,0.1,0.5,0.3,0.6,0.7c0.1,0.3,0,0.7-0.2,1c-0.2,0.3-0.6,0.5-1.1,0.7c-0.6,0.2-1,0.1-1.3-0.1
			c-0.3-0.2-0.5-0.5-0.6-0.9L250.9,189z"/>
		<path class="st8" d="M255.5,183.7c0.1-0.3,0.4-0.4,0.8-0.6c0,0,0.1,0,0.1,0c0,0,0.1,0,0.2,0l0.2,0.6c-0.1,0-0.1,0-0.1,0
			c0,0-0.1,0-0.1,0c-0.2,0.1-0.3,0.1-0.3,0.2c0,0.1,0,0.4,0.1,0.8l0.6-0.2l0.1,0.5l-0.6,0.2l0.9,3.3l-0.6,0.2l-0.9-3.3l-0.5,0.1
			l-0.1-0.5l0.5-0.1l-0.2-0.6C255.5,184,255.5,183.8,255.5,183.7z"/>
		<path class="st8" d="M260.4,184c0.4,0.2,0.7,0.7,0.9,1.3c0.2,0.6,0.2,1.2,0,1.7c-0.2,0.5-0.6,0.8-1.2,1c-0.5,0.1-1,0.1-1.4-0.2
			c-0.4-0.3-0.7-0.7-0.8-1.3c-0.2-0.6-0.1-1.2,0.1-1.7c0.2-0.5,0.6-0.8,1.2-0.9C259.6,183.7,260,183.8,260.4,184z M260.7,186.7
			c0.1-0.4,0.1-0.7-0.1-1.1c-0.1-0.4-0.2-0.6-0.4-0.8c-0.3-0.3-0.6-0.4-1.1-0.3c-0.4,0.1-0.6,0.3-0.7,0.7c-0.1,0.3-0.1,0.7,0,1.2
			c0.1,0.4,0.3,0.7,0.5,0.9c0.2,0.2,0.6,0.3,1,0.2C260.4,187.3,260.7,187,260.7,186.7z"/>
		<path class="st8" d="M261.7,183.3l0.6-0.2l0.2,0.7c0-0.1,0.1-0.3,0.2-0.6c0.1-0.2,0.3-0.4,0.6-0.5c0,0,0,0,0.1,0c0,0,0.1,0,0.2,0
			l0.2,0.7c0,0-0.1,0-0.1,0c0,0-0.1,0-0.1,0c-0.3,0.1-0.5,0.3-0.7,0.5c-0.1,0.3-0.1,0.5-0.1,0.8l0.6,2.2l-0.6,0.2L261.7,183.3z"/>
		<path class="st8" d="M266,181l0.7-0.2l0.3,1.1l0.6-0.2l0.1,0.5l-0.6,0.2l0.7,2.5c0,0.1,0.1,0.2,0.2,0.2c0.1,0,0.1,0,0.3,0
			c0,0,0.1,0,0.1,0c0,0,0.1,0,0.1,0l0.1,0.5c-0.1,0-0.1,0.1-0.2,0.1c-0.1,0-0.2,0.1-0.3,0.1c-0.3,0.1-0.5,0.1-0.7-0.1
			c-0.1-0.1-0.3-0.3-0.3-0.6l-0.7-2.5l-0.5,0.1l-0.1-0.5l0.5-0.1L266,181z"/>
		<path class="st8" d="M267.8,180.1l0.6-0.2l0.5,2c0.1-0.2,0.2-0.4,0.3-0.5c0.2-0.2,0.4-0.3,0.7-0.4c0.6-0.1,1-0.1,1.3,0.3
			c0.2,0.2,0.3,0.5,0.4,0.8l0.7,2.5l-0.7,0.2l-0.6-2.4c-0.1-0.3-0.2-0.5-0.3-0.6c-0.2-0.2-0.4-0.2-0.7-0.1c-0.3,0.1-0.5,0.2-0.7,0.5
			c-0.2,0.2-0.2,0.6,0,1.1l0.5,2l-0.6,0.2L267.8,180.1z"/>
		<path class="st8" d="M274.6,179.9c0.3,0.1,0.5,0.2,0.7,0.3c0.2,0.2,0.3,0.4,0.4,0.6c0.1,0.2,0.2,0.4,0.3,0.8l-2.8,0.7
			c0.1,0.4,0.3,0.7,0.5,0.9c0.2,0.2,0.5,0.2,0.9,0.1c0.3-0.1,0.6-0.3,0.7-0.5c0.1-0.2,0.1-0.3,0.1-0.5l0.6-0.2c0,0.1,0,0.3,0,0.5
			c0,0.2-0.1,0.4-0.2,0.5c-0.1,0.2-0.3,0.4-0.6,0.6c-0.1,0.1-0.3,0.1-0.5,0.2c-0.5,0.1-0.9,0.1-1.3-0.2c-0.4-0.3-0.7-0.7-0.9-1.3
			c-0.2-0.6-0.1-1.2,0.1-1.6c0.2-0.5,0.6-0.8,1.1-0.9C274.1,179.9,274.3,179.9,274.6,179.9z M275.3,181.4c-0.1-0.3-0.2-0.5-0.4-0.6
			c-0.3-0.3-0.6-0.3-1-0.2c-0.3,0.1-0.5,0.3-0.7,0.5c-0.1,0.3-0.2,0.6-0.1,0.9L275.3,181.4z"/>
		<path class="st8" d="M278.4,178.8l0.6-0.2l0.2,0.7c0-0.1,0.1-0.3,0.2-0.6c0.1-0.2,0.3-0.4,0.6-0.5c0,0,0,0,0.1,0s0.1,0,0.2,0
			l0.2,0.7c0,0-0.1,0-0.1,0c0,0-0.1,0-0.1,0c-0.3,0.1-0.5,0.3-0.7,0.5c-0.1,0.3-0.1,0.5-0.1,0.8l0.6,2.2l-0.6,0.2L278.4,178.8z"/>
		<path class="st8" d="M283.2,177.7c0.3,0.1,0.5,0.2,0.7,0.3c0.2,0.2,0.3,0.4,0.4,0.6c0.1,0.2,0.2,0.4,0.3,0.8l-2.8,0.7
			c0.1,0.4,0.3,0.7,0.5,0.9c0.2,0.2,0.5,0.2,0.9,0.1c0.3-0.1,0.6-0.3,0.7-0.5c0.1-0.2,0.1-0.3,0.1-0.5l0.6-0.2c0,0.1,0,0.3,0,0.5
			c0,0.2-0.1,0.4-0.2,0.5c-0.1,0.2-0.3,0.4-0.6,0.6c-0.1,0.1-0.3,0.1-0.5,0.2c-0.5,0.1-0.9,0.1-1.3-0.2c-0.4-0.3-0.7-0.7-0.9-1.3
			c-0.2-0.6-0.1-1.2,0.1-1.6c0.2-0.5,0.6-0.8,1.1-0.9C282.6,177.6,282.9,177.6,283.2,177.7z M283.8,179.1c-0.1-0.3-0.2-0.5-0.4-0.6
			c-0.3-0.3-0.6-0.3-1-0.2c-0.3,0.1-0.5,0.3-0.7,0.5c-0.1,0.3-0.2,0.6-0.1,0.9L283.8,179.1z"/>
		<path class="st8" d="M284.9,177.1l0.6-0.2l0.1,0.5c0.1-0.2,0.2-0.4,0.3-0.5c0.2-0.2,0.4-0.3,0.7-0.4c0.3-0.1,0.6-0.1,0.8,0
			c0.1,0.1,0.3,0.2,0.4,0.3c0.1-0.2,0.2-0.4,0.4-0.6c0.2-0.2,0.4-0.3,0.6-0.3c0.5-0.1,0.9,0,1.2,0.3c0.2,0.2,0.3,0.4,0.4,0.8
			l0.7,2.6l-0.7,0.2l-0.7-2.7c-0.1-0.3-0.2-0.4-0.3-0.5c-0.2-0.1-0.3-0.1-0.5,0c-0.3,0.1-0.4,0.2-0.6,0.4c-0.1,0.2-0.2,0.5,0,0.9
			l0.6,2.2l-0.7,0.2l-0.7-2.5c-0.1-0.3-0.2-0.4-0.2-0.5c-0.1-0.2-0.4-0.2-0.6-0.1c-0.2,0.1-0.4,0.2-0.6,0.5c-0.1,0.2-0.2,0.6,0,1.1
			l0.5,2l-0.6,0.2L284.9,177.1z"/>
		<path class="st8" d="M290.6,174l0.7-0.2l0.2,0.7l-0.7,0.2L290.6,174z M291,175.5l0.7-0.2l1,3.8l-0.7,0.2L291,175.5z"/>
		<path class="st8" d="M292.6,175l0.6-0.2l0.1,0.5c0.1-0.3,0.3-0.5,0.4-0.6c0.2-0.2,0.4-0.3,0.6-0.3c0.5-0.1,1-0.1,1.3,0.3
			c0.2,0.2,0.3,0.5,0.4,0.8l0.7,2.5l-0.7,0.2l-0.6-2.4c-0.1-0.2-0.1-0.4-0.3-0.5c-0.2-0.2-0.4-0.3-0.7-0.2c-0.2,0-0.3,0.1-0.4,0.1
			c-0.2,0.1-0.3,0.2-0.4,0.4c-0.1,0.2-0.1,0.3-0.1,0.4c0,0.1,0,0.3,0.1,0.6l0.5,2l-0.6,0.2L292.6,175z"/>
		<path class="st8" d="M298.8,173.5c0.1,0,0.3,0.1,0.5,0.3l-0.5-1.9l0.6-0.2l1.4,5.3l-0.6,0.2l-0.1-0.5c-0.1,0.3-0.2,0.5-0.4,0.7
			c-0.2,0.2-0.4,0.3-0.7,0.3c-0.4,0.1-0.8,0-1.2-0.2c-0.4-0.3-0.7-0.7-0.9-1.3c-0.1-0.6-0.1-1.1,0-1.6s0.5-0.8,1.1-0.9
			C298.3,173.4,298.6,173.4,298.8,173.5z M298.2,176.7c0.2,0.2,0.6,0.3,0.9,0.2c0.3-0.1,0.5-0.3,0.6-0.6c0.1-0.3,0.1-0.7,0-1.2
			c-0.1-0.5-0.3-0.8-0.6-1c-0.3-0.2-0.5-0.2-0.8-0.2c-0.3,0.1-0.6,0.3-0.7,0.6c-0.1,0.3-0.1,0.7,0,1.2
			C297.7,176.2,297.9,176.5,298.2,176.7z"/>
		<path class="st8" d="M303.2,172.3c0.3,0.1,0.5,0.2,0.7,0.3c0.2,0.2,0.3,0.4,0.4,0.6c0.1,0.2,0.2,0.4,0.3,0.8l-2.8,0.7
			c0.1,0.4,0.3,0.7,0.5,0.9c0.2,0.2,0.5,0.2,0.9,0.1c0.3-0.1,0.6-0.3,0.7-0.5c0.1-0.2,0.1-0.3,0.1-0.5l0.6-0.2c0,0.1,0,0.3,0,0.5
			c0,0.2-0.1,0.4-0.2,0.5c-0.1,0.2-0.3,0.4-0.6,0.6c-0.1,0.1-0.3,0.1-0.5,0.2c-0.5,0.1-0.9,0.1-1.3-0.2c-0.4-0.3-0.7-0.7-0.9-1.3
			c-0.2-0.6-0.1-1.2,0.1-1.6c0.2-0.5,0.6-0.8,1.2-0.9C302.6,172.3,302.9,172.3,303.2,172.3z M303.8,173.8c-0.1-0.3-0.2-0.5-0.4-0.6
			c-0.3-0.3-0.6-0.3-1-0.2c-0.3,0.1-0.5,0.3-0.7,0.5c-0.1,0.3-0.2,0.6-0.1,0.9L303.8,173.8z"/>
		<path class="st8" d="M304.9,171.7l0.6-0.2l0.2,0.7c0-0.1,0.1-0.3,0.2-0.6c0.1-0.2,0.3-0.4,0.6-0.5c0,0,0,0,0.1,0c0,0,0.1,0,0.2,0
			l0.2,0.7c0,0-0.1,0-0.1,0c0,0-0.1,0-0.1,0c-0.3,0.1-0.5,0.3-0.7,0.5c-0.1,0.3-0.1,0.5-0.1,0.8l0.6,2.2l-0.6,0.2L304.9,171.7z"/>
	</g>
</g>
<g>
	
		<linearGradient id="SVGID_3_" gradientUnits="userSpaceOnUse" x1="244.0471" y1="429.4336" x2="341.817" y2="429.4336" gradientTransform="matrix(0.9661 -0.2581 0.2581 0.9661 -109.5552 -212.1255)">
		<stop  offset="0" style="stop-color:#8FCEEA"/>
		<stop  offset="0.5" style="stop-color:#67BEE1"/>
		<stop  offset="0.7594" style="stop-color:#39AFD7"/>
		<stop  offset="1" style="stop-color:#00A4CF"/>
	</linearGradient>
	<path class="st13" d="M332.1,139.3L249,161.5c-3.1,0.8-6.4-1-7.2-4.2l-9.4-35.2c-0.8-3.1,1-6.4,4.2-7.2l83.1-22.2
		c3.1-0.8,6.4,1,7.2,4.2l9.4,35.2C337.1,135.3,335.2,138.5,332.1,139.3z"/>
	<g>
		<path class="st8" d="M248.2,123.7l0.2,0.6l-1.8,0.5l1.2,4.6l-0.7,0.2l-1.2-4.6l-1.8,0.5l-0.2-0.6L248.2,123.7z"/>
		<path class="st8" d="M251.3,124.9c0.4,0.2,0.7,0.7,0.9,1.3c0.2,0.6,0.2,1.2,0,1.7c-0.2,0.5-0.6,0.8-1.2,1c-0.5,0.1-1,0.1-1.4-0.2
			c-0.4-0.3-0.7-0.7-0.8-1.3c-0.2-0.6-0.1-1.2,0.1-1.7c0.2-0.5,0.6-0.8,1.2-0.9C250.4,124.6,250.8,124.6,251.3,124.9z M251.5,127.5
			c0.1-0.4,0.1-0.7-0.1-1.1c-0.1-0.4-0.2-0.6-0.4-0.8c-0.3-0.3-0.6-0.4-1.1-0.3c-0.4,0.1-0.6,0.3-0.7,0.7c-0.1,0.3-0.1,0.7,0,1.2
			c0.1,0.4,0.3,0.7,0.5,0.9s0.6,0.3,1,0.2C251.2,128.1,251.5,127.9,251.5,127.5z"/>
		<path class="st8" d="M254.6,123.7c0.1,0,0.3,0.1,0.5,0.3l-0.5-1.9l0.6-0.2l1.4,5.3l-0.6,0.2l-0.1-0.5c-0.1,0.3-0.2,0.5-0.4,0.7
			c-0.2,0.2-0.4,0.3-0.7,0.3c-0.4,0.1-0.8,0-1.2-0.2c-0.4-0.3-0.7-0.7-0.9-1.3c-0.1-0.6-0.1-1.1,0-1.6c0.2-0.5,0.5-0.8,1.1-0.9
			C254.1,123.6,254.4,123.6,254.6,123.7z M253.9,126.9c0.2,0.2,0.6,0.3,0.9,0.2c0.3-0.1,0.5-0.3,0.6-0.6c0.1-0.3,0.1-0.7,0-1.2
			c-0.1-0.5-0.3-0.8-0.6-1c-0.3-0.2-0.5-0.2-0.8-0.2c-0.3,0.1-0.6,0.3-0.7,0.6c-0.1,0.3-0.1,0.7,0,1.2
			C253.5,126.4,253.7,126.7,253.9,126.9z"/>
		<path class="st8" d="M259,124c0.1-0.1,0.2-0.1,0.2-0.3c0-0.1,0-0.2,0-0.3c-0.1-0.2-0.2-0.4-0.4-0.4c-0.2-0.1-0.4,0-0.7,0
			c-0.3,0.1-0.5,0.2-0.6,0.5c-0.1,0.1-0.1,0.3,0,0.5l-0.6,0.2c-0.1-0.5,0-0.8,0.2-1.1c0.2-0.3,0.6-0.4,1-0.6c0.5-0.1,0.8-0.1,1.2,0
			c0.3,0.1,0.5,0.3,0.6,0.7l0.6,2.2c0,0.1,0,0.1,0.1,0.1c0,0,0.1,0,0.2,0c0,0,0.1,0,0.1,0c0,0,0.1,0,0.1,0l0.1,0.5
			c-0.1,0.1-0.2,0.1-0.2,0.1c-0.1,0-0.1,0-0.2,0.1c-0.2,0.1-0.4,0-0.5-0.1c-0.1-0.1-0.1-0.2-0.2-0.3c-0.1,0.2-0.2,0.4-0.4,0.6
			c-0.2,0.2-0.5,0.3-0.8,0.4c-0.4,0.1-0.7,0.1-1-0.1c-0.3-0.2-0.5-0.4-0.6-0.7c-0.1-0.4-0.1-0.7,0.1-0.9s0.4-0.5,0.8-0.6L259,124z
			 M258.1,126.1c0.2,0.1,0.3,0.1,0.5,0c0.2-0.1,0.4-0.2,0.6-0.3c0.3-0.3,0.4-0.6,0.3-1l-0.1-0.5c-0.1,0.1-0.2,0.1-0.3,0.2
			c-0.1,0.1-0.2,0.1-0.3,0.2l-0.4,0.2c-0.2,0.1-0.4,0.2-0.5,0.3c-0.2,0.2-0.2,0.4-0.2,0.6C257.8,125.9,257.9,126,258.1,126.1z"/>
		<path class="st8" d="M263,121.3l0.7-0.2c0,0.3-0.1,0.9-0.2,1.8c-0.1,0.7-0.1,1.3-0.2,1.8c-0.1,1.1-0.2,1.7-0.3,2
			c-0.1,0.3-0.3,0.4-0.7,0.5c-0.1,0-0.2,0-0.2,0c-0.1,0-0.1,0-0.2,0l-0.2-0.6c0.1,0,0.2,0,0.3,0c0.1,0,0.1,0,0.1,0
			c0.1,0,0.2-0.1,0.2-0.1c0-0.1,0.1-0.1,0.1-0.2c0,0,0-0.1,0-0.3s0-0.3,0.1-0.4l-2.5-3.6l0.7-0.2l1.9,2.8L263,121.3z"/>
		<path class="st8" d="M268.8,121.4c0.1-0.1,0.2-0.1,0.2-0.3c0-0.1,0-0.2,0-0.3c-0.1-0.2-0.2-0.4-0.4-0.4c-0.2-0.1-0.4,0-0.7,0
			c-0.3,0.1-0.5,0.2-0.6,0.5c-0.1,0.1-0.1,0.3,0,0.5l-0.6,0.2c-0.1-0.5,0-0.8,0.2-1.1c0.2-0.3,0.6-0.4,1-0.6c0.5-0.1,0.8-0.1,1.2,0
			c0.3,0.1,0.5,0.3,0.6,0.7l0.6,2.2c0,0.1,0,0.1,0.1,0.2c0,0,0.1,0,0.2,0c0,0,0.1,0,0.1,0c0,0,0.1,0,0.1,0l0.1,0.5
			c-0.1,0.1-0.2,0.1-0.2,0.1c0,0-0.1,0-0.2,0.1c-0.2,0.1-0.4,0-0.5-0.1c-0.1-0.1-0.1-0.2-0.2-0.3c-0.1,0.2-0.2,0.4-0.4,0.6
			c-0.2,0.2-0.5,0.3-0.8,0.4c-0.4,0.1-0.7,0.1-1-0.1c-0.3-0.2-0.5-0.4-0.6-0.7c-0.1-0.4-0.1-0.7,0.1-0.9c0.2-0.3,0.4-0.5,0.8-0.6
			L268.8,121.4z M267.9,123.5c0.2,0.1,0.3,0.1,0.5,0c0.2-0.1,0.4-0.2,0.6-0.3c0.3-0.3,0.4-0.6,0.3-1l-0.1-0.5
			c-0.1,0.1-0.2,0.1-0.3,0.2c-0.1,0.1-0.2,0.1-0.3,0.2l-0.4,0.2c-0.2,0.1-0.4,0.2-0.5,0.3c-0.2,0.2-0.2,0.4-0.2,0.6
			C267.6,123.3,267.7,123.4,267.9,123.5z"/>
		<path class="st8" d="M270.4,118.1c0.1-0.3,0.4-0.4,0.8-0.6c0,0,0.1,0,0.1,0c0,0,0.1,0,0.1,0l0.2,0.6c-0.1,0-0.1,0-0.1,0
			c0,0-0.1,0-0.1,0c-0.2,0.1-0.3,0.1-0.3,0.2c0,0.1,0,0.4,0.1,0.8l0.6-0.2l0.1,0.5l-0.6,0.2l0.9,3.3l-0.6,0.2l-0.9-3.3l-0.5,0.1
			l-0.1-0.5l0.5-0.1l-0.2-0.6C270.3,118.4,270.3,118.2,270.4,118.1z"/>
		<path class="st8" d="M272.3,117.7l0.7-0.2l0.3,1.1l0.6-0.2l0.1,0.5l-0.6,0.2l0.7,2.5c0,0.1,0.1,0.2,0.2,0.2c0.1,0,0.1,0,0.3,0
			c0,0,0.1,0,0.1,0c0,0,0.1,0,0.1,0l0.1,0.5c-0.1,0-0.1,0.1-0.2,0.1c-0.1,0-0.2,0.1-0.3,0.1c-0.3,0.1-0.5,0.1-0.7-0.1
			c-0.1-0.1-0.3-0.3-0.3-0.6l-0.7-2.5l-0.5,0.1l-0.1-0.5l0.5-0.1L272.3,117.7z"/>
		<path class="st8" d="M276.9,117.7c0.3,0.1,0.5,0.2,0.7,0.3c0.2,0.2,0.3,0.4,0.4,0.6c0.1,0.2,0.2,0.4,0.3,0.8l-2.8,0.7
			c0.1,0.4,0.3,0.7,0.5,0.9c0.2,0.2,0.5,0.2,0.9,0.1c0.3-0.1,0.6-0.3,0.7-0.5c0.1-0.2,0.1-0.3,0.1-0.5l0.6-0.2c0,0.1,0,0.3,0,0.5
			s-0.1,0.4-0.2,0.5c-0.1,0.2-0.3,0.4-0.6,0.6c-0.1,0.1-0.3,0.1-0.5,0.2c-0.5,0.1-0.9,0.1-1.3-0.2c-0.4-0.3-0.7-0.7-0.9-1.3
			c-0.2-0.6-0.1-1.2,0.1-1.6c0.2-0.5,0.6-0.8,1.1-0.9C276.3,117.7,276.6,117.7,276.9,117.7z M277.5,119.2c-0.1-0.3-0.2-0.5-0.4-0.6
			c-0.3-0.3-0.6-0.3-1-0.2c-0.3,0.1-0.5,0.3-0.7,0.5c-0.1,0.3-0.2,0.6-0.1,0.9L277.5,119.2z"/>
		<path class="st8" d="M278.6,117.2l0.6-0.2l0.2,0.7c0-0.1,0.1-0.3,0.2-0.6s0.3-0.4,0.6-0.5c0,0,0,0,0.1,0c0,0,0.1,0,0.2,0l0.2,0.7
			c0,0-0.1,0-0.1,0c0,0-0.1,0-0.1,0c-0.3,0.1-0.5,0.3-0.7,0.5c-0.1,0.3-0.1,0.5-0.1,0.8l0.6,2.2l-0.6,0.2L278.6,117.2z"/>
		<path class="st8" d="M282.7,114.5l0.6-0.2l1.4,5.3l-0.6,0.2L282.7,114.5z"/>
		<path class="st8" d="M285.3,115.4l0.7,2.5c0.1,0.2,0.1,0.3,0.2,0.5c0.2,0.2,0.4,0.3,0.7,0.2c0.4-0.1,0.7-0.4,0.7-0.8
			c0-0.2,0-0.5-0.1-0.9l-0.5-1.9l0.6-0.2l1,3.8l-0.6,0.2l-0.1-0.6c0,0.2-0.1,0.3-0.2,0.5c-0.2,0.3-0.5,0.4-0.8,0.5
			c-0.5,0.1-1,0.1-1.2-0.3c-0.2-0.2-0.3-0.4-0.4-0.7l-0.7-2.6L285.3,115.4z"/>
		<path class="st8" d="M288.7,114.4l0.6-0.2l0.1,0.5c0.1-0.3,0.3-0.5,0.4-0.6c0.2-0.2,0.4-0.3,0.6-0.3c0.5-0.1,1-0.1,1.3,0.3
			c0.2,0.2,0.3,0.5,0.4,0.8l0.7,2.5l-0.7,0.2l-0.6-2.4c-0.1-0.2-0.1-0.4-0.3-0.5c-0.2-0.2-0.4-0.3-0.7-0.2c-0.2,0-0.3,0.1-0.4,0.1
			c-0.2,0.1-0.3,0.2-0.4,0.4c-0.1,0.2-0.1,0.3-0.1,0.4c0,0.1,0,0.3,0.1,0.6l0.5,2l-0.6,0.2L288.7,114.4z"/>
		<path class="st8" d="M295.4,112.9c0.3,0.1,0.6,0.5,0.8,1l-0.6,0.2c-0.1-0.2-0.2-0.4-0.4-0.5c-0.2-0.1-0.4-0.1-0.7-0.1
			c-0.4,0.1-0.7,0.4-0.7,0.8c0,0.3,0,0.6,0.1,1c0.1,0.4,0.3,0.7,0.5,0.9s0.5,0.3,0.9,0.2c0.3-0.1,0.5-0.2,0.6-0.4
			c0.1-0.2,0.2-0.5,0.1-0.8l0.6-0.2c0.1,0.5,0,0.9-0.2,1.3c-0.2,0.3-0.6,0.5-1,0.6c-0.5,0.1-1,0.1-1.3-0.2s-0.7-0.7-0.8-1.3
			c-0.2-0.7-0.2-1.2,0.1-1.7c0.2-0.5,0.6-0.8,1.1-0.9C294.7,112.7,295.1,112.7,295.4,112.9z"/>
		<path class="st8" d="M296.1,110.9l0.6-0.2l0.5,2c0.1-0.2,0.2-0.4,0.3-0.5c0.2-0.2,0.4-0.3,0.7-0.4c0.6-0.1,1-0.1,1.3,0.3
			c0.2,0.2,0.3,0.5,0.4,0.8l0.7,2.5l-0.7,0.2l-0.6-2.4c-0.1-0.3-0.2-0.5-0.3-0.6c-0.2-0.2-0.4-0.2-0.7-0.1c-0.3,0.1-0.5,0.2-0.7,0.5
			c-0.2,0.2-0.2,0.6,0,1.1l0.5,2l-0.6,0.2L296.1,110.9z"/>
		<path class="st8" d="M301.5,114.3l0.7-0.2l0.2,0.8l-0.7,0.2L301.5,114.3z"/>
		<path class="st8" d="M304.5,108.7l0.7-0.2l1.4,5.3l-0.7,0.2L304.5,108.7z"/>
		<path class="st8" d="M306.5,108.5l0.7-0.2l0.3,1.1l0.6-0.2l0.1,0.5l-0.6,0.2l0.7,2.5c0,0.1,0.1,0.2,0.2,0.2c0.1,0,0.1,0,0.3,0
			c0,0,0.1,0,0.1,0s0.1,0,0.1,0l0.1,0.5c-0.1,0-0.1,0.1-0.2,0.1c-0.1,0-0.2,0.1-0.3,0.1c-0.3,0.1-0.5,0.1-0.7-0.1s-0.3-0.3-0.3-0.6
			l-0.7-2.5l-0.5,0.1l-0.1-0.5l0.5-0.1L306.5,108.5z"/>
		<path class="st8" d="M308.9,109.2c0.1-0.1,0.2-0.2,0.2-0.3c0-0.1,0-0.3,0-0.5c0,0,0,0,0,0c0,0,0,0,0,0l-0.4,0.1l-0.2-0.8l0.8-0.2
			l0.2,0.7c0.1,0.3,0.1,0.6,0,0.8c-0.1,0.2-0.2,0.4-0.5,0.5L308.9,109.2z"/>
		<path class="st8" d="M311.3,111.2c0.1,0.2,0.2,0.4,0.3,0.5c0.2,0.2,0.5,0.2,0.9,0.1c0.2-0.1,0.4-0.2,0.6-0.3
			c0.2-0.2,0.2-0.3,0.1-0.6c0-0.2-0.2-0.3-0.3-0.3c-0.1,0-0.3,0-0.6,0l-0.6,0c-0.4,0-0.6,0-0.8-0.1c-0.3-0.1-0.5-0.3-0.6-0.6
			c-0.1-0.4,0-0.7,0.2-1s0.5-0.5,1-0.6c0.6-0.2,1.1-0.1,1.4,0.2c0.2,0.2,0.4,0.4,0.4,0.6l-0.6,0.2c-0.1-0.1-0.1-0.3-0.3-0.4
			c-0.2-0.1-0.5-0.1-0.9,0c-0.2,0.1-0.4,0.2-0.5,0.3c-0.1,0.1-0.1,0.3-0.1,0.4c0,0.2,0.2,0.3,0.4,0.3c0.1,0,0.3,0,0.5,0l0.5,0
			c0.5,0,0.8,0,1,0.1c0.3,0.1,0.5,0.3,0.6,0.7c0.1,0.3,0,0.7-0.2,1c-0.2,0.3-0.6,0.5-1.1,0.7c-0.6,0.2-1,0.1-1.3-0.1
			c-0.3-0.2-0.5-0.5-0.6-0.9L311.3,111.2z"/>
		<path class="st8" d="M249.9,134.6c0.4,0.2,0.7,0.7,0.9,1.3c0.2,0.6,0.2,1.2,0,1.7c-0.2,0.5-0.6,0.8-1.2,1c-0.5,0.1-1,0.1-1.4-0.2
			c-0.4-0.3-0.7-0.7-0.8-1.3c-0.2-0.6-0.1-1.2,0.1-1.7s0.6-0.8,1.2-0.9C249.1,134.4,249.5,134.4,249.9,134.6z M250.2,137.3
			c0.1-0.4,0.1-0.7-0.1-1.1c-0.1-0.4-0.2-0.6-0.4-0.8c-0.3-0.3-0.6-0.4-1.1-0.3c-0.4,0.1-0.6,0.3-0.7,0.7s-0.1,0.7,0,1.2
			c0.1,0.4,0.3,0.7,0.5,0.9c0.2,0.2,0.6,0.3,1,0.2C249.9,137.9,250.2,137.7,250.2,137.3z"/>
		<path class="st8" d="M251.1,133.9l0.6-0.2l0.1,0.5c0.1-0.3,0.3-0.5,0.4-0.6c0.2-0.2,0.4-0.3,0.6-0.3c0.5-0.1,1-0.1,1.3,0.3
			c0.2,0.2,0.3,0.5,0.4,0.8l0.7,2.5l-0.7,0.2l-0.6-2.4c-0.1-0.2-0.1-0.4-0.3-0.5c-0.2-0.2-0.4-0.3-0.7-0.2c-0.2,0-0.3,0.1-0.4,0.1
			c-0.2,0.1-0.3,0.2-0.4,0.4c-0.1,0.2-0.1,0.3-0.1,0.4c0,0.1,0,0.3,0.1,0.6l0.5,2l-0.6,0.2L251.1,133.9z"/>
		<path class="st8" d="M254.9,131.4l0.6-0.2l1.4,5.3l-0.6,0.2L254.9,131.4z"/>
		<path class="st8" d="M259.2,131.7l0.7-0.2c0,0.3-0.1,0.9-0.2,1.8c-0.1,0.7-0.1,1.3-0.2,1.8c-0.1,1.1-0.2,1.7-0.3,2
			c-0.1,0.3-0.3,0.4-0.7,0.5c-0.1,0-0.2,0-0.2,0s-0.1,0-0.2,0l-0.2-0.6c0.1,0,0.2,0,0.3,0c0.1,0,0.1,0,0.1,0c0.1,0,0.2-0.1,0.2-0.1
			c0-0.1,0.1-0.1,0.1-0.2c0,0,0-0.1,0-0.3c0-0.2,0-0.3,0.1-0.4l-2.5-3.6l0.7-0.2l1.9,2.8L259.2,131.7z"/>
		<path class="st8" d="M262.5,129.6c0.1-0.3,0.4-0.4,0.8-0.6c0,0,0.1,0,0.1,0c0,0,0.1,0,0.2,0l0.2,0.6c-0.1,0-0.1,0-0.1,0
			c0,0-0.1,0-0.1,0c-0.2,0.1-0.3,0.1-0.3,0.2c0,0.1,0,0.4,0.1,0.8l0.6-0.2l0.1,0.5l-0.6,0.2l0.9,3.3l-0.6,0.2l-0.9-3.3l-0.5,0.1
			l-0.1-0.5l0.5-0.1l-0.2-0.6C262.5,130,262.5,129.8,262.5,129.6z"/>
		<path class="st8" d="M267.5,130c0.4,0.2,0.7,0.7,0.9,1.3c0.2,0.6,0.2,1.2,0,1.7c-0.2,0.5-0.6,0.8-1.2,1c-0.5,0.1-1,0.1-1.4-0.2
			c-0.4-0.3-0.7-0.7-0.8-1.3c-0.2-0.6-0.1-1.2,0.1-1.7c0.2-0.5,0.6-0.8,1.2-0.9C266.6,129.7,267,129.7,267.5,130z M267.8,132.6
			c0.1-0.4,0.1-0.7-0.1-1.1c-0.1-0.4-0.2-0.6-0.4-0.8c-0.3-0.3-0.6-0.4-1.1-0.3c-0.4,0.1-0.6,0.3-0.7,0.7s-0.1,0.7,0,1.2
			c0.1,0.4,0.3,0.7,0.5,0.9c0.3,0.2,0.6,0.3,1,0.2C267.4,133.2,267.7,133,267.8,132.6z"/>
		<path class="st8" d="M268.7,129.2l0.6-0.2l0.2,0.7c0-0.1,0.1-0.3,0.2-0.6s0.3-0.4,0.6-0.5c0,0,0,0,0.1,0c0,0,0.1,0,0.2,0l0.2,0.7
			c0,0-0.1,0-0.1,0c0,0-0.1,0-0.1,0c-0.3,0.1-0.5,0.3-0.7,0.5c-0.1,0.3-0.1,0.5-0.1,0.8l0.6,2.2l-0.6,0.2L268.7,129.2z"/>
		<path class="st8" d="M275.6,129c0.1-0.1,0.2-0.1,0.2-0.3c0-0.1,0-0.2,0-0.3c-0.1-0.2-0.2-0.4-0.4-0.4c-0.2-0.1-0.4,0-0.7,0
			c-0.3,0.1-0.5,0.2-0.6,0.5c-0.1,0.1-0.1,0.3,0,0.5l-0.6,0.2c-0.1-0.5,0-0.8,0.2-1.1c0.2-0.3,0.6-0.4,0.9-0.6
			c0.5-0.1,0.8-0.1,1.2,0c0.3,0.1,0.5,0.3,0.6,0.7l0.6,2.2c0,0.1,0,0.1,0.1,0.1c0,0,0.1,0,0.2,0c0,0,0.1,0,0.1,0c0,0,0.1,0,0.1,0
			l0.1,0.5c-0.1,0.1-0.2,0.1-0.2,0.1c-0.1,0-0.1,0-0.2,0.1c-0.2,0.1-0.4,0-0.5-0.1c-0.1-0.1-0.1-0.2-0.2-0.3
			c-0.1,0.2-0.2,0.4-0.4,0.6c-0.2,0.2-0.5,0.3-0.8,0.4c-0.4,0.1-0.7,0.1-1-0.1c-0.3-0.2-0.5-0.4-0.6-0.7c-0.1-0.4-0.1-0.7,0.1-0.9
			c0.2-0.3,0.4-0.5,0.8-0.6L275.6,129z M274.7,131.1c0.2,0.1,0.3,0.1,0.5,0c0.2-0.1,0.4-0.2,0.6-0.3c0.3-0.3,0.4-0.6,0.3-1l-0.1-0.5
			c-0.1,0.1-0.2,0.1-0.3,0.2c-0.1,0.1-0.2,0.1-0.3,0.2l-0.4,0.2c-0.2,0.1-0.4,0.2-0.5,0.3c-0.2,0.2-0.2,0.4-0.2,0.6
			C274.4,130.9,274.6,131,274.7,131.1z"/>
		<path class="st8" d="M277.2,126.9l0.6-0.2l0.1,0.5c0.1-0.3,0.3-0.5,0.4-0.6c0.2-0.2,0.4-0.3,0.6-0.3c0.5-0.1,1-0.1,1.3,0.3
			c0.2,0.2,0.3,0.5,0.4,0.8l0.7,2.5l-0.7,0.2l-0.6-2.4c-0.1-0.2-0.1-0.4-0.3-0.5c-0.2-0.2-0.4-0.3-0.7-0.2c-0.2,0-0.3,0.1-0.4,0.1
			c-0.2,0.1-0.3,0.2-0.4,0.4c-0.1,0.2-0.1,0.3-0.1,0.4c0,0.1,0,0.3,0.1,0.6l0.5,2l-0.6,0.2L277.2,126.9z"/>
		<path class="st8" d="M283,123.9l0.6-0.2l0.5,2c0.1-0.2,0.2-0.4,0.3-0.5c0.2-0.2,0.4-0.3,0.7-0.4c0.6-0.1,1-0.1,1.3,0.3
			c0.2,0.2,0.3,0.5,0.4,0.8l0.7,2.5l-0.7,0.2l-0.6-2.4c-0.1-0.3-0.2-0.5-0.3-0.6c-0.2-0.2-0.4-0.2-0.7-0.1c-0.3,0.1-0.5,0.2-0.7,0.5
			c-0.2,0.2-0.2,0.6,0,1.1l0.5,2l-0.6,0.2L283,123.9z"/>
		<path class="st8" d="M290.3,123.9c0.4,0.2,0.7,0.7,0.9,1.3c0.2,0.6,0.2,1.2,0,1.7c-0.2,0.5-0.6,0.8-1.2,1c-0.5,0.1-1,0.1-1.4-0.2
			c-0.4-0.3-0.7-0.7-0.8-1.3c-0.2-0.6-0.1-1.2,0.1-1.7c0.2-0.5,0.6-0.8,1.2-0.9C289.4,123.6,289.9,123.6,290.3,123.9z M290.6,126.5
			c0.1-0.4,0.1-0.7-0.1-1.1c-0.1-0.4-0.2-0.6-0.4-0.8c-0.3-0.3-0.6-0.4-1.1-0.3c-0.4,0.1-0.6,0.3-0.7,0.7c-0.1,0.3-0.1,0.7,0,1.2
			c0.1,0.4,0.3,0.7,0.5,0.9c0.2,0.2,0.6,0.3,1,0.2C290.3,127.1,290.5,126.9,290.6,126.5z"/>
		<path class="st8" d="M292.2,123l0.7,2.5c0.1,0.2,0.1,0.3,0.2,0.5c0.2,0.2,0.4,0.3,0.7,0.2c0.4-0.1,0.7-0.4,0.7-0.8
			c0-0.2,0-0.5-0.1-0.9l-0.5-1.9l0.6-0.2l1,3.8l-0.6,0.2l-0.1-0.6c0,0.2-0.1,0.3-0.2,0.5c-0.2,0.3-0.5,0.4-0.8,0.5
			c-0.5,0.1-1,0.1-1.2-0.3c-0.2-0.2-0.3-0.4-0.4-0.7l-0.7-2.6L292.2,123z"/>
		<path class="st8" d="M295.6,122l0.6-0.2l0.2,0.7c0-0.1,0.1-0.3,0.2-0.6c0.1-0.2,0.3-0.4,0.6-0.5c0,0,0,0,0.1,0c0,0,0.1,0,0.2,0
			l0.2,0.7c0,0-0.1,0-0.1,0c0,0-0.1,0-0.1,0c-0.3,0.1-0.5,0.3-0.7,0.5c-0.1,0.3-0.1,0.5-0.1,0.8l0.6,2.2l-0.6,0.2L295.6,122z"/>
		<path class="st8" d="M299.6,119.4l0.6-0.2l0.5,1.9c0.1-0.2,0.2-0.4,0.4-0.6c0.2-0.1,0.4-0.3,0.6-0.3c0.5-0.1,0.9-0.1,1.3,0.2
			c0.4,0.2,0.7,0.7,0.8,1.3c0.2,0.6,0.1,1.1,0,1.6c-0.2,0.5-0.5,0.8-1.1,0.9c-0.3,0.1-0.6,0.1-0.8,0c-0.1-0.1-0.3-0.2-0.5-0.3
			l0.1,0.5l-0.6,0.2L299.6,119.4z M303.3,123.2c0.1-0.3,0.1-0.7,0-1.2c-0.1-0.4-0.3-0.7-0.5-0.9c-0.2-0.2-0.5-0.3-0.9-0.2
			c-0.3,0.1-0.5,0.3-0.7,0.5c-0.2,0.3-0.2,0.7,0,1.2c0.1,0.4,0.2,0.6,0.4,0.8c0.3,0.4,0.7,0.5,1.1,0.4
			C302.9,123.7,303.2,123.5,303.3,123.2z"/>
		<path class="st8" d="M304.8,119.6l0.7,2.5c0.1,0.2,0.1,0.3,0.2,0.5c0.2,0.2,0.4,0.3,0.7,0.2c0.4-0.1,0.7-0.4,0.7-0.8
			c0-0.2,0-0.5-0.1-0.9l-0.5-1.9l0.6-0.2l1,3.8l-0.6,0.2l-0.1-0.6c0,0.2-0.1,0.3-0.2,0.5c-0.2,0.3-0.5,0.4-0.8,0.5
			c-0.5,0.1-1,0.1-1.2-0.3c-0.2-0.2-0.3-0.4-0.4-0.7l-0.7-2.6L304.8,119.6z"/>
		<path class="st8" d="M308.1,117.6l0.7-0.2l0.3,1.1l0.6-0.2l0.1,0.5l-0.6,0.2l0.7,2.5c0,0.1,0.1,0.2,0.2,0.2c0.1,0,0.1,0,0.3,0
			c0,0,0.1,0,0.1,0c0,0,0.1,0,0.1,0l0.1,0.5c-0.1,0-0.1,0.1-0.2,0.1c-0.1,0-0.2,0.1-0.3,0.1c-0.3,0.1-0.5,0.1-0.7-0.1
			c-0.1-0.1-0.3-0.3-0.3-0.6l-0.7-2.5l-0.5,0.1l-0.1-0.5l0.5-0.1L308.1,117.6z"/>
		<path class="st8" d="M251.8,143.2l0.7-0.2c0,0.3-0.1,0.9-0.2,1.8c-0.1,0.7-0.1,1.3-0.2,1.8c-0.1,1.1-0.2,1.7-0.3,2
			c-0.1,0.3-0.3,0.4-0.7,0.5c-0.1,0-0.2,0-0.2,0s-0.1,0-0.2,0l-0.2-0.6c0.1,0,0.2,0,0.3,0c0.1,0,0.1,0,0.1,0c0.1,0,0.2-0.1,0.2-0.1
			c0-0.1,0.1-0.1,0.1-0.2c0,0,0-0.1,0-0.3c0-0.2,0-0.3,0.1-0.4l-2.5-3.6l0.7-0.2l1.9,2.8L251.8,143.2z"/>
		<path class="st8" d="M256,142.5c0.4,0.2,0.7,0.7,0.9,1.3c0.2,0.6,0.2,1.2,0,1.7c-0.2,0.5-0.6,0.8-1.2,1c-0.5,0.1-1,0.1-1.4-0.2
			c-0.4-0.3-0.7-0.7-0.8-1.3c-0.2-0.6-0.1-1.2,0.1-1.7c0.2-0.5,0.6-0.8,1.2-0.9C255.1,142.2,255.5,142.2,256,142.5z M256.2,145.1
			c0.1-0.4,0.1-0.7-0.1-1.1c-0.1-0.4-0.2-0.6-0.4-0.8c-0.3-0.3-0.6-0.4-1.1-0.3c-0.4,0.1-0.6,0.3-0.7,0.7s-0.1,0.7,0,1.2
			c0.1,0.4,0.3,0.7,0.5,0.9c0.2,0.2,0.6,0.3,1,0.2C255.9,145.7,256.2,145.5,256.2,145.1z"/>
		<path class="st8" d="M257.8,141.6l0.7,2.5c0.1,0.2,0.1,0.3,0.2,0.5c0.2,0.2,0.4,0.3,0.7,0.2c0.4-0.1,0.7-0.4,0.7-0.8
			c0-0.2,0-0.5-0.1-0.9l-0.5-1.9l0.6-0.2l1,3.8l-0.6,0.2l-0.1-0.6c0,0.2-0.1,0.3-0.2,0.5c-0.2,0.3-0.5,0.4-0.8,0.5
			c-0.5,0.1-1,0.1-1.2-0.3c-0.2-0.2-0.3-0.4-0.4-0.7l-0.7-2.6L257.8,141.6z"/>
		<path class="st8" d="M265.9,139.6c0.3,0.1,0.6,0.5,0.8,1l-0.6,0.2c-0.1-0.2-0.2-0.4-0.4-0.5c-0.2-0.1-0.4-0.1-0.7-0.1
			c-0.4,0.1-0.7,0.4-0.7,0.8c0,0.3,0,0.6,0.1,1c0.1,0.4,0.3,0.7,0.5,0.9s0.5,0.3,0.9,0.2c0.3-0.1,0.5-0.2,0.6-0.4
			c0.1-0.2,0.2-0.5,0.1-0.8l0.6-0.2c0.1,0.5,0,0.9-0.2,1.3c-0.2,0.3-0.6,0.5-1,0.6c-0.5,0.1-1,0.1-1.3-0.2c-0.4-0.3-0.7-0.7-0.8-1.3
			c-0.2-0.7-0.2-1.2,0.1-1.7c0.2-0.5,0.6-0.8,1.1-0.9C265.2,139.5,265.5,139.5,265.9,139.6z"/>
		<path class="st8" d="M269.4,140.1c0.1-0.1,0.2-0.1,0.2-0.3c0-0.1,0-0.2,0-0.3c-0.1-0.2-0.2-0.4-0.4-0.4c-0.2-0.1-0.4,0-0.7,0
			c-0.3,0.1-0.5,0.2-0.6,0.5c-0.1,0.1-0.1,0.3,0,0.5l-0.6,0.2c-0.1-0.5,0-0.8,0.2-1.1c0.2-0.3,0.6-0.4,1-0.6c0.5-0.1,0.8-0.1,1.2,0
			c0.3,0.1,0.5,0.3,0.6,0.7l0.6,2.2c0,0.1,0,0.1,0.1,0.2c0,0,0.1,0,0.2,0c0,0,0.1,0,0.1,0c0,0,0.1,0,0.1,0l0.1,0.5
			c-0.1,0.1-0.2,0.1-0.2,0.1c-0.1,0-0.1,0-0.2,0.1c-0.2,0.1-0.4,0-0.5-0.1c-0.1-0.1-0.1-0.2-0.2-0.3c-0.1,0.2-0.2,0.4-0.4,0.6
			c-0.2,0.2-0.5,0.3-0.8,0.4c-0.4,0.1-0.7,0.1-1-0.1c-0.3-0.2-0.5-0.4-0.6-0.7c-0.1-0.4-0.1-0.7,0.1-0.9c0.2-0.3,0.4-0.5,0.8-0.6
			L269.4,140.1z M268.5,142.2c0.2,0.1,0.3,0.1,0.5,0c0.2-0.1,0.4-0.2,0.6-0.3c0.3-0.3,0.4-0.6,0.3-1l-0.1-0.5
			c-0.1,0.1-0.2,0.1-0.3,0.2c-0.1,0.1-0.2,0.1-0.3,0.2l-0.4,0.2c-0.2,0.1-0.4,0.2-0.5,0.3c-0.2,0.2-0.2,0.4-0.2,0.6
			C268.2,142,268.3,142.1,268.5,142.2z"/>
		<path class="st8" d="M271,138l0.6-0.2l0.1,0.5c0.1-0.3,0.3-0.5,0.4-0.6c0.2-0.2,0.4-0.3,0.6-0.3c0.5-0.1,1-0.1,1.3,0.3
			c0.2,0.2,0.3,0.5,0.4,0.8l0.7,2.5l-0.7,0.2l-0.6-2.4c-0.1-0.2-0.1-0.4-0.3-0.5c-0.2-0.2-0.4-0.3-0.7-0.2c-0.2,0-0.3,0.1-0.4,0.1
			c-0.2,0.1-0.3,0.2-0.4,0.4c-0.1,0.2-0.1,0.3-0.1,0.4c0,0.1,0,0.3,0.1,0.6l0.5,2l-0.6,0.2L271,138z"/>
		<path class="st8" d="M279.3,136c0.1,0,0.3,0.1,0.5,0.3l-0.5-1.9l0.6-0.2l1.4,5.3l-0.6,0.2l-0.1-0.5c-0.1,0.3-0.2,0.5-0.4,0.7
			c-0.2,0.2-0.4,0.3-0.7,0.3c-0.4,0.1-0.8,0-1.2-0.2c-0.4-0.3-0.7-0.7-0.9-1.3c-0.1-0.6-0.1-1.1,0-1.6c0.2-0.5,0.5-0.8,1.1-0.9
			C278.8,135.9,279,135.9,279.3,136z M278.6,139.2c0.2,0.2,0.6,0.3,0.9,0.2c0.3-0.1,0.5-0.3,0.6-0.6c0.1-0.3,0.1-0.7,0-1.2
			c-0.1-0.5-0.3-0.8-0.6-1c-0.3-0.2-0.5-0.2-0.8-0.2c-0.3,0.1-0.6,0.3-0.7,0.6c-0.1,0.3-0.1,0.7,0,1.2
			C278.2,138.7,278.4,139,278.6,139.2z"/>
		<path class="st8" d="M284.1,135c0.4,0.2,0.7,0.7,0.9,1.3c0.2,0.6,0.2,1.2,0,1.7c-0.2,0.5-0.6,0.8-1.2,1c-0.5,0.1-1,0.1-1.4-0.2
			c-0.4-0.3-0.7-0.7-0.8-1.3c-0.2-0.6-0.1-1.2,0.1-1.7c0.2-0.5,0.6-0.8,1.2-0.9C283.2,134.7,283.7,134.7,284.1,135z M284.4,137.6
			c0.1-0.4,0.1-0.7-0.1-1.1c-0.1-0.4-0.2-0.6-0.4-0.8c-0.3-0.3-0.6-0.4-1.1-0.3c-0.4,0.1-0.6,0.3-0.7,0.7c-0.1,0.3-0.1,0.7,0,1.2
			c0.1,0.4,0.3,0.7,0.5,0.9c0.2,0.2,0.6,0.3,1,0.2C284.1,138.2,284.3,138,284.4,137.6z"/>
		<path class="st8" d="M287,132.2l0.7-0.2l0.2,0.7l-0.7,0.2L287,132.2z M287.3,133.7l0.7-0.2l1,3.8l-0.7,0.2L287.3,133.7z"/>
		<path class="st8" d="M288.8,132.1l0.7-0.2l0.3,1.1l0.6-0.2l0.1,0.5l-0.6,0.2l0.7,2.5c0,0.1,0.1,0.2,0.2,0.2c0.1,0,0.1,0,0.3,0
			c0,0,0.1,0,0.1,0s0.1,0,0.1,0l0.1,0.5c-0.1,0-0.1,0.1-0.2,0.1c-0.1,0-0.2,0.1-0.3,0.1c-0.3,0.1-0.5,0.1-0.7-0.1
			c-0.1-0.1-0.3-0.3-0.3-0.6l-0.7-2.5l-0.5,0.1l-0.1-0.5l0.5-0.1L288.8,132.1z"/>
		<path class="st8" d="M293,130.9c0.1-0.3,0.4-0.4,0.8-0.6c0,0,0.1,0,0.1,0c0,0,0.1,0,0.1,0l0.2,0.6c-0.1,0-0.1,0-0.1,0
			c0,0-0.1,0-0.1,0c-0.2,0.1-0.3,0.1-0.3,0.2c0,0.1,0,0.4,0.1,0.8l0.6-0.2l0.1,0.5l-0.6,0.2l0.9,3.3l-0.6,0.2l-0.9-3.3l-0.5,0.1
			l-0.1-0.5l0.5-0.1l-0.2-0.6C293,131.3,293,131,293,130.9z"/>
		<path class="st8" d="M295.1,131.6l0.6-0.2l0.2,0.7c0-0.1,0.1-0.3,0.2-0.6c0.1-0.2,0.3-0.4,0.6-0.5c0,0,0,0,0.1,0c0,0,0.1,0,0.2,0
			l0.2,0.7c0,0-0.1,0-0.1,0c0,0-0.1,0-0.1,0c-0.3,0.1-0.5,0.3-0.7,0.5c-0.1,0.3-0.1,0.5-0.1,0.8l0.6,2.2l-0.6,0.2L295.1,131.6z"/>
		<path class="st8" d="M300.4,130.6c0.4,0.2,0.7,0.7,0.9,1.3c0.2,0.6,0.2,1.2,0,1.7c-0.2,0.5-0.6,0.8-1.2,1c-0.5,0.1-1,0.1-1.4-0.2
			c-0.4-0.3-0.7-0.7-0.8-1.3c-0.2-0.6-0.1-1.2,0.1-1.7c0.2-0.5,0.6-0.8,1.2-0.9C299.5,130.3,300,130.4,300.4,130.6z M300.7,133.2
			c0.1-0.4,0.1-0.7-0.1-1.1c-0.1-0.4-0.2-0.6-0.4-0.8c-0.3-0.3-0.6-0.4-1.1-0.3c-0.4,0.1-0.6,0.3-0.7,0.7c-0.1,0.3-0.1,0.7,0,1.2
			c0.1,0.4,0.3,0.7,0.5,0.9c0.3,0.2,0.6,0.3,1,0.2C300.4,133.9,300.6,133.6,300.7,133.2z"/>
		<path class="st8" d="M301.6,129.9l0.6-0.2l0.1,0.5c0.1-0.2,0.2-0.4,0.3-0.5c0.2-0.2,0.4-0.3,0.7-0.4c0.3-0.1,0.6-0.1,0.8,0
			c0.1,0.1,0.3,0.2,0.4,0.3c0.1-0.2,0.2-0.4,0.4-0.6c0.2-0.2,0.4-0.3,0.6-0.3c0.5-0.1,0.9,0,1.2,0.3c0.2,0.2,0.3,0.4,0.4,0.8
			l0.7,2.6l-0.7,0.2l-0.7-2.7c-0.1-0.3-0.2-0.4-0.3-0.5c-0.2-0.1-0.3-0.1-0.5,0c-0.3,0.1-0.4,0.2-0.6,0.4c-0.1,0.2-0.2,0.5,0,0.9
			l0.6,2.2l-0.7,0.2l-0.7-2.5c-0.1-0.3-0.2-0.4-0.2-0.5c-0.1-0.2-0.4-0.2-0.6-0.1c-0.2,0.1-0.4,0.2-0.6,0.5c-0.1,0.2-0.2,0.6,0,1.1
			l0.5,2l-0.6,0.2L301.6,129.9z"/>
		<path class="st8" d="M309.4,126.2l0.6-0.2l0.5,2c0.1-0.2,0.2-0.4,0.3-0.5c0.2-0.2,0.4-0.3,0.7-0.4c0.6-0.1,1-0.1,1.3,0.3
			c0.2,0.2,0.3,0.5,0.4,0.8l0.7,2.5l-0.7,0.2l-0.6-2.4c-0.1-0.3-0.2-0.5-0.3-0.6c-0.2-0.2-0.4-0.2-0.7-0.1c-0.3,0.1-0.5,0.2-0.7,0.5
			c-0.2,0.2-0.2,0.6,0,1.1l0.5,2l-0.6,0.2L309.4,126.2z"/>
		<path class="st8" d="M316.7,126.2c0.4,0.2,0.7,0.7,0.9,1.3c0.2,0.6,0.2,1.2,0,1.7c-0.2,0.5-0.6,0.8-1.2,1c-0.5,0.1-1,0.1-1.4-0.2
			c-0.4-0.3-0.7-0.7-0.8-1.3c-0.2-0.6-0.1-1.2,0.1-1.7c0.2-0.5,0.6-0.8,1.2-0.9C315.8,125.9,316.3,126,316.7,126.2z M317,128.9
			c0.1-0.4,0.1-0.7-0.1-1.1c-0.1-0.4-0.2-0.6-0.4-0.8c-0.3-0.3-0.6-0.4-1.1-0.3c-0.4,0.1-0.6,0.3-0.7,0.7c-0.1,0.3-0.1,0.7,0,1.2
			c0.1,0.4,0.3,0.7,0.5,0.9c0.2,0.2,0.6,0.3,1,0.2C316.7,129.5,316.9,129.3,317,128.9z"/>
		<path class="st8" d="M317.9,125.5l0.6-0.2l0.1,0.5c0.1-0.2,0.2-0.4,0.3-0.5c0.2-0.2,0.4-0.3,0.7-0.4c0.3-0.1,0.6-0.1,0.8,0
			c0.1,0.1,0.3,0.2,0.4,0.3c0.1-0.2,0.2-0.4,0.4-0.6c0.2-0.2,0.4-0.3,0.6-0.3c0.5-0.1,0.9,0,1.2,0.3c0.2,0.2,0.3,0.4,0.4,0.8
			l0.7,2.6l-0.7,0.2l-0.7-2.7c-0.1-0.3-0.2-0.4-0.3-0.5c-0.2-0.1-0.3-0.1-0.5,0c-0.3,0.1-0.4,0.2-0.6,0.4c-0.1,0.2-0.2,0.5,0,0.9
			l0.6,2.2l-0.7,0.2l-0.7-2.5c-0.1-0.3-0.2-0.4-0.2-0.5c-0.1-0.2-0.4-0.2-0.6-0.1c-0.2,0.1-0.4,0.2-0.6,0.5c-0.1,0.2-0.2,0.6,0,1.1
			l0.5,2l-0.6,0.2L317.9,125.5z"/>
		<path class="st8" d="M326.4,123.3c0.3,0.1,0.5,0.2,0.7,0.3c0.2,0.2,0.3,0.4,0.4,0.6c0.1,0.2,0.2,0.4,0.3,0.8l-2.8,0.7
			c0.1,0.4,0.3,0.7,0.5,0.9c0.2,0.2,0.5,0.2,0.9,0.1c0.3-0.1,0.6-0.3,0.7-0.5c0.1-0.2,0.1-0.3,0.1-0.5l0.6-0.2c0,0.1,0,0.3,0,0.5
			c0,0.2-0.1,0.4-0.2,0.5c-0.1,0.2-0.3,0.4-0.6,0.6c-0.1,0.1-0.3,0.1-0.5,0.2c-0.5,0.1-0.9,0.1-1.3-0.2c-0.4-0.3-0.7-0.7-0.9-1.3
			c-0.2-0.6-0.1-1.2,0.1-1.6c0.2-0.5,0.6-0.8,1.1-0.9C325.8,123.3,326.1,123.3,326.4,123.3z M327,124.8c-0.1-0.3-0.2-0.5-0.4-0.6
			c-0.3-0.3-0.6-0.3-1-0.2c-0.3,0.1-0.5,0.3-0.7,0.5c-0.1,0.3-0.2,0.6-0.1,0.9L327,124.8z"/>
		<path class="st8" d="M329.1,125.8l0.8-0.2l0.2,0.8l-0.7,0.2L329.1,125.8z"/>
	</g>
</g>
<g>
	
		<linearGradient id="SVGID_4_" gradientUnits="userSpaceOnUse" x1="248.3301" y1="531.8188" x2="340.5116" y2="531.8188" gradientTransform="matrix(0.9661 -0.2581 0.2581 0.9661 -109.5552 -212.1255)">
		<stop  offset="0" style="stop-color:#8FCEEA"/>
		<stop  offset="0.5" style="stop-color:#67BEE1"/>
		<stop  offset="0.7594" style="stop-color:#39AFD7"/>
		<stop  offset="1" style="stop-color:#00A4CF"/>
	</linearGradient>
	<path class="st14" d="M342.9,190.9l-74.7,20c-4,1.1-6.3,5-5.3,8.7l8,30.1c1,3.8,5,6,9,4.9l69.3-18.5c0.1,1.5,0.8,3.8-4.1,7.5
		l2.3-0.6c3.7-1,6.2-4.4,6-8l1.4-0.4c4-1.1,6.3-5,5.3-8.7l-8-30.1C350.9,192,346.8,189.8,342.9,190.9z"/>
	<g>
		<path class="st15" d="M273.8,221.7l0.8-0.2l3.3,4.8l-0.8,0.2l-1-1.4l-2.1,0.6l-0.1,1.7l-0.7,0.2L273.8,221.7z M275.8,224.5
			l-1.4-2.1l-0.2,2.5L275.8,224.5z"/>
		<path class="st15" d="M277.4,222.3l0.6-0.2l0.1,0.5c0.1-0.3,0.3-0.5,0.4-0.6c0.2-0.2,0.4-0.3,0.6-0.3c0.5-0.1,1-0.1,1.3,0.3
			c0.2,0.2,0.3,0.5,0.4,0.8l0.7,2.5l-0.7,0.2l-0.6-2.4c-0.1-0.2-0.1-0.4-0.3-0.5c-0.2-0.2-0.4-0.3-0.7-0.2c-0.2,0-0.3,0.1-0.4,0.1
			c-0.2,0.1-0.3,0.2-0.4,0.4c-0.1,0.2-0.1,0.3-0.1,0.4s0,0.3,0.1,0.6l0.5,2l-0.6,0.2L277.4,222.3z"/>
		<path class="st15" d="M283.9,220.5l0.7-0.2c0,0.3-0.1,0.9-0.2,1.8c-0.1,0.7-0.1,1.3-0.2,1.8c-0.1,1.1-0.2,1.7-0.3,2
			c-0.1,0.3-0.3,0.4-0.7,0.5c-0.1,0-0.2,0-0.2,0c-0.1,0-0.1,0-0.2,0l-0.2-0.6c0.1,0,0.2,0,0.3,0c0.1,0,0.1,0,0.1,0
			c0.1,0,0.2-0.1,0.2-0.1c0-0.1,0.1-0.1,0.1-0.2c0,0,0-0.1,0-0.3c0-0.2,0-0.3,0.1-0.4l-2.5-3.6l0.7-0.2l1.9,2.8L283.9,220.5z"/>
		<path class="st15" d="M287.1,218.5l0.7-0.2l0.3,1.1l0.6-0.2l0.1,0.5l-0.6,0.2l0.7,2.5c0,0.1,0.1,0.2,0.2,0.2c0.1,0,0.1,0,0.3,0
			c0,0,0.1,0,0.1,0s0.1,0,0.1,0l0.1,0.5c-0.1,0-0.1,0.1-0.2,0.1c-0.1,0-0.2,0.1-0.3,0.1c-0.3,0.1-0.5,0.1-0.7-0.1
			c-0.1-0.1-0.3-0.3-0.3-0.6l-0.7-2.5l-0.5,0.1l-0.1-0.5l0.5-0.1L287.1,218.5z"/>
		<path class="st15" d="M288.9,217.7l0.7-0.2l0.2,0.7l-0.7,0.2L288.9,217.7z M289.3,219.1l0.7-0.2l1,3.8l-0.7,0.2L289.3,219.1z"/>
		<path class="st15" d="M290.9,218.7l0.6-0.2l0.1,0.5c0.1-0.2,0.2-0.4,0.3-0.5c0.2-0.2,0.4-0.3,0.7-0.4c0.3-0.1,0.6-0.1,0.8,0
			c0.1,0.1,0.3,0.2,0.4,0.3c0.1-0.2,0.2-0.4,0.4-0.6c0.2-0.2,0.4-0.3,0.6-0.3c0.5-0.1,0.9,0,1.2,0.3c0.2,0.2,0.3,0.4,0.4,0.8
			l0.7,2.6l-0.7,0.2l-0.7-2.7c-0.1-0.3-0.2-0.4-0.3-0.5c-0.2-0.1-0.3-0.1-0.5,0c-0.3,0.1-0.4,0.2-0.6,0.4c-0.1,0.2-0.2,0.5,0,0.9
			l0.6,2.2l-0.7,0.2l-0.7-2.5c-0.1-0.3-0.2-0.4-0.2-0.5c-0.1-0.2-0.4-0.2-0.6-0.1c-0.2,0.1-0.4,0.2-0.6,0.5c-0.1,0.2-0.2,0.6,0,1.1
			l0.5,2l-0.6,0.2L290.9,218.7z"/>
		<path class="st15" d="M299.4,216.5c0.3,0.1,0.5,0.2,0.7,0.3c0.2,0.2,0.3,0.4,0.4,0.6c0.1,0.2,0.2,0.4,0.3,0.8L298,219
			c0.1,0.4,0.3,0.7,0.5,0.9c0.2,0.2,0.5,0.2,0.9,0.1c0.3-0.1,0.6-0.3,0.7-0.5c0.1-0.2,0.1-0.3,0.1-0.5l0.6-0.2c0,0.1,0,0.3,0,0.5
			c0,0.2-0.1,0.4-0.2,0.5c-0.1,0.2-0.3,0.4-0.6,0.6c-0.1,0.1-0.3,0.1-0.5,0.2c-0.5,0.1-0.9,0.1-1.3-0.2c-0.4-0.3-0.7-0.7-0.9-1.3
			c-0.2-0.6-0.1-1.2,0.1-1.6c0.2-0.5,0.6-0.8,1.1-0.9C298.8,216.5,299.1,216.5,299.4,216.5z M300,218c-0.1-0.3-0.2-0.5-0.4-0.6
			c-0.3-0.3-0.6-0.3-1-0.2c-0.3,0.1-0.5,0.3-0.7,0.5c-0.1,0.3-0.2,0.6-0.1,0.9L300,218z"/>
		<path class="st15" d="M302.1,219l0.8-0.2l0.2,0.8l-0.7,0.2L302.1,219z"/>
		<path class="st15" d="M305,213.4l0.7-0.2l1.4,5.3l-0.7,0.2L305,213.4z"/>
		<path class="st15" d="M307.4,214.4c0.1-0.1,0.2-0.2,0.2-0.3c0-0.1,0-0.3,0-0.5c0,0,0,0,0,0c0,0,0,0,0,0l-0.4,0.1l-0.2-0.8l0.8-0.2
			l0.2,0.7c0.1,0.3,0.1,0.6,0,0.8c-0.1,0.2-0.2,0.4-0.5,0.5L307.4,214.4z"/>
		<path class="st15" d="M308.5,212.4l0.6-0.2l1.4,5.3l-0.6,0.2L308.5,212.4z"/>
		<path class="st15" d="M310.1,212l0.6-0.2l1.4,5.3l-0.6,0.2L310.1,212z"/>
		<path class="st15" d="M314.1,212.5l0.6-0.2l0.1,0.5c0.1-0.2,0.2-0.4,0.3-0.5c0.2-0.2,0.4-0.3,0.7-0.4c0.4-0.1,0.8,0,1.2,0.2
			s0.7,0.7,0.8,1.3c0.2,0.8,0.2,1.5-0.2,2c-0.2,0.3-0.5,0.5-0.9,0.6c-0.3,0.1-0.5,0.1-0.8,0c-0.1,0-0.3-0.1-0.5-0.3l0.5,2l-0.6,0.2
			L314.1,212.5z M317.3,214.9c0.1-0.3,0.1-0.7,0-1.2c-0.1-0.3-0.2-0.6-0.3-0.8c-0.3-0.4-0.6-0.5-1.1-0.4c-0.4,0.1-0.7,0.4-0.7,0.9
			c0,0.3,0,0.6,0.1,0.9c0.1,0.3,0.2,0.5,0.3,0.7c0.3,0.4,0.6,0.5,1.1,0.3C317,215.4,317.2,215.2,317.3,214.9z"/>
		<path class="st15" d="M318.2,211.4l0.6-0.2l0.2,0.7c0-0.1,0.1-0.3,0.2-0.6c0.1-0.2,0.3-0.4,0.6-0.5c0,0,0,0,0.1,0c0,0,0.1,0,0.2,0
			l0.2,0.7c0,0-0.1,0-0.1,0c0,0-0.1,0-0.1,0c-0.3,0.1-0.5,0.3-0.7,0.5c-0.1,0.3-0.1,0.5-0.1,0.8l0.6,2.2l-0.6,0.2L318.2,211.4z"/>
		<path class="st15" d="M323.5,210.4c0.4,0.2,0.7,0.7,0.9,1.3c0.2,0.6,0.2,1.2,0,1.7c-0.2,0.5-0.6,0.8-1.2,1c-0.5,0.1-1,0.1-1.4-0.2
			c-0.4-0.3-0.7-0.7-0.8-1.3c-0.2-0.6-0.1-1.2,0.1-1.7c0.2-0.5,0.6-0.8,1.2-0.9C322.6,210.1,323.1,210.1,323.5,210.4z M323.8,213
			c0.1-0.4,0.1-0.7-0.1-1.1c-0.1-0.4-0.2-0.6-0.4-0.8c-0.3-0.3-0.6-0.4-1.1-0.3c-0.4,0.1-0.6,0.3-0.7,0.7c-0.1,0.3-0.1,0.7,0,1.2
			c0.1,0.4,0.3,0.7,0.5,0.9s0.6,0.3,1,0.2C323.5,213.6,323.7,213.4,323.8,213z"/>
		<path class="st15" d="M326.9,209.2c0.1,0.1,0.3,0.1,0.5,0.3l-0.1-0.5l0.6-0.2l0.9,3.5c0.1,0.5,0.2,0.9,0.1,1.2
			c-0.1,0.6-0.6,1-1.3,1.2c-0.4,0.1-0.8,0.1-1.1,0c-0.3-0.1-0.6-0.4-0.7-0.7l0.7-0.2c0.1,0.2,0.2,0.3,0.3,0.3c0.2,0.1,0.4,0.1,0.7,0
			c0.5-0.1,0.8-0.4,0.8-0.8c0-0.2,0-0.6-0.2-1.1c-0.1,0.2-0.2,0.4-0.3,0.6c-0.2,0.1-0.4,0.3-0.7,0.3c-0.4,0.1-0.8,0.1-1.2-0.2
			c-0.4-0.2-0.7-0.7-0.9-1.3c-0.2-0.6-0.2-1.2,0.1-1.6c0.2-0.4,0.5-0.7,1-0.8C326.4,209.1,326.6,209.1,326.9,209.2z M327.2,209.9
			c-0.3-0.2-0.5-0.2-0.8-0.1c-0.5,0.1-0.7,0.4-0.8,0.9c0,0.2,0,0.6,0.1,0.9c0.1,0.4,0.3,0.7,0.5,0.9c0.2,0.2,0.5,0.2,0.8,0.1
			c0.5-0.1,0.7-0.4,0.8-0.9c0-0.3,0-0.6-0.1-0.9C327.6,210.4,327.4,210.1,327.2,209.9z"/>
		<path class="st15" d="M328.8,208.5l0.6-0.2l0.2,0.7c0-0.1,0.1-0.3,0.2-0.6s0.3-0.4,0.6-0.5c0,0,0,0,0.1,0c0,0,0.1,0,0.2,0l0.2,0.7
			c0,0-0.1,0-0.1,0c0,0-0.1,0-0.1,0c-0.3,0.1-0.5,0.3-0.7,0.5c-0.1,0.3-0.1,0.5-0.1,0.8l0.6,2.2l-0.6,0.2L328.8,208.5z"/>
		<path class="st15" d="M333.7,208.9c0.1-0.1,0.2-0.1,0.2-0.3c0-0.1,0-0.2,0-0.3c-0.1-0.2-0.2-0.4-0.4-0.4c-0.2-0.1-0.4,0-0.7,0
			c-0.3,0.1-0.6,0.2-0.6,0.5c-0.1,0.1-0.1,0.3,0,0.5l-0.6,0.2c-0.1-0.5,0-0.8,0.2-1.1c0.2-0.3,0.6-0.4,1-0.6c0.5-0.1,0.8-0.1,1.2,0
			c0.3,0.1,0.5,0.3,0.6,0.7l0.6,2.2c0,0.1,0,0.1,0.1,0.1s0.1,0,0.2,0c0,0,0.1,0,0.1,0c0,0,0.1,0,0.1,0l0.1,0.5
			c-0.1,0.1-0.2,0.1-0.2,0.1c-0.1,0-0.1,0-0.2,0.1c-0.2,0.1-0.4,0-0.5-0.1c-0.1-0.1-0.1-0.2-0.2-0.3c-0.1,0.2-0.2,0.4-0.4,0.6
			c-0.2,0.2-0.5,0.3-0.8,0.4c-0.4,0.1-0.7,0.1-1-0.1c-0.3-0.2-0.5-0.4-0.6-0.7c-0.1-0.4-0.1-0.7,0.1-0.9c0.2-0.3,0.4-0.5,0.8-0.6
			L333.7,208.9z M332.8,211c0.2,0.1,0.3,0.1,0.5,0c0.2-0.1,0.4-0.2,0.6-0.3c0.3-0.3,0.4-0.6,0.3-1l-0.1-0.5
			c-0.1,0.1-0.2,0.1-0.3,0.2c-0.1,0.1-0.2,0.1-0.3,0.2l-0.4,0.2c-0.2,0.1-0.4,0.2-0.5,0.3c-0.2,0.2-0.2,0.4-0.2,0.6
			C332.5,210.8,332.6,210.9,332.8,211z"/>
		<path class="st15" d="M335.3,206.8l0.6-0.2l0.1,0.5c0.1-0.2,0.2-0.4,0.3-0.5c0.2-0.2,0.4-0.3,0.7-0.4c0.3-0.1,0.6-0.1,0.8,0
			c0.1,0.1,0.3,0.2,0.4,0.3c0.1-0.2,0.2-0.4,0.4-0.6c0.2-0.2,0.4-0.3,0.6-0.3c0.5-0.1,0.9,0,1.2,0.3c0.2,0.2,0.3,0.4,0.4,0.8
			l0.7,2.6l-0.7,0.2l-0.7-2.7c-0.1-0.3-0.2-0.4-0.3-0.5c-0.2-0.1-0.3-0.1-0.5,0c-0.3,0.1-0.4,0.2-0.6,0.4c-0.1,0.2-0.2,0.5,0,0.9
			l0.6,2.2l-0.7,0.2l-0.7-2.5c-0.1-0.3-0.2-0.4-0.2-0.5c-0.1-0.2-0.4-0.2-0.6-0.1c-0.2,0.1-0.4,0.2-0.6,0.5c-0.1,0.2-0.2,0.6,0,1.1
			l0.5,2l-0.6,0.2L335.3,206.8z"/>
		<path class="st15" d="M343.1,203.2l0.7-0.2l0.2,0.7l-0.7,0.2L343.1,203.2z M343.5,204.6l0.7-0.2l1,3.8l-0.7,0.2L343.5,204.6z"/>
		<path class="st15" d="M344.9,203.1l0.7-0.2l0.3,1.1l0.6-0.2l0.1,0.5l-0.6,0.2l0.7,2.5c0,0.1,0.1,0.2,0.2,0.2c0.1,0,0.1,0,0.3,0
			c0,0,0.1,0,0.1,0c0,0,0.1,0,0.1,0l0.1,0.5c-0.1,0-0.1,0.1-0.2,0.1c-0.1,0-0.2,0.1-0.3,0.1c-0.3,0.1-0.5,0.1-0.7-0.1
			c-0.1-0.1-0.3-0.3-0.3-0.6l-0.7-2.5l-0.5,0.1l-0.1-0.5l0.5-0.1L344.9,203.1z"/>
		<path class="st15" d="M274.5,230.9l0.7-0.2l0.2,0.7l-0.7,0.2L274.5,230.9z M274.9,232.4l0.7-0.2l1,3.8l-0.7,0.2L274.9,232.4z"/>
		<path class="st15" d="M276.5,231.9l0.6-0.2l0.1,0.5c0.1-0.3,0.3-0.5,0.4-0.6c0.2-0.2,0.4-0.3,0.6-0.3c0.5-0.1,1-0.1,1.3,0.3
			c0.2,0.2,0.3,0.5,0.4,0.8l0.7,2.5l-0.7,0.2l-0.6-2.4c-0.1-0.2-0.1-0.4-0.3-0.5c-0.2-0.2-0.4-0.3-0.7-0.2c-0.2,0-0.3,0.1-0.4,0.1
			c-0.2,0.1-0.3,0.2-0.4,0.4c-0.1,0.2-0.1,0.3-0.1,0.4s0,0.3,0.1,0.6l0.5,2l-0.6,0.2L276.5,231.9z"/>
		<path class="st15" d="M280.5,229.7l0.7-0.2l0.3,1.1l0.6-0.2l0.1,0.5l-0.6,0.2l0.7,2.5c0,0.1,0.1,0.2,0.2,0.2c0.1,0,0.1,0,0.3,0
			c0,0,0.1,0,0.1,0c0,0,0.1,0,0.1,0l0.1,0.5c-0.1,0-0.1,0.1-0.2,0.1c-0.1,0-0.2,0.1-0.3,0.1c-0.3,0.1-0.5,0.1-0.7-0.1
			c-0.1-0.1-0.3-0.3-0.3-0.6l-0.7-2.5l-0.5,0.1l-0.1-0.5l0.5-0.1L280.5,229.7z"/>
		<path class="st15" d="M285.5,229.9c0.4,0.2,0.7,0.7,0.9,1.3c0.2,0.6,0.2,1.2,0,1.7c-0.2,0.5-0.6,0.8-1.2,1c-0.5,0.1-1,0.1-1.4-0.2
			c-0.4-0.3-0.7-0.7-0.8-1.3c-0.2-0.6-0.1-1.2,0.1-1.7c0.2-0.5,0.6-0.8,1.2-0.9C284.6,229.7,285.1,229.7,285.5,229.9z M285.8,232.6
			c0.1-0.4,0.1-0.7-0.1-1.1c-0.1-0.4-0.2-0.6-0.4-0.8c-0.3-0.3-0.6-0.4-1.1-0.3c-0.4,0.1-0.6,0.3-0.7,0.7c-0.1,0.3-0.1,0.7,0,1.2
			c0.1,0.4,0.3,0.7,0.5,0.9c0.2,0.2,0.6,0.3,1,0.2C285.5,233.2,285.7,233,285.8,232.6z"/>
		<path class="st15" d="M291.6,228.3c0.4,0.2,0.7,0.7,0.9,1.3c0.2,0.6,0.2,1.2,0,1.7c-0.2,0.5-0.6,0.8-1.2,1c-0.5,0.1-1,0.1-1.4-0.2
			c-0.4-0.3-0.7-0.7-0.8-1.3c-0.2-0.6-0.1-1.2,0.1-1.7c0.2-0.5,0.6-0.8,1.2-0.9C290.8,228,291.2,228.1,291.6,228.3z M291.9,231
			c0.1-0.4,0.1-0.7-0.1-1.1c-0.1-0.4-0.2-0.6-0.4-0.8c-0.3-0.3-0.6-0.4-1.1-0.3c-0.4,0.1-0.6,0.3-0.7,0.7c-0.1,0.3-0.1,0.7,0,1.2
			c0.1,0.4,0.3,0.7,0.5,0.9c0.2,0.2,0.6,0.3,1,0.2C291.6,231.6,291.9,231.3,291.9,231z"/>
		<path class="st15" d="M293.5,227.4l0.7,2.5c0.1,0.2,0.1,0.3,0.2,0.5c0.2,0.2,0.4,0.3,0.7,0.2c0.4-0.1,0.7-0.4,0.7-0.8
			c0-0.2,0-0.5-0.1-0.9l-0.5-1.9l0.6-0.2l1,3.8l-0.6,0.2l-0.1-0.6c0,0.2-0.1,0.3-0.2,0.5c-0.2,0.3-0.5,0.4-0.8,0.5
			c-0.5,0.1-1,0.1-1.2-0.3c-0.2-0.2-0.3-0.4-0.4-0.7l-0.7-2.6L293.5,227.4z"/>
		<path class="st15" d="M296.9,226.5l0.6-0.2l0.2,0.7c0-0.1,0.1-0.3,0.2-0.6s0.3-0.4,0.6-0.5c0,0,0,0,0.1,0c0,0,0.1,0,0.2,0l0.2,0.7
			c0,0-0.1,0-0.1,0c0,0-0.1,0-0.1,0c-0.3,0.1-0.5,0.3-0.7,0.5c-0.1,0.3-0.1,0.5-0.1,0.8l0.6,2.2l-0.6,0.2L296.9,226.5z"/>
		<path class="st15" d="M303.6,224.9c0.1,0.1,0.3,0.1,0.5,0.3l-0.1-0.5l0.6-0.2l0.9,3.5c0.1,0.5,0.2,0.9,0.1,1.2
			c-0.1,0.6-0.6,1-1.3,1.2c-0.4,0.1-0.8,0.1-1.1,0c-0.3-0.1-0.6-0.4-0.7-0.7l0.7-0.2c0.1,0.2,0.2,0.3,0.3,0.3c0.2,0.1,0.4,0.1,0.7,0
			c0.5-0.1,0.8-0.4,0.8-0.8c0-0.2,0-0.6-0.2-1.1c-0.1,0.2-0.2,0.4-0.3,0.6c-0.2,0.1-0.4,0.3-0.7,0.3c-0.4,0.1-0.8,0.1-1.2-0.2
			c-0.4-0.2-0.7-0.7-0.9-1.3c-0.2-0.6-0.2-1.2,0.1-1.6c0.2-0.4,0.5-0.7,1-0.8C303,224.8,303.3,224.8,303.6,224.9z M303.8,225.5
			c-0.3-0.2-0.5-0.2-0.8-0.1c-0.5,0.1-0.7,0.4-0.8,0.9c0,0.2,0,0.6,0.1,0.9c0.1,0.4,0.3,0.7,0.5,0.9s0.5,0.2,0.8,0.1
			c0.5-0.1,0.7-0.4,0.8-0.9c0-0.3,0-0.6-0.1-0.9C304.3,226.1,304.1,225.7,303.8,225.5z"/>
		<path class="st15" d="M305.5,224.2l0.6-0.2l0.2,0.7c0-0.1,0.1-0.3,0.2-0.6s0.3-0.4,0.6-0.5c0,0,0,0,0.1,0c0,0,0.1,0,0.2,0l0.2,0.7
			c0,0-0.1,0-0.1,0c0,0-0.1,0-0.1,0c-0.3,0.1-0.5,0.3-0.7,0.5c-0.1,0.3-0.1,0.5-0.1,0.8l0.6,2.2l-0.6,0.2L305.5,224.2z"/>
		<path class="st15" d="M310.8,223.2c0.4,0.2,0.7,0.7,0.9,1.3c0.2,0.6,0.2,1.2,0,1.7c-0.2,0.5-0.6,0.8-1.2,1c-0.5,0.1-1,0.1-1.4-0.2
			c-0.4-0.3-0.7-0.7-0.8-1.3c-0.2-0.6-0.1-1.2,0.1-1.7s0.6-0.8,1.2-0.9C309.9,222.9,310.4,223,310.8,223.2z M311.1,225.8
			c0.1-0.4,0.1-0.7-0.1-1.1c-0.1-0.4-0.2-0.6-0.4-0.8c-0.3-0.3-0.6-0.4-1.1-0.3c-0.4,0.1-0.6,0.3-0.7,0.7c-0.1,0.3-0.1,0.7,0,1.2
			c0.1,0.4,0.3,0.7,0.5,0.9c0.2,0.2,0.6,0.3,1,0.2C310.8,226.4,311,226.2,311.1,225.8z"/>
		<path class="st15" d="M312.6,222.3l0.7,2.5c0.1,0.2,0.1,0.3,0.2,0.5c0.2,0.2,0.4,0.3,0.7,0.2c0.4-0.1,0.7-0.4,0.7-0.8
			c0-0.2,0-0.5-0.1-0.9l-0.5-1.9l0.6-0.2l1,3.8l-0.6,0.2l-0.1-0.6c0,0.2-0.1,0.3-0.2,0.4c-0.2,0.3-0.5,0.4-0.8,0.5
			c-0.5,0.1-1,0.1-1.2-0.3c-0.2-0.2-0.3-0.4-0.4-0.7l-0.7-2.6L312.6,222.3z"/>
		<path class="st15" d="M316,221.4l0.6-0.2l0.1,0.5c0.1-0.2,0.2-0.4,0.3-0.5c0.2-0.2,0.4-0.3,0.7-0.4c0.4-0.1,0.9,0,1.2,0.2
			c0.4,0.3,0.7,0.7,0.8,1.3c0.2,0.8,0.2,1.5-0.2,2c-0.2,0.3-0.5,0.5-0.9,0.6c-0.3,0.1-0.6,0.1-0.8,0c-0.1,0-0.3-0.1-0.5-0.3l0.5,2
			l-0.6,0.2L316,221.4z M319.3,223.8c0.1-0.3,0.1-0.7,0-1.2c-0.1-0.3-0.2-0.6-0.3-0.8c-0.3-0.4-0.6-0.5-1.1-0.4
			c-0.4,0.1-0.7,0.4-0.7,0.9c0,0.3,0,0.6,0.1,0.9c0.1,0.3,0.2,0.5,0.3,0.7c0.3,0.4,0.6,0.5,1.1,0.3
			C318.9,224.3,319.1,224.1,319.3,223.8z"/>
		<path class="st15" d="M324.8,219.3c0.3,0.1,0.6,0.5,0.8,1l-0.6,0.2c-0.1-0.2-0.2-0.4-0.4-0.5c-0.2-0.1-0.4-0.1-0.7-0.1
			c-0.4,0.1-0.7,0.4-0.7,0.8c0,0.3,0,0.6,0.1,1c0.1,0.4,0.3,0.7,0.5,0.9c0.2,0.2,0.5,0.3,0.9,0.2c0.3-0.1,0.5-0.2,0.6-0.4
			c0.1-0.2,0.2-0.5,0.1-0.8l0.6-0.2c0.1,0.5,0,0.9-0.2,1.3c-0.2,0.3-0.6,0.5-1,0.6c-0.5,0.1-1,0.1-1.3-0.2c-0.4-0.3-0.7-0.7-0.8-1.3
			c-0.2-0.7-0.2-1.2,0.1-1.7c0.2-0.5,0.6-0.8,1.1-0.9C324.1,219.1,324.5,219.1,324.8,219.3z"/>
		<path class="st15" d="M328.3,219.7c0.1-0.1,0.2-0.1,0.2-0.3c0-0.1,0-0.2,0-0.3c-0.1-0.2-0.2-0.4-0.4-0.4c-0.2-0.1-0.4,0-0.7,0
			c-0.3,0.1-0.5,0.2-0.6,0.5c-0.1,0.1-0.1,0.3,0,0.5l-0.6,0.2c-0.1-0.5,0-0.8,0.2-1.1s0.6-0.4,1-0.6c0.5-0.1,0.8-0.1,1.2,0
			c0.3,0.1,0.5,0.3,0.6,0.7l0.6,2.2c0,0.1,0,0.1,0.1,0.1c0,0,0.1,0,0.2,0c0,0,0.1,0,0.1,0c0,0,0.1,0,0.1,0l0.1,0.5
			c-0.1,0.1-0.2,0.1-0.2,0.1c-0.1,0-0.1,0-0.2,0.1c-0.2,0.1-0.4,0-0.5-0.1c-0.1-0.1-0.1-0.2-0.2-0.3c-0.1,0.2-0.2,0.4-0.4,0.6
			c-0.2,0.2-0.5,0.3-0.8,0.4c-0.4,0.1-0.7,0.1-1-0.1c-0.3-0.2-0.5-0.4-0.6-0.7c-0.1-0.4-0.1-0.7,0.1-0.9c0.2-0.3,0.4-0.5,0.8-0.6
			L328.3,219.7z M327.4,221.8c0.2,0.1,0.3,0.1,0.5,0c0.2-0.1,0.4-0.2,0.6-0.3c0.3-0.3,0.4-0.6,0.3-1l-0.1-0.5
			c-0.1,0.1-0.2,0.1-0.3,0.2s-0.2,0.1-0.3,0.2l-0.4,0.2c-0.2,0.1-0.4,0.2-0.5,0.3c-0.2,0.2-0.2,0.4-0.2,0.6
			C327.2,221.6,327.3,221.8,327.4,221.8z"/>
		<path class="st15" d="M329.6,216.2l0.6-0.2l1.4,5.3l-0.6,0.2L329.6,216.2z"/>
		<path class="st15" d="M334,216.7c0.3,0.1,0.5,0.2,0.7,0.3c0.2,0.2,0.3,0.4,0.4,0.6c0.1,0.2,0.2,0.4,0.3,0.8l-2.8,0.7
			c0.1,0.4,0.3,0.7,0.5,0.9c0.2,0.2,0.5,0.2,0.9,0.1c0.3-0.1,0.6-0.3,0.7-0.5c0.1-0.2,0.1-0.3,0.1-0.5l0.6-0.2c0,0.1,0,0.3,0,0.5
			c0,0.2-0.1,0.4-0.2,0.5c-0.1,0.2-0.3,0.4-0.6,0.6c-0.1,0.1-0.3,0.1-0.5,0.2c-0.5,0.1-0.9,0.1-1.3-0.2c-0.4-0.3-0.7-0.7-0.9-1.3
			c-0.2-0.6-0.1-1.2,0.1-1.6c0.2-0.5,0.6-0.8,1.1-0.9C333.4,216.7,333.7,216.6,334,216.7z M334.6,218.1c-0.1-0.3-0.2-0.5-0.4-0.6
			c-0.3-0.3-0.6-0.3-1-0.2c-0.3,0.1-0.5,0.3-0.7,0.5c-0.1,0.3-0.2,0.6-0.1,0.9L334.6,218.1z"/>
		<path class="st15" d="M335.7,216.1l0.6-0.2l0.1,0.5c0.1-0.3,0.3-0.5,0.4-0.6s0.4-0.3,0.6-0.3c0.5-0.1,1-0.1,1.3,0.3
			c0.2,0.2,0.3,0.5,0.4,0.8l0.7,2.5l-0.7,0.2l-0.6-2.4c-0.1-0.2-0.1-0.4-0.3-0.5c-0.2-0.2-0.4-0.3-0.7-0.2c-0.2,0-0.3,0.1-0.4,0.1
			c-0.2,0.1-0.3,0.2-0.4,0.4c-0.1,0.2-0.1,0.3-0.1,0.4c0,0.1,0,0.3,0.1,0.6l0.5,2l-0.6,0.2L335.7,216.1z"/>
		<path class="st15" d="M341.9,214.6c0.1,0,0.3,0.1,0.5,0.3l-0.5-1.9l0.6-0.2l1.4,5.3l-0.6,0.2l-0.1-0.5c-0.1,0.3-0.2,0.5-0.4,0.7
			c-0.2,0.2-0.4,0.3-0.7,0.3c-0.4,0.1-0.8,0-1.2-0.2c-0.4-0.3-0.7-0.7-0.9-1.3c-0.1-0.6-0.1-1.1,0-1.6c0.2-0.5,0.5-0.8,1.1-0.9
			C341.4,214.5,341.6,214.5,341.9,214.6z M341.2,217.9c0.2,0.2,0.6,0.3,0.9,0.2c0.3-0.1,0.5-0.3,0.6-0.6c0.1-0.3,0.1-0.7,0-1.2
			c-0.1-0.5-0.3-0.8-0.6-1c-0.3-0.2-0.5-0.2-0.8-0.2c-0.3,0.1-0.6,0.3-0.7,0.6c-0.1,0.3-0.1,0.7,0,1.2
			C340.8,217.3,341,217.6,341.2,217.9z"/>
		<path class="st15" d="M346.3,214.9c0.1-0.1,0.2-0.1,0.2-0.3c0-0.1,0-0.2,0-0.3c-0.1-0.2-0.2-0.4-0.4-0.4c-0.2-0.1-0.4,0-0.7,0
			c-0.3,0.1-0.5,0.2-0.6,0.5c-0.1,0.1-0.1,0.3,0,0.5l-0.6,0.2c-0.1-0.5,0-0.8,0.2-1.1c0.2-0.3,0.6-0.4,0.9-0.6
			c0.5-0.1,0.8-0.1,1.2,0c0.3,0.1,0.5,0.3,0.6,0.7l0.6,2.2c0,0.1,0,0.1,0.1,0.1s0.1,0,0.2,0c0,0,0.1,0,0.1,0c0,0,0.1,0,0.1,0
			l0.1,0.5c-0.1,0.1-0.2,0.1-0.2,0.1c-0.1,0-0.1,0-0.2,0.1c-0.2,0.1-0.4,0-0.5-0.1c-0.1-0.1-0.1-0.2-0.2-0.3
			c-0.1,0.2-0.2,0.4-0.4,0.6c-0.2,0.2-0.5,0.3-0.8,0.4c-0.4,0.1-0.7,0.1-1-0.1c-0.3-0.2-0.5-0.4-0.6-0.7c-0.1-0.4-0.1-0.7,0.1-0.9
			c0.2-0.3,0.4-0.5,0.8-0.6L346.3,214.9z M345.4,217c0.2,0.1,0.3,0.1,0.5,0c0.2-0.1,0.4-0.2,0.6-0.3c0.3-0.3,0.4-0.6,0.3-1l-0.1-0.5
			c-0.1,0.1-0.2,0.1-0.3,0.2s-0.2,0.1-0.3,0.2l-0.4,0.2c-0.2,0.1-0.4,0.2-0.5,0.3c-0.2,0.2-0.2,0.4-0.2,0.6
			C345.1,216.8,345.2,217,345.4,217z"/>
		<path class="st15" d="M347.9,212.9l0.6-0.2l0.2,0.7c0-0.1,0.1-0.3,0.2-0.6c0.1-0.2,0.3-0.4,0.6-0.5c0,0,0,0,0.1,0c0,0,0.1,0,0.2,0
			l0.2,0.7c0,0-0.1,0-0.1,0c0,0-0.1,0-0.1,0c-0.3,0.1-0.5,0.3-0.7,0.5c-0.1,0.3-0.1,0.5-0.1,0.8l0.6,2.2l-0.6,0.2L347.9,212.9z"/>
		<path class="st15" d="M278.3,243.7c0.1,0.2,0.2,0.4,0.3,0.5c0.2,0.2,0.5,0.2,0.9,0.1c0.2-0.1,0.4-0.2,0.6-0.3
			c0.2-0.2,0.2-0.3,0.1-0.6c0-0.2-0.2-0.3-0.3-0.3c-0.1,0-0.3,0-0.6,0l-0.6,0c-0.4,0-0.6,0-0.8-0.1c-0.3-0.1-0.5-0.3-0.6-0.6
			c-0.1-0.4,0-0.7,0.2-1c0.2-0.3,0.5-0.5,1-0.6c0.6-0.2,1.1-0.1,1.4,0.2c0.2,0.2,0.4,0.4,0.4,0.6l-0.6,0.2c-0.1-0.1-0.1-0.3-0.3-0.4
			c-0.2-0.1-0.5-0.1-0.9,0c-0.2,0.1-0.4,0.2-0.5,0.3c-0.1,0.1-0.1,0.3-0.1,0.4c0,0.2,0.2,0.3,0.4,0.3c0.1,0,0.3,0,0.5,0l0.5,0
			c0.5,0,0.8,0,1,0.1c0.3,0.1,0.5,0.3,0.6,0.7c0.1,0.3,0,0.7-0.2,1c-0.2,0.3-0.6,0.5-1.1,0.7c-0.6,0.2-1,0.1-1.3-0.1
			c-0.3-0.2-0.5-0.5-0.6-0.9L278.3,243.7z"/>
		<path class="st15" d="M283.8,239.8c0.4,0.2,0.7,0.7,0.9,1.3c0.2,0.6,0.2,1.2,0,1.7c-0.2,0.5-0.6,0.8-1.2,1c-0.5,0.1-1,0.1-1.4-0.2
			c-0.4-0.3-0.7-0.7-0.8-1.3c-0.2-0.6-0.1-1.2,0.1-1.7c0.2-0.5,0.6-0.8,1.2-0.9C282.9,239.5,283.4,239.6,283.8,239.8z M284.1,242.5
			c0.1-0.4,0.1-0.7-0.1-1.1c-0.1-0.4-0.2-0.6-0.4-0.8c-0.3-0.3-0.6-0.4-1.1-0.3c-0.4,0.1-0.6,0.3-0.7,0.7c-0.1,0.3-0.1,0.7,0,1.2
			c0.1,0.4,0.3,0.7,0.5,0.9c0.2,0.2,0.6,0.3,1,0.2C283.8,243.1,284,242.9,284.1,242.5z"/>
		<path class="st15" d="M287,238.6l0.6-0.2l0.1,0.5c0.1-0.3,0.3-0.5,0.4-0.6c0.2-0.2,0.4-0.3,0.6-0.3c0.5-0.1,1-0.1,1.3,0.3
			c0.2,0.2,0.3,0.5,0.4,0.8l0.7,2.5l-0.7,0.2l-0.6-2.4c-0.1-0.2-0.1-0.4-0.3-0.5c-0.2-0.2-0.4-0.3-0.7-0.2c-0.2,0-0.3,0.1-0.4,0.1
			c-0.2,0.1-0.3,0.2-0.4,0.4c-0.1,0.2-0.1,0.3-0.1,0.4s0,0.3,0.1,0.6l0.5,2l-0.6,0.2L287,238.6z"/>
		<path class="st15" d="M294,237.1c0.4,0.2,0.7,0.7,0.9,1.3c0.2,0.6,0.2,1.2,0,1.7c-0.2,0.5-0.6,0.8-1.2,1c-0.5,0.1-1,0.1-1.4-0.2
			c-0.4-0.3-0.7-0.7-0.8-1.3c-0.2-0.6-0.1-1.2,0.1-1.7c0.2-0.5,0.6-0.8,1.2-0.9C293.1,236.8,293.6,236.9,294,237.1z M294.3,239.8
			c0.1-0.4,0.1-0.7-0.1-1.1c-0.1-0.4-0.2-0.6-0.4-0.8c-0.3-0.3-0.6-0.4-1.1-0.3c-0.4,0.1-0.6,0.3-0.7,0.7c-0.1,0.3-0.1,0.7,0,1.2
			c0.1,0.4,0.3,0.7,0.5,0.9c0.2,0.2,0.6,0.3,1,0.2C294,240.4,294.2,240.1,294.3,239.8z"/>
		<path class="st15" d="M294.8,235l0.6-0.2l0.5,1.9c0.1-0.2,0.2-0.4,0.4-0.6c0.2-0.1,0.4-0.3,0.6-0.3c0.5-0.1,0.9-0.1,1.3,0.2
			c0.4,0.2,0.7,0.7,0.8,1.3c0.2,0.6,0.1,1.1,0,1.6c-0.2,0.5-0.5,0.8-1.1,0.9c-0.3,0.1-0.6,0.1-0.8,0c-0.1-0.1-0.3-0.2-0.5-0.3
			l0.1,0.5l-0.6,0.2L294.8,235z M298.4,238.7c0.1-0.3,0.1-0.7,0-1.2c-0.1-0.4-0.3-0.7-0.5-0.9c-0.2-0.2-0.5-0.3-0.9-0.2
			c-0.3,0.1-0.5,0.3-0.7,0.5c-0.2,0.3-0.2,0.7,0,1.2c0.1,0.4,0.2,0.6,0.4,0.8c0.3,0.4,0.7,0.5,1.1,0.4
			C298.1,239.2,298.3,239,298.4,238.7z"/>
		<path class="st15" d="M302.2,234.9c0.4,0.2,0.7,0.7,0.9,1.3c0.2,0.6,0.2,1.2,0,1.7s-0.6,0.8-1.2,1c-0.5,0.1-1,0.1-1.4-0.2
			c-0.4-0.3-0.7-0.7-0.8-1.3c-0.2-0.6-0.1-1.2,0.1-1.7c0.2-0.5,0.6-0.8,1.2-0.9C301.3,234.6,301.7,234.7,302.2,234.9z M302.4,237.6
			c0.1-0.4,0.1-0.7-0.1-1.1c-0.1-0.4-0.2-0.6-0.4-0.8c-0.3-0.3-0.6-0.4-1.1-0.3c-0.4,0.1-0.6,0.3-0.7,0.7c-0.1,0.3-0.1,0.7,0,1.2
			c0.1,0.4,0.3,0.7,0.5,0.9s0.6,0.3,1,0.2C302.1,238.2,302.4,238,302.4,237.6z"/>
		<path class="st15" d="M305.5,233.8c0.1,0,0.3,0.1,0.5,0.3l-0.5-1.9l0.6-0.2l1.4,5.3l-0.6,0.2l-0.1-0.5c-0.1,0.3-0.2,0.5-0.4,0.7
			c-0.2,0.2-0.4,0.3-0.7,0.3c-0.4,0.1-0.8,0-1.2-0.2s-0.7-0.7-0.8-1.3c-0.2-0.6-0.1-1.1,0-1.6c0.2-0.5,0.5-0.8,1.1-0.9
			C305,233.7,305.3,233.7,305.5,233.8z M304.8,237c0.2,0.2,0.6,0.3,0.9,0.2c0.3-0.1,0.5-0.3,0.6-0.6c0.1-0.3,0.1-0.7,0-1.2
			c-0.1-0.5-0.3-0.8-0.6-1c-0.3-0.2-0.5-0.2-0.8-0.2c-0.3,0.1-0.6,0.3-0.7,0.6c-0.1,0.3-0.1,0.7,0,1.2
			C304.4,236.5,304.6,236.8,304.8,237z"/>
		<path class="st15" d="M309.8,232.5l0.7-0.2c0,0.3-0.1,0.9-0.2,1.8c-0.1,0.7-0.1,1.3-0.2,1.8c-0.1,1.1-0.2,1.7-0.3,2
			c-0.1,0.3-0.3,0.4-0.7,0.5c-0.1,0-0.2,0-0.2,0c-0.1,0-0.1,0-0.2,0l-0.2-0.6c0.1,0,0.2,0,0.3,0c0.1,0,0.1,0,0.1,0
			c0.1,0,0.2-0.1,0.2-0.1c0-0.1,0.1-0.1,0.1-0.2c0,0,0-0.1,0.1-0.3c0-0.2,0-0.3,0.1-0.4l-2.5-3.6l0.7-0.2l1.9,2.8L309.8,232.5z"/>
		<path class="st15" d="M315.5,231.1c0.3,0.1,0.5,0.2,0.7,0.3c0.2,0.2,0.3,0.4,0.4,0.6c0.1,0.2,0.2,0.4,0.3,0.8l-2.8,0.7
			c0.1,0.4,0.3,0.7,0.5,0.9c0.2,0.2,0.5,0.2,0.9,0.1c0.3-0.1,0.6-0.3,0.7-0.5c0.1-0.2,0.1-0.3,0.1-0.5l0.6-0.2c0,0.1,0,0.3,0,0.5
			c0,0.2-0.1,0.4-0.2,0.5c-0.1,0.2-0.3,0.4-0.6,0.6c-0.1,0.1-0.3,0.1-0.5,0.2c-0.5,0.1-0.9,0.1-1.3-0.2c-0.4-0.3-0.7-0.7-0.9-1.3
			c-0.2-0.6-0.1-1.2,0.1-1.6c0.2-0.5,0.6-0.8,1.1-0.9C315,231,315.2,231,315.5,231.1z M316.2,232.5c-0.1-0.3-0.2-0.5-0.4-0.6
			c-0.3-0.3-0.6-0.3-1-0.2c-0.3,0.1-0.5,0.3-0.7,0.5c-0.1,0.3-0.2,0.6-0.1,0.9L316.2,232.5z"/>
		<path class="st15" d="M316.9,229.1l0.6-0.2l1.4,5.3l-0.6,0.2L316.9,229.1z"/>
		<path class="st15" d="M319.9,232.6c0.1,0.2,0.2,0.4,0.3,0.5c0.2,0.2,0.5,0.2,0.9,0.1c0.2-0.1,0.4-0.2,0.6-0.3
			c0.2-0.2,0.2-0.3,0.1-0.6c0-0.2-0.2-0.3-0.3-0.3c-0.1,0-0.3,0-0.6,0l-0.6,0c-0.4,0-0.6,0-0.8-0.1c-0.3-0.1-0.5-0.3-0.6-0.6
			c-0.1-0.4,0-0.7,0.2-1s0.5-0.5,1-0.6c0.6-0.2,1.1-0.1,1.4,0.2c0.2,0.2,0.4,0.4,0.4,0.6l-0.6,0.2c-0.1-0.1-0.1-0.3-0.3-0.4
			c-0.2-0.1-0.5-0.1-0.9,0c-0.2,0.1-0.4,0.2-0.5,0.3c-0.1,0.1-0.1,0.3-0.1,0.4c0,0.2,0.2,0.3,0.4,0.3c0.1,0,0.3,0,0.5,0l0.5,0
			c0.5,0,0.8,0,1,0.1c0.3,0.1,0.5,0.3,0.6,0.7c0.1,0.3,0,0.7-0.2,1s-0.6,0.5-1.1,0.7c-0.6,0.2-1,0.1-1.3-0.1
			c-0.3-0.2-0.5-0.5-0.6-0.9L319.9,232.6z"/>
		<path class="st15" d="M324.9,228.6c0.3,0.1,0.5,0.2,0.7,0.3c0.2,0.2,0.3,0.4,0.4,0.6c0.1,0.2,0.2,0.4,0.3,0.8l-2.8,0.7
			c0.1,0.4,0.3,0.7,0.5,0.9c0.2,0.2,0.5,0.2,0.9,0.1c0.3-0.1,0.6-0.3,0.7-0.5c0.1-0.2,0.1-0.3,0.1-0.5l0.6-0.2c0,0.1,0,0.3,0,0.5
			s-0.1,0.4-0.2,0.5c-0.1,0.2-0.3,0.4-0.6,0.6c-0.1,0.1-0.3,0.1-0.5,0.2c-0.5,0.1-0.9,0.1-1.3-0.2c-0.4-0.3-0.7-0.7-0.9-1.3
			c-0.2-0.6-0.1-1.2,0.1-1.6c0.2-0.5,0.6-0.8,1.1-0.9C324.3,228.5,324.6,228.5,324.9,228.6z M325.5,230c-0.1-0.3-0.2-0.5-0.4-0.6
			c-0.3-0.3-0.6-0.3-1-0.2c-0.3,0.1-0.5,0.3-0.7,0.5c-0.1,0.3-0.2,0.6-0.1,0.9L325.5,230z"/>
		<path class="st15" d="M328.6,226.2c0.1-0.3,0.4-0.4,0.8-0.6c0,0,0.1,0,0.1,0c0,0,0.1,0,0.2,0l0.2,0.6c-0.1,0-0.1,0-0.1,0
			c0,0-0.1,0-0.1,0c-0.2,0.1-0.3,0.1-0.3,0.2c0,0.1,0,0.4,0.1,0.8l0.6-0.2l0.1,0.5l-0.6,0.2l0.9,3.3l-0.6,0.2l-0.9-3.3l-0.5,0.1
			l-0.1-0.5l0.5-0.1l-0.2-0.6C328.6,226.6,328.6,226.3,328.6,226.2z"/>
		<path class="st15" d="M333.6,226.5c0.4,0.2,0.7,0.7,0.9,1.3c0.2,0.6,0.2,1.2,0,1.7c-0.2,0.5-0.6,0.8-1.2,1c-0.5,0.1-1,0.1-1.4-0.2
			c-0.4-0.3-0.7-0.7-0.8-1.3c-0.2-0.6-0.1-1.2,0.1-1.7c0.2-0.5,0.6-0.8,1.2-0.9C332.7,226.3,333.1,226.3,333.6,226.5z M333.8,229.2
			c0.1-0.4,0.1-0.7-0.1-1.1c-0.1-0.4-0.2-0.6-0.4-0.8c-0.3-0.3-0.6-0.4-1.1-0.3c-0.4,0.1-0.6,0.3-0.7,0.7s-0.1,0.7,0,1.2
			c0.1,0.4,0.3,0.7,0.5,0.9c0.2,0.2,0.6,0.3,1,0.2C333.5,229.8,333.8,229.6,333.8,229.2z"/>
		<path class="st15" d="M334.8,225.8l0.6-0.2l0.2,0.7c0-0.1,0.1-0.3,0.2-0.6s0.3-0.4,0.6-0.5c0,0,0,0,0.1,0c0,0,0.1,0,0.2,0l0.2,0.7
			c0,0-0.1,0-0.1,0c0,0-0.1,0-0.1,0c-0.3,0.1-0.5,0.3-0.7,0.5c-0.1,0.3-0.1,0.5-0.1,0.8l0.6,2.2l-0.6,0.2L334.8,225.8z"/>
		<path class="st15" d="M339.4,224.7c0.1,0.1,0.3,0.1,0.5,0.3l-0.1-0.5l0.6-0.2l0.9,3.5c0.1,0.5,0.2,0.9,0.1,1.2
			c-0.1,0.6-0.6,1-1.3,1.2c-0.4,0.1-0.8,0.1-1.1,0c-0.3-0.1-0.6-0.4-0.7-0.7l0.7-0.2c0.1,0.2,0.2,0.3,0.3,0.3c0.2,0.1,0.4,0.1,0.7,0
			c0.5-0.1,0.8-0.4,0.8-0.8c0-0.2,0-0.6-0.2-1.1c-0.1,0.2-0.2,0.4-0.3,0.6c-0.2,0.1-0.4,0.3-0.7,0.3c-0.4,0.1-0.8,0.1-1.2-0.2
			c-0.4-0.2-0.7-0.7-0.9-1.3c-0.2-0.6-0.1-1.2,0.1-1.6c0.2-0.4,0.5-0.7,1-0.8C338.8,224.7,339.1,224.7,339.4,224.7z M339.6,225.4
			c-0.3-0.2-0.5-0.2-0.8-0.1c-0.5,0.1-0.7,0.4-0.8,0.9c0,0.2,0,0.6,0.1,0.9c0.1,0.4,0.3,0.7,0.5,0.9c0.2,0.2,0.5,0.2,0.8,0.1
			c0.5-0.1,0.7-0.4,0.8-0.9c0-0.3,0-0.6-0.1-0.9C340.1,225.9,339.9,225.6,339.6,225.4z"/>
		<path class="st15" d="M343.7,223.5c0.3,0.1,0.5,0.2,0.7,0.3c0.2,0.2,0.3,0.4,0.4,0.6c0.1,0.2,0.2,0.4,0.3,0.8l-2.8,0.7
			c0.1,0.4,0.3,0.7,0.5,0.9c0.2,0.2,0.5,0.2,0.9,0.1c0.3-0.1,0.6-0.3,0.7-0.5c0.1-0.2,0.1-0.3,0.1-0.5l0.6-0.2c0,0.1,0,0.3,0,0.5
			c0,0.2-0.1,0.4-0.2,0.5c-0.1,0.2-0.3,0.4-0.6,0.6c-0.1,0.1-0.3,0.1-0.5,0.2c-0.5,0.1-0.9,0.1-1.3-0.2c-0.4-0.3-0.7-0.7-0.9-1.3
			c-0.2-0.6-0.1-1.2,0.1-1.6c0.2-0.5,0.6-0.8,1.1-0.9C343.1,223.5,343.4,223.5,343.7,223.5z M344.3,225c-0.1-0.3-0.2-0.5-0.4-0.6
			c-0.3-0.3-0.6-0.3-1-0.2c-0.3,0.1-0.5,0.3-0.7,0.5c-0.1,0.3-0.2,0.6-0.1,0.9L344.3,225z"/>
		<path class="st15" d="M345.2,221.9l0.7-0.2l0.3,1.1l0.6-0.2l0.1,0.5l-0.6,0.2l0.7,2.5c0,0.1,0.1,0.2,0.2,0.2c0.1,0,0.1,0,0.3,0
			c0,0,0.1,0,0.1,0s0.1,0,0.1,0l0.1,0.5c-0.1,0-0.1,0.1-0.2,0.1c-0.1,0-0.2,0.1-0.3,0.1c-0.3,0.1-0.5,0.1-0.7-0.1
			c-0.1-0.1-0.3-0.3-0.3-0.6l-0.7-2.5l-0.5,0.1l-0.1-0.5l0.5-0.1L345.2,221.9z"/>
		<path class="st15" d="M348.5,225c0.1,0.2,0.2,0.4,0.3,0.5c0.2,0.2,0.5,0.2,0.9,0.1c0.2-0.1,0.4-0.2,0.6-0.3
			c0.2-0.2,0.2-0.3,0.1-0.6c0-0.2-0.2-0.3-0.3-0.3c-0.1,0-0.3,0-0.6,0l-0.6,0c-0.4,0-0.6,0-0.8-0.1c-0.3-0.1-0.5-0.3-0.6-0.6
			c-0.1-0.4,0-0.7,0.2-1c0.2-0.3,0.5-0.5,1-0.6c0.6-0.2,1.1-0.1,1.4,0.2c0.2,0.2,0.4,0.4,0.4,0.6l-0.6,0.2c-0.1-0.1-0.1-0.3-0.3-0.4
			c-0.2-0.1-0.5-0.1-0.9,0c-0.2,0.1-0.4,0.2-0.5,0.3c-0.1,0.1-0.1,0.3-0.1,0.4c0,0.2,0.2,0.3,0.4,0.3c0.1,0,0.3,0,0.5,0l0.5,0
			c0.5,0,0.8,0,1,0.1c0.3,0.1,0.5,0.3,0.6,0.7c0.1,0.3,0,0.7-0.2,1c-0.2,0.3-0.6,0.5-1.1,0.7c-0.6,0.2-1,0.1-1.3-0.1
			c-0.3-0.2-0.5-0.5-0.6-0.9L348.5,225z"/>
		<path class="st15" d="M352,224.5l0.8-0.2l0.2,0.8l-0.7,0.2L352,224.5z"/>
	</g>
</g>
<g>
	<path class="st6" d="M268.5,290.5l4.5,16.8l-1,0.3l-4.5-16.8L268.5,290.5z"/>
</g>
<path class="st16" d="M213.4,336.6l-149.6,40c-4.1,1.1-8.2-1.3-9.3-5.4L0.3,168.3c-1.1-4.1,1.3-8.2,5.4-9.3l149.6-40
	c4.1-1.1,8.2,1.3,9.3,5.4l54.2,202.8C219.9,331.3,217.5,335.5,213.4,336.6z"/>
<path class="st6" d="M207.7,319.6L60.2,359c-0.4,0.1-0.8-0.1-1-0.6l-50-187.2c-0.1-0.4,0.1-0.8,0.6-1L157.3,131
	c0.4-0.1,0.8,0.1,1,0.6l50,187.2C208.4,319.1,208.2,319.5,207.7,319.6z"/>
<circle class="st6" cx="136.1" cy="347.3" r="5"/>
<g>
	<path class="st8" d="M120.7,233.7c-8.8-2.1-17.3-3.9-25.9-5.8l6.3,23.7C108,245.2,115.3,239,120.7,233.7L120.7,233.7L120.7,233.7z"
		/>
	<path class="st17" d="M120.7,233.7c-8.8-2.1-25.9-5.8-25.9-5.8l23.6,8.1C118.4,236,115.3,239,120.7,233.7L120.7,233.7z"/>
	<path class="st18" d="M107.6,269.8c-16.2,4-21.7,5.2-25.3,5.4c-2.4,0.1-4.7-0.3-6.5-1.4c-1.4-0.8-2.8-2.3-4.1-4.5
		c-1.1-1.8-1.8-3.4-3.2-7.4c-2.9-9-5-16.4-6.6-24.9c-0.7-4.7-1.9-10.3,0.7-14.4c1.2-1.9,2.9-3.4,4.9-4.3c3.1-1.5,17.1-5.8,31.7-9.7
		c14.6-3.9,28.8-7.2,32.3-7.4c2.8-0.2,5.7,0.6,7.6,2.1c4.4,4.1,6.1,10.2,7.7,14.9c0.7,2.2,4.2,15.2,4.7,17.5
		c1.5,7.7,1.8,10.5,1.5,13.6c-0.2,1.9-0.6,3-1.3,4.3c-1.2,2-3,3.6-5.1,4.6C132.8,263.1,121.1,266.5,107.6,269.8L107.6,269.8z
		 M120.8,233.7c-8.8-2.1-17.3-3.9-25.9-5.9l6.3,23.7C108,245.1,115.4,238.9,120.8,233.7L120.8,233.7L120.8,233.7z"/>
</g>
</svg>
