<?xml version="1.0" encoding="utf-8"?>
<!-- Generator: Adobe Illustrator 22.1.0, SVG Export Plug-In . SVG Version: 6.00 Build 0)  -->
<svg version="1.1" id="Layer_1" xmlns="http://www.w3.org/2000/svg" xmlns:xlink="http://www.w3.org/1999/xlink" x="0px" y="0px"
	 viewBox="0 0 159.2 139.3" style="enable-background:new 0 0 159.2 139.3;" xml:space="preserve">
<style type="text/css">
	.st0{fill:#DDF28A;}
</style>
<path class="st0" d="M146.4,25.6H12.8C5.7,25.6,0,19.9,0,12.8l0,0C0,5.7,5.7,0,12.8,0h133.6c7.1,0,12.8,5.7,12.8,12.8l0,0
	C159.2,19.9,153.5,25.6,146.4,25.6z"/>
<path class="st0" d="M146.4,82.4H12.8C5.7,82.4,0,76.7,0,69.6l0,0c0-7.1,5.7-12.8,12.8-12.8h133.6c7.1,0,12.8,5.7,12.8,12.8l0,0
	C159.2,76.7,153.5,82.4,146.4,82.4z"/>
<path class="st0" d="M146.4,139.3H12.8c-7.1,0-12.8-5.7-12.8-12.8l0,0c0-7.1,5.7-12.8,12.8-12.8h133.6c7.1,0,12.8,5.7,12.8,12.8l0,0
	C159.2,133.6,153.5,139.3,146.4,139.3z"/>
</svg>
