<?xml version="1.0" encoding="utf-8"?>
<!-- Generator: Adobe Illustrator 22.1.0, SVG Export Plug-In . SVG Version: 6.00 Build 0)  -->
<svg version="1.1" id="Layer_1" xmlns="http://www.w3.org/2000/svg" xmlns:xlink="http://www.w3.org/1999/xlink" x="0px" y="0px"
	 viewBox="0 0 828.2 294" style="enable-background:new 0 0 828.2 294;" xml:space="preserve">
<style type="text/css">
	.st0{fill:#1E1C1C;}
	.st1{fill:#A5A5A5;}
	.st2{fill:#D6D6D6;}
	.st3{fill:#494949;}
	.st4{fill:#FFFFFF;}
	.st5{stroke:#000000;stroke-width:7;stroke-linecap:round;stroke-miterlimit:10;}
</style>
<g>
	<path d="M780.2,280h-424V17.2C356.2,7.7,364,0,373.5,0H763c9.5,0,17.2,7.7,17.2,17.2V280z"/>
	<rect x="369.2" y="17" class="st0" width="397" height="246"/>
	<g>
		<path class="st1" d="M822.7,294h-508c-3,0-5.5-2.5-5.5-5.5l0,0c0-3,2.5-5.5,5.5-5.5h508c3,0,5.5,2.5,5.5,5.5l0,0
			C828.2,291.5,825.8,294,822.7,294z"/>
		<path class="st2" d="M824.9,292H309.2v-12h519v8.7C828.2,290.5,826.8,292,824.9,292z"/>
		<path class="st1" d="M606.2,280h-74v3.9c0,2.3,1.9,4.1,4.1,4.1h65.7c2.3,0,4.1-1.9,4.1-4.1V280z"/>
	</g>
	<circle class="st3" cx="568.2" cy="8" r="2"/>
</g>
<g>
	<path class="st4" d="M201.6,20H23.1C10.4,20,0,30.4,0,43.1v90c0,12.7,10.4,23.1,23.1,23.1h178.5c12.7,0,23.1-10.4,23.1-23.1v-90
		C224.7,30.4,214.3,20,201.6,20z"/>
	<path class="st4" d="M171.2,182L171.2,182c14.2,0,21.2-11.1,25.9-25.9h-51.7C190.4,156.1,185,169.1,171.2,182z"/>
</g>
<line class="st5" x1="22.7" y1="61.5" x2="202.7" y2="61.5"/>
<line class="st5" x1="22.7" y1="88.5" x2="202.7" y2="88.5"/>
<line class="st5" x1="22.7" y1="115.5" x2="202.7" y2="115.5"/>
</svg>
