<?xml version="1.0" encoding="utf-8"?>
<!-- Generator: Adobe Illustrator 22.1.0, SVG Export Plug-In . SVG Version: 6.00 Build 0)  -->
<svg version="1.1" id="Layer_1" xmlns="http://www.w3.org/2000/svg" xmlns:xlink="http://www.w3.org/1999/xlink" x="0px" y="0px"
	 viewBox="0 0 676.2 369.9" style="enable-background:new 0 0 676.2 369.9;" xml:space="preserve">
<style type="text/css">
	.st0{fill:none;stroke:#F1F2F2;stroke-width:5.7504;stroke-linecap:round;stroke-miterlimit:10;}
	.st1{fill:none;stroke:#F1F2F2;stroke-width:5.7504;stroke-linecap:round;stroke-miterlimit:10;stroke-dasharray:22.2819,22.2819;}
	.st2{fill:#F1F2F2;}
	.st3{fill:url(#SVGID_1_);stroke:url(#SVGID_2_);stroke-width:1.9168;stroke-miterlimit:10;}
	.st4{fill:#DCE68B;stroke:#414042;stroke-width:3.8336;stroke-linecap:round;stroke-linejoin:round;stroke-miterlimit:10;}
	.st5{opacity:0.33;fill:url(#SVGID_3_);enable-background:new    ;}
	.st6{fill:#F1F1F2;stroke:#414042;stroke-width:3.8336;stroke-linecap:round;stroke-linejoin:round;stroke-miterlimit:10;}
</style>
<g>
	<g>
		<path class="st0" d="M151.1,230.5c3.1,2.3,6.1,4.6,9.4,6.9"/>
		<path class="st1" d="M179.2,249.1c103.9,59,237.7,34.1,154.9-109.1c-45-84.9,21.9-106.8,84.7-85.3"/>
		<path class="st0" d="M429.4,58.8c3.6,1.5,7.1,3.1,10.5,5"/>
		<g>
			<polygon class="st2" points="414.6,73.3 433.6,60.3 437.4,37.5 468.7,82.5 			"/>
		</g>
	</g>
</g>
<linearGradient id="SVGID_1_" gradientUnits="userSpaceOnUse" x1="441.7413" y1="-231.8233" x2="668.8906" y2="-231.8233" gradientTransform="matrix(1 0 0 1 0 368.1044)">
	<stop  offset="0" style="stop-color:#C1D5AF"/>
	<stop  offset="0.5" style="stop-color:#AAC691"/>
	<stop  offset="1" style="stop-color:#9EC08A"/>
</linearGradient>
<linearGradient id="SVGID_2_" gradientUnits="userSpaceOnUse" x1="440.7829" y1="-231.8233" x2="669.8489" y2="-231.8233" gradientTransform="matrix(1 0 0 1 0 368.1044)">
	<stop  offset="0" style="stop-color:#C1D5AF"/>
	<stop  offset="0.5" style="stop-color:#AAC691"/>
	<stop  offset="1" style="stop-color:#9EC08A"/>
</linearGradient>
<path class="st3" d="M485.2,114c-10.7-3.3-19-11.1-23.2-20.7l-19.2,62.3c-3.8,12.3,3.1,25.3,15.5,29.1l55.6,17.1
	c-8.6,4.4-15.3,12.1-18.4,22c-5.9,19.6,5,40.3,24.5,46.2c19.6,5.9,40.3-5,46.2-24.5c3.1-10,1.7-20.1-2.9-28.6l33,10.2
	c12.3,3.8,25.3-3.1,29.1-15.5l42.4-138.2c3.8-12.3-3.1-25.3-15.5-29.1L514.3,2C502-1.8,489,5.1,485.2,17.5L476,47.4
	c8.8-5.6,19.9-7.5,30.9-4.2c19.6,5.9,30.5,26.6,24.5,46.2S504.7,119.9,485.2,114z"/>
<path class="st4" d="M490.5,129.3c-10.7-3.3-19-11.1-23.2-20.7l-19.2,62.3c-3.8,12.3,3.1,25.3,15.5,29.1l55.6,17.1
	c-8.6,4.4-15.3,12.1-18.4,22c-5.9,19.6,5,40.3,24.5,46.2c19.6,5.9,40.3-5,46.2-24.5c3.1-10,1.7-20.1-2.9-28.6l33,10.2
	c12.3,3.8,25.3-3.1,29.1-15.5l42.4-138.2c3.8-12.3-3.1-25.3-15.5-29.1l-138-42.2c-12.3-3.8-25.3,3.1-29.1,15.5l-9.2,29.9
	c8.8-5.6,19.9-7.5,30.9-4.2c19.6,5.9,30.5,26.6,24.5,46.2S510.1,135.2,490.5,129.3z"/>
<linearGradient id="SVGID_3_" gradientUnits="userSpaceOnUse" x1="0" y1="-112.4948" x2="271.1447" y2="-112.4948" gradientTransform="matrix(1 0 0 1 0 368.1044)">
	<stop  offset="0" style="stop-color:#8FCEEA"/>
	<stop  offset="0.5" style="stop-color:#67BEE1"/>
	<stop  offset="0.7594" style="stop-color:#39AFD7"/>
	<stop  offset="1" style="stop-color:#00A4CF"/>
</linearGradient>
<path class="st5" d="M112.7,325.8c-3.5,10.7-11.3,18.8-21.1,22.8l62.1,20.1c12.3,4,25.3-2.7,29.3-15l17.8-55.4
	c4.2,8.6,11.9,15.5,21.9,18.8c19.6,6.3,40.4-4.4,46.6-24c6.3-19.6-4.4-40.4-24-46.6c-10-3.3-20.1-1.9-28.6,2.5l10.5-32.8
	c4-12.3-2.7-25.3-15-29.3L75,142.5c-12.3-4-25.3,2.7-29.3,15L1.2,295.1c-4,12.3,2.7,25.3,15,29.3l29.7,9.6c-5.6-9-7.3-20.1-3.6-30.9
	c6.3-19.6,27.2-30.1,46.6-24S119.1,306.4,112.7,325.8z"/>
<path class="st6" d="M128.3,320.8c-3.5,10.7-11.3,18.8-21.1,22.8l62.1,20.1c12.3,4,25.3-2.7,29.3-15l17.8-55.4
	c4.2,8.6,11.9,15.5,21.9,18.8c19.6,6.3,40.4-4.4,46.6-24c6.3-19.6-4.4-40.4-24-46.6c-10-3.3-20.1-1.9-28.6,2.5l10.5-32.8
	c4-12.3-2.7-25.3-15-29.3L90.5,137.5c-12.3-4-25.3,2.7-29.3,15L16.7,289.9c-4,12.3,2.7,25.3,15,29.3l29.7,9.6
	c-5.6-9-7.3-20.1-3.6-30.9c6.3-19.6,27.2-30.1,46.6-24S134.4,301.2,128.3,320.8z"/>
</svg>
