<?xml version="1.0" encoding="utf-8"?>
<!-- Generator: Adobe Illustrator 22.1.0, SVG Export Plug-In . SVG Version: 6.00 Build 0)  -->
<svg version="1.1" id="Layer_1" xmlns="http://www.w3.org/2000/svg" xmlns:xlink="http://www.w3.org/1999/xlink" x="0px" y="0px"
	 viewBox="0 0 352.8 193" style="enable-background:new 0 0 352.8 193;" xml:space="preserve">
<style type="text/css">
	.st0{fill:none;stroke:#F1F2F2;stroke-width:3;stroke-linecap:round;stroke-miterlimit:10;}
	.st1{fill:none;stroke:#F1F2F2;stroke-width:3;stroke-linecap:round;stroke-miterlimit:10;stroke-dasharray:11.6245,11.6245;}
	.st2{fill:#F1F2F2;}
	.st3{fill:url(#SVGID_1_);stroke:url(#SVGID_2_);stroke-miterlimit:10;}
	.st4{fill:#DCE68B;stroke:#414042;stroke-width:2;stroke-linecap:round;stroke-linejoin:round;stroke-miterlimit:10;}
	.st5{opacity:0.33;fill:url(#SVGID_3_);enable-background:new    ;}
	.st6{fill:#F1F1F2;stroke:#414042;stroke-width:2;stroke-linecap:round;stroke-linejoin:round;stroke-miterlimit:10;}
</style>
<g>
	<g>
		<path class="st0" d="M78.8,120.3c1.6,1.2,3.2,2.4,4.9,3.6"/>
		<path class="st1" d="M93.5,130c54.2,30.8,124,17.8,80.8-56.9c-23.5-44.3,11.4-55.7,44.2-44.5"/>
		<path class="st0" d="M224,30.7c1.9,0.8,3.7,1.6,5.5,2.6"/>
		<g>
			<polygon class="st2" points="216.3,38.3 226.2,31.5 228.2,19.6 244.5,43.1 			"/>
		</g>
	</g>
</g>
<linearGradient id="SVGID_1_" gradientUnits="userSpaceOnUse" x1="230.4576" y1="513.0062" x2="348.9619" y2="513.0062" gradientTransform="matrix(1 0 0 -1 0 584.1044)">
	<stop  offset="0" style="stop-color:#C1D5AF"/>
	<stop  offset="0.5" style="stop-color:#AAC691"/>
	<stop  offset="1" style="stop-color:#9EC08A"/>
</linearGradient>
<linearGradient id="SVGID_2_" gradientUnits="userSpaceOnUse" x1="229.9576" y1="513.0062" x2="349.4619" y2="513.0062" gradientTransform="matrix(1 0 0 -1 0 584.1044)">
	<stop  offset="0" style="stop-color:#C1D5AF"/>
	<stop  offset="0.5" style="stop-color:#AAC691"/>
	<stop  offset="1" style="stop-color:#9EC08A"/>
</linearGradient>
<path class="st3" d="M253.1,59.5c-5.6-1.7-9.9-5.8-12.1-10.8l-10,32.5c-2,6.4,1.6,13.2,8.1,15.2l29,8.9c-4.5,2.3-8,6.3-9.6,11.5
	c-3.1,10.2,2.6,21,12.8,24.1s21-2.6,24.1-12.8c1.6-5.2,0.9-10.5-1.5-14.9l17.2,5.3c6.4,2,13.2-1.6,15.2-8.1l22.1-72.1
	c2-6.4-1.6-13.2-8.1-15.2l-72-22c-6.4-2-13.2,1.6-15.2,8.1l-4.8,15.6c4.6-2.9,10.4-3.9,16.1-2.2c10.2,3.1,15.9,13.9,12.8,24.1
	C274.1,56.9,263.3,62.6,253.1,59.5z"/>
<path class="st4" d="M255.9,67.5c-5.6-1.7-9.9-5.8-12.1-10.8l-10,32.5c-2,6.4,1.6,13.2,8.1,15.2l29,8.9c-4.5,2.3-8,6.3-9.6,11.5
	c-3.1,10.2,2.6,21,12.8,24.1c10.2,3.1,21-2.6,24.1-12.8c1.6-5.2,0.9-10.5-1.5-14.9l17.2,5.3c6.4,2,13.2-1.6,15.2-8.1l22.1-72.1
	c2-6.4-1.6-13.2-8.1-15.2l-72-22c-6.4-2-13.2,1.6-15.2,8.1l-4.8,15.6c4.6-2.9,10.4-3.9,16.1-2.2c10.2,3.1,15.9,13.9,12.8,24.1
	C276.9,64.9,266.1,70.6,255.9,67.5z"/>
<linearGradient id="SVGID_3_" gradientUnits="userSpaceOnUse" x1="0" y1="450.7522" x2="141.4568" y2="450.7522" gradientTransform="matrix(1 0 0 -1 0 584.1044)">
	<stop  offset="0" style="stop-color:#8FCEEA"/>
	<stop  offset="0.5" style="stop-color:#67BEE1"/>
	<stop  offset="0.7594" style="stop-color:#39AFD7"/>
	<stop  offset="1" style="stop-color:#00A4CF"/>
</linearGradient>
<path class="st5" d="M58.8,170c-1.8,5.6-5.9,9.8-11,11.9l32.4,10.5c6.4,2.1,13.2-1.4,15.3-7.8l9.3-28.9c2.2,4.5,6.2,8.1,11.4,9.8
	c10.2,3.3,21.1-2.3,24.3-12.5c3.3-10.2-2.3-21.1-12.5-24.3c-5.2-1.7-10.5-1-14.9,1.3l5.5-17.1c2.1-6.4-1.4-13.2-7.8-15.3L39.1,74.4
	c-6.4-2.1-13.2,1.4-15.3,7.8L0.6,154c-2.1,6.4,1.4,13.2,7.8,15.3l15.5,5c-2.9-4.7-3.8-10.5-1.9-16.1c3.3-10.2,14.2-15.7,24.3-12.5
	S62.1,159.9,58.8,170z"/>
<path class="st6" d="M66.9,167.4c-1.8,5.6-5.9,9.8-11,11.9l32.4,10.5c6.4,2.1,13.2-1.4,15.3-7.8l9.3-28.9c2.2,4.5,6.2,8.1,11.4,9.8
	c10.2,3.3,21.1-2.3,24.3-12.5c3.3-10.2-2.3-21.1-12.5-24.3c-5.2-1.7-10.5-1-14.9,1.3l5.5-17.1c2.1-6.4-1.4-13.2-7.8-15.3L47.2,71.8
	c-6.4-2.1-13.2,1.4-15.3,7.8L8.7,151.3c-2.1,6.4,1.4,13.2,7.8,15.3l15.5,5c-2.9-4.7-3.8-10.5-1.9-16.1c3.3-10.2,14.2-15.7,24.3-12.5
	S70.1,157.2,66.9,167.4z"/>
</svg>
