<?xml version="1.0" encoding="utf-8"?>
<!-- Generator: Adobe Illustrator 22.1.0, SVG Export Plug-In . SVG Version: 6.00 Build 0)  -->
<svg version="1.1" id="Layer_1" xmlns="http://www.w3.org/2000/svg" xmlns:xlink="http://www.w3.org/1999/xlink" x="0px" y="0px"
	 viewBox="0 0 72 72" style="enable-background:new 0 0 72 72;" xml:space="preserve">
<style type="text/css">
	.st0{fill:#FFFFFF;}
</style>
<g>
	<path class="st0" d="M64.3,0H7.7C3.5,0,0,3.5,0,7.7v56.6C0,68.5,3.5,72,7.7,72h56.6c4.3,0,7.7-3.5,7.7-7.7V7.7
		C72,3.5,68.5,0,64.3,0z M56.1,25.5c0,0.5,0,0.9,0,1.4c0,13.9-10.6,30-30,30c-6,0-11.5-1.7-16.2-4.7c0.9,0.1,1.7,0.1,2.5,0.1
		c4.9,0,9.5-1.7,13.1-4.5c-4.6-0.1-8.5-3.1-9.9-7.3c1.6,0.2,3.1,0.2,4.8-0.2c-4.8-1-8.4-5.2-8.4-10.4v-0.1c1.4,0.8,3,1.3,4.8,1.3
		c-2.9-2-4.7-5.2-4.7-8.8c0-2,0.5-3.8,1.4-5.3c5.2,6.4,13,10.6,21.7,11c-1.5-7.2,3.9-13,10.3-13c3,0,5.8,1.3,7.7,3.3
		c2.4-0.5,4.7-1.3,6.7-2.5c-0.8,2.4-2.4,4.5-4.6,5.8c2.1-0.2,4.2-0.8,6.1-1.6C59.9,22.2,58.1,24,56.1,25.5z"/>
</g>
<g>
</g>
<g>
</g>
<g>
</g>
<g>
</g>
<g>
</g>
<g>
</g>
<g>
</g>
<g>
</g>
<g>
</g>
<g>
</g>
<g>
</g>
</svg>
